<svg width="346" height="216" viewBox="0 0 346 216" fill="none" xmlns="http://www.w3.org/2000/svg">
<path d="M224.512 17.6246L230.482 32.4128L226.774 32.3976L223.796 23.3073L224.512 17.6246Z" fill="#E0E0E0"/>
<path d="M204.125 3.96378L202.073 32.2965L223.263 32.7212L225.645 3.96378H204.125Z" fill="#EEEEEE"/>
<path d="M206.246 6.24904L204.533 29.8243L220.286 30.5422L222.49 6.10748L206.246 6.24904Z" fill="#FAFAFA"/>
<path d="M209.699 9.58078L208.424 26.1537H217.111L218.646 9.58078H209.699Z" fill="#E0E0E0"/>
<path d="M183.227 32.4735V18.2869H193.956V32.4634L183.227 32.4735Z" fill="#EEEEEE"/>
<path d="M189.328 18.2869C189.328 18.2869 191.913 -0.0252529 191.187 2.61483e-05C190.461 0.0253052 188.644 16.6842 188.644 16.6842C188.644 16.6842 188.56 2.89195 187.886 2.96273C187.212 3.03351 187.886 17.5791 187.886 17.5791C187.886 17.5791 186.716 5.77881 186.089 6.06194C185.463 6.34506 186.356 18.2869 186.356 18.2869H189.328Z" fill="#E0E0E0"/>
<path d="M187.374 18.2869C187.374 18.2869 188.273 9.16115 188.56 9.78301C188.847 10.4049 188.56 15.218 188.56 15.218C188.56 15.218 191.041 3.42281 191.694 3.82728C192.347 4.23174 189.15 16.6286 189.15 16.6286C189.15 16.6286 191.574 9.55045 192.107 10.2936C192.639 11.0369 190.127 17.6802 190.127 17.6802C190.127 17.6802 192.739 12.9833 192.906 13.6355C193.073 14.2877 191.663 18.3071 191.663 18.3071L187.374 18.2869Z" fill="#EEEEEE"/>
<path d="M185.844 18.3424C185.844 18.3424 180.098 7.44213 180.819 7.78087C181.54 8.11961 185.196 15.1573 185.196 15.1573C185.196 15.1573 182.767 8.35217 183.3 8.155C183.833 7.95782 186.497 15.7893 186.497 15.7893L187.092 18.3424H185.844Z" fill="#F5F5F5"/>
<path d="M188.194 18.3121L188.461 32.4937H183.363L183.264 18.2666L188.194 18.3121Z" fill="#E0E0E0"/>
<path d="M183.238 19.5407L188.179 19.6216L193.956 19.5407L194.139 18.1857H183.097L183.238 19.5407Z" fill="#E0E0E0"/>
<path d="M247.489 32.0791H172.363V35.8254H247.489V32.0791Z" fill="#E0E0E0"/>
<path d="M54.6145 94.9379L55.6957 213.234H7.28644V96.5507L54.6145 94.9379Z" fill="#F5F5F5"/>
<path d="M28.5347 95.8278L28.963 213.234H7.28644V96.5507L28.5347 95.8278Z" fill="#E0E0E0"/>
<path d="M53.0946 96.399V112.977H30.1644V97.1827L53.0946 96.399Z" fill="#E0E0E0"/>
<path d="M45.1865 100.959V103.406H38.1716V100.737L45.1865 100.959Z" fill="#F5F5F5"/>
<path d="M45.1866 105.469H37.9419V106.47H45.1866V105.469Z" fill="#F5F5F5"/>
<path d="M53.0946 154.5V171.083H30.1644V155.284L53.0946 154.5Z" fill="#E0E0E0"/>
<path d="M45.1865 159.066V161.513H38.1716V158.843L45.1865 159.066Z" fill="#F5F5F5"/>
<path d="M45.1866 163.57H37.9419V164.571H45.1866V163.57Z" fill="#F5F5F5"/>
<path d="M53.0946 115.09V131.673H30.1644V115.874L53.0946 115.09Z" fill="#E0E0E0"/>
<path d="M45.1865 119.651V122.103H38.1716V119.428L45.1865 119.651Z" fill="#F5F5F5"/>
<path d="M45.1866 124.16H37.9419V125.161H45.1866V124.16Z" fill="#F5F5F5"/>
<path d="M53.0946 173.192V189.77H30.1644V173.975L53.0946 173.192Z" fill="#E0E0E0"/>
<path d="M45.1865 177.752V180.199H38.1716V177.529L45.1865 177.752Z" fill="#F5F5F5"/>
<path d="M45.1866 182.262H37.9419V183.263H45.1866V182.262Z" fill="#F5F5F5"/>
<path d="M53.3401 191.878V208.461H30.4099V192.662L53.3401 191.878Z" fill="#E0E0E0"/>
<path d="M45.4321 196.438V198.89H38.4172V196.216L45.4321 196.438Z" fill="#F5F5F5"/>
<path d="M45.4321 200.948H38.1874V201.949H45.4321V200.948Z" fill="#F5F5F5"/>
<path d="M53.3923 134.944H30.4622V151.527H53.3923V134.944Z" fill="#E0E0E0"/>
<path d="M45.3327 142.417V144.717H38.7357V142.21L45.3327 142.417Z" fill="#F5F5F5"/>
<path d="M45.3328 146.654H38.5216V147.594H45.3328V146.654Z" fill="#F5F5F5"/>
<path d="M195.946 198.799V213.254H217.784H241.869V198.799H195.946Z" fill="#F5F5F5"/>
<path d="M194.018 194.76V198.799H243.472V194.76H217.784H194.018Z" fill="#E0E0E0"/>
<path d="M218.745 213.254H241.869V198.799H243.472V194.76H217.784V198.425L218.745 213.254Z" fill="#E0E0E0"/>
<path d="M211.684 201.13H202.37V203.304H211.684V201.13Z" fill="#E0E0E0"/>
<path d="M213.125 206.024H201.169V210.62H213.125V206.024Z" fill="white"/>
<path d="M255.277 180.305V194.76H277.11H301.195V180.305H255.277Z" fill="#F5F5F5"/>
<path d="M253.349 176.266V180.305H302.798V176.266H277.11H253.349Z" fill="#E0E0E0"/>
<path d="M278.077 194.76H301.195V180.305H302.798V176.266H277.11V179.931L278.077 194.76Z" fill="#E0E0E0"/>
<path d="M271.009 182.636H261.696V184.81H271.009V182.636Z" fill="#E0E0E0"/>
<path d="M272.456 187.53H260.5V192.126H272.456V187.53Z" fill="white"/>
<path d="M253.073 198.799V213.254H274.911H298.996V198.799H253.073Z" fill="#F5F5F5"/>
<path d="M251.151 194.76V198.799H300.599V194.76H274.911H251.151Z" fill="#E0E0E0"/>
<path d="M275.877 213.254H298.996V198.799H300.599V194.76H274.911V198.425L275.877 213.254Z" fill="#E0E0E0"/>
<path d="M268.81 201.13H259.497V203.304H268.81V201.13Z" fill="#E0E0E0"/>
<path d="M270.257 206.024H258.301V210.62H270.257V206.024Z" fill="white"/>
<path d="M298.348 94.8772L297.267 213.168H345.671V96.49L298.348 94.8772Z" fill="#F5F5F5"/>
<path d="M324.428 95.7671L324 213.168H345.671V96.49L324.428 95.7671Z" fill="#E0E0E0"/>
<path d="M299.868 96.3384V112.916H322.798V97.122L299.868 96.3384Z" fill="#E0E0E0"/>
<path d="M307.776 100.899V103.346H314.791V100.676L307.776 100.899Z" fill="#F5F5F5"/>
<path d="M315.021 105.408H307.776V106.41H315.021V105.408Z" fill="#F5F5F5"/>
<path d="M299.868 154.44V171.023H322.798V155.223L299.868 154.44Z" fill="#E0E0E0"/>
<path d="M307.776 159.005V161.452H314.791V158.783L307.776 159.005Z" fill="#F5F5F5"/>
<path d="M315.021 163.51H307.776V164.511H315.021V163.51Z" fill="#F5F5F5"/>
<path d="M299.868 115.03V131.613H322.798V115.813L299.868 115.03Z" fill="#E0E0E0"/>
<path d="M307.776 119.59V122.042H314.791V119.368L307.776 119.59Z" fill="#F5F5F5"/>
<path d="M315.021 124.1H307.776V125.101H315.021V124.1Z" fill="#F5F5F5"/>
<path d="M299.868 173.131V189.709H322.798V173.915L299.868 173.131Z" fill="#E0E0E0"/>
<path d="M307.776 177.691V180.138H314.791V177.469L307.776 177.691Z" fill="#F5F5F5"/>
<path d="M315.021 182.201H307.776V183.202H315.021V182.201Z" fill="#F5F5F5"/>
<path d="M299.622 191.817V208.4H322.553V192.601L299.622 191.817Z" fill="#E0E0E0"/>
<path d="M307.525 196.378V198.83H314.545V196.155L307.525 196.378Z" fill="#F5F5F5"/>
<path d="M314.77 200.887H307.525V201.888H314.77V200.887Z" fill="#F5F5F5"/>
<path d="M322.5 134.884H299.57V151.467H322.5V134.884Z" fill="#E0E0E0"/>
<path d="M307.63 142.356V144.657H314.227V142.144L307.63 142.356Z" fill="#F5F5F5"/>
<path d="M314.441 146.593H307.63V147.533H314.441V146.593Z" fill="#F5F5F5"/>
<path d="M346 213.239C346 213.309 268.539 213.37 173.01 213.37C77.482 213.37 0 213.309 0 213.239C0 213.168 77.4455 213.112 173.01 213.112C268.575 213.112 346 213.163 346 213.239Z" fill="#424242"/>
<path d="M103.045 77.3134L106.732 138.18C106.795 139.225 107.267 140.207 108.052 140.926C108.838 141.644 109.877 142.046 110.958 142.048L224.146 142.382C224.704 142.384 225.256 142.279 225.772 142.074C226.287 141.87 226.756 141.568 227.152 141.188C227.547 140.808 227.861 140.356 228.076 139.858C228.291 139.36 228.402 138.826 228.403 138.286L228.555 90.8933C228.556 90.3514 228.447 89.8146 228.233 89.3137C228.019 88.8129 227.705 88.3579 227.309 87.9749C226.913 87.592 226.442 87.2886 225.925 87.0823C225.407 86.876 224.852 86.7708 224.292 86.7728L154.682 87.0003C154.125 87.0024 153.573 86.898 153.057 86.6933C152.542 86.4886 152.074 86.1874 151.679 85.8072L139.618 74.2395C138.825 73.48 137.756 73.0516 136.641 73.0463L107.296 72.9604C106.717 72.9594 106.143 73.0732 105.611 73.2947C105.078 73.5163 104.598 73.8408 104.2 74.2485C103.802 74.6562 103.494 75.1384 103.295 75.6654C103.096 76.1925 103.011 76.7533 103.045 77.3134Z" fill="#B75400"/>
<path opacity="0.3" d="M103.045 77.3134L106.732 138.18C106.795 139.225 107.267 140.207 108.052 140.926C108.838 141.644 109.877 142.046 110.958 142.048L224.146 142.382C224.704 142.384 225.256 142.279 225.772 142.074C226.287 141.87 226.756 141.568 227.152 141.188C227.547 140.808 227.861 140.356 228.076 139.858C228.291 139.36 228.402 138.826 228.403 138.286L228.555 90.8933C228.556 90.3514 228.447 89.8146 228.233 89.3137C228.019 88.8129 227.705 88.3579 227.309 87.9749C226.913 87.592 226.442 87.2886 225.925 87.0823C225.407 86.876 224.852 86.7708 224.292 86.7728L154.682 87.0003C154.125 87.0024 153.573 86.898 153.057 86.6933C152.542 86.4886 152.074 86.1874 151.679 85.8072L139.618 74.2395C138.825 73.48 137.756 73.0516 136.641 73.0463L107.296 72.9604C106.717 72.9594 106.143 73.0732 105.611 73.2947C105.078 73.5163 104.598 73.8408 104.2 74.2485C103.802 74.6562 103.494 75.1384 103.295 75.6654C103.096 76.1925 103.011 76.7533 103.045 77.3134Z" fill="black"/>
<path d="M141.553 50.0839L104.333 97.3757L143.394 126.178L180.614 78.8863L141.553 50.0839Z" fill="white"/>
<path d="M141.551 50.0778L141.378 50.3104L140.856 50.9727C140.396 51.5642 139.723 52.4237 138.85 53.5511L131.261 63.2482L104.429 97.4406L104.403 97.2788L143.473 126.067L143.28 126.092L180.516 78.815L180.542 78.9667L152.237 58.0255L144.34 52.1658L142.251 50.6188L141.551 50.0778L142.261 50.5834L144.35 52.1001L152.248 57.8991L180.683 78.7897L180.772 78.8554L180.704 78.9464L143.504 126.254L143.421 126.36L143.311 126.279L104.262 97.4608L104.168 97.39L104.241 97.2939L131.219 63.1117L138.845 53.4702L140.861 50.9423L141.384 50.2952L141.551 50.0778Z" fill="#424242"/>
<path d="M142.678 53.5869L108.073 97.5568L142.218 122.735L176.824 78.7649L142.678 53.5869Z" fill="#424242"/>
<path d="M142.219 123.25L133.078 92.2432L153.846 92.5213L151.825 80.8323L176.823 79.2801L142.219 123.25Z" fill="#616161"/>
<path d="M139.032 84.0222C141.493 83.6972 143.216 81.5027 142.88 79.1206C142.544 76.7386 140.277 75.071 137.816 75.3961C135.355 75.7211 133.632 77.9156 133.968 80.2977C134.304 82.6797 136.571 84.3473 139.032 84.0222Z" fill="#616161"/>
<path d="M149.823 49.5655L147.008 115.665L232.425 119.072L235.239 52.973L149.823 49.5655Z" fill="white"/>
<path d="M235.22 52.9596H234.812L233.621 52.9191L228.988 52.7472L211.511 52.0849L149.798 49.6834L149.924 49.5722C149.093 69.2443 148.137 91.7983 147.129 115.667L146.999 115.53L232.436 118.948L232.321 119.054C233.193 99.1342 233.914 82.622 234.41 71.0897C234.671 65.316 234.875 60.786 235.011 57.7019C235.084 56.1599 235.136 54.9768 235.173 54.1629C235.209 53.3489 235.235 52.9495 235.235 52.9495C235.235 52.9495 235.235 53.3489 235.199 54.1426C235.162 54.9364 235.12 56.1144 235.063 57.6463C234.937 60.7304 234.755 65.23 234.541 71.0139C234.065 82.5664 233.381 99.1039 232.556 119.044V119.15H232.436L146.988 115.788H146.852V115.657C147.871 91.7881 148.837 69.2342 149.678 49.5621V49.4458H149.798L211.584 51.9737L229.03 52.7017L233.637 52.8989L234.817 52.9495L235.22 52.9596Z" fill="#424242"/>
<path d="M152.587 53.8424L150.126 111.622L229.542 114.79L232.002 57.0104L152.587 53.8424Z" fill="#616161"/>
<path d="M150.117 111.612L179.378 76.8027L195.606 99.9583L207.771 88.4109L229.531 114.777L150.117 111.612Z" fill="#424242"/>
<path d="M203.892 74.456C204.648 71.192 202.527 67.9526 199.155 67.2206C195.783 66.4886 192.436 68.5412 191.68 71.8052C190.924 75.0693 193.045 78.3087 196.417 79.0407C199.789 79.7727 203.136 77.72 203.892 74.456Z" fill="#424242"/>
<path d="M239.356 81.3732L123.651 96.7934L135.904 178.819L250.66 163.171L239.356 81.3732Z" fill="#EEEEEE"/>
<path d="M239.8 71.1402L125.432 94.0835L143.379 175.123L256.781 152.013L239.8 71.1402Z" fill="#E0E0E0"/>
<path d="M229.699 62.0448L119.524 99.569L148.487 177.565L257.69 140L229.699 62.0448Z" fill="white"/>
<path d="M229.699 62.0448C230.001 62.8841 240.777 92.7588 257.794 139.965L257.831 140.066L257.727 140.101L148.56 177.686L148.43 177.732L148.388 177.605L148.174 177.039C137.868 149.268 128.095 122.942 119.446 99.6095L119.404 99.4932L119.519 99.4578L229.73 62.0448L119.566 99.6802L119.639 99.5286L148.404 176.948L148.618 177.519L148.44 177.438L257.653 139.899L257.586 140.036C240.694 92.7841 230.001 62.8841 229.699 62.0448Z" fill="#424242"/>
<path d="M232.806 136.856C232.592 136.931 227.301 123.63 220.986 107.148C214.671 90.6657 209.714 77.2426 209.929 77.1667C210.143 77.0909 215.429 90.3877 221.749 106.875C228.069 123.362 233.015 136.77 232.806 136.856Z" fill="#424242"/>
<path d="M223.394 141.017C223.185 141.092 217.889 127.791 211.574 111.314C205.259 94.8368 200.307 81.4035 200.516 81.3277C200.725 81.2518 206.021 94.5537 212.342 111.036C218.662 127.518 223.608 140.941 223.394 141.017Z" fill="#424242"/>
<path d="M194.18 152.862C193.971 152.938 188.675 139.636 182.36 123.154C176.045 106.672 171.093 93.2493 171.302 93.1734C171.511 93.0976 176.808 106.394 183.123 122.881C189.438 139.368 194.389 152.786 194.18 152.862Z" fill="#424242"/>
<path d="M203.493 149.232C203.279 149.308 197.988 136.006 191.673 119.524C185.358 103.042 180.401 89.6192 180.616 89.5433C180.83 89.4675 186.116 102.764 192.436 119.251C198.756 135.738 203.708 149.156 203.493 149.232Z" fill="#424242"/>
<path d="M212.801 145.602C212.592 145.678 207.301 132.376 200.981 115.899C194.661 99.4224 189.714 85.9892 189.923 85.9133C190.132 85.8375 195.429 99.1393 201.749 115.621C208.069 132.103 213.015 145.526 212.801 145.602Z" fill="#424242"/>
<path d="M183.394 155.865C183.185 155.941 177.889 142.639 171.574 126.157C165.259 109.676 160.307 96.2524 160.516 96.1766C160.725 96.1007 166.022 109.397 172.342 125.884C178.662 142.371 183.608 155.79 183.394 155.865Z" fill="#424242"/>
<path d="M173.078 159.521C172.869 159.597 167.578 146.295 161.258 129.818C154.938 113.341 149.992 99.9129 150.2 99.8623C150.409 99.8117 155.706 113.088 162.026 129.57C168.346 146.052 173.293 159.45 173.078 159.521Z" fill="#424242"/>
<path d="M162.768 163.186C162.554 163.262 157.262 149.96 150.942 133.483C144.622 117.006 139.676 103.573 139.89 103.497C140.104 103.422 145.39 116.723 151.71 133.205C158.03 149.687 162.966 163.11 162.768 163.186Z" fill="#424242"/>
<path d="M100.731 110.631L109.939 185.25C110.018 185.89 110.337 186.481 110.834 186.91C111.331 187.339 111.974 187.578 112.64 187.58L233.162 187.934C233.849 187.938 234.513 187.69 235.019 187.24C235.526 186.79 235.838 186.171 235.893 185.508L242.198 110.934C242.228 110.571 242.18 110.205 242.058 109.86C241.935 109.515 241.74 109.198 241.485 108.93C241.23 108.661 240.921 108.446 240.576 108.299C240.231 108.151 239.859 108.074 239.482 108.073L103.452 107.673C103.065 107.672 102.683 107.751 102.329 107.903C101.976 108.056 101.661 108.279 101.403 108.559C101.146 108.839 100.953 109.168 100.837 109.525C100.721 109.882 100.685 110.259 100.731 110.631Z" fill="#B75400"/>
<path d="M248.189 89.8214L244.125 92.6375L246.497 103.912L251.835 99.301L248.189 89.8214Z" fill="#BF7A62"/>
<path d="M249.114 174.617L266.011 166.67L287.687 169.198C289.139 170.256 290.114 171.815 290.409 173.551C290.552 174.112 290.464 174.705 290.163 175.204C289.677 175.861 288.68 175.942 287.87 175.75C287.061 175.558 286.303 175.148 285.473 175.052C283.859 174.87 282.37 175.866 281.158 176.913C279.947 177.959 278.74 179.152 277.157 179.506C275.734 179.732 274.273 179.468 273.031 178.758C271.767 178.121 270.639 177.241 269.375 176.559C267.084 175.22 264.404 174.643 261.743 174.916C259.654 175.184 257.669 176.073 255.569 176.397C253.47 176.721 250.226 176.362 249.087 174.627" fill="#616161"/>
<path d="M289.401 207.071C289.401 207.071 275.559 161.391 275.298 159.93C275.057 158.611 277.215 126.607 278.181 118.306L262.934 118.427V118.569L255.69 118.741L258.928 209.573L268.304 210.271L268.241 180.3C274.154 194.775 281.012 210.893 281.012 210.893L289.401 207.071Z" fill="#D89377"/>
<path d="M262.062 157.837C262.062 157.837 262.031 158.191 261.999 158.848C261.945 159.75 261.959 160.654 262.041 161.553C262.156 162.889 262.385 164.213 262.725 165.512C263.174 167.096 263.726 168.651 264.376 170.168C265.661 173.444 266.81 176.422 267.625 178.576C268.011 179.628 268.335 180.492 268.575 181.139C268.703 181.45 268.808 181.77 268.889 182.095C268.725 181.8 268.583 181.495 268.466 181.18C268.204 180.538 267.849 179.663 267.421 178.652C266.554 176.513 265.373 173.551 264.089 170.269C263.77 169.45 263.457 168.646 263.159 167.873C262.878 167.121 262.641 166.355 262.449 165.578C262.119 164.261 261.91 162.92 261.822 161.568C261.762 160.658 261.78 159.745 261.874 158.838C261.911 158.515 261.952 158.272 261.989 158.105C261.997 158.012 262.021 157.922 262.062 157.837Z" fill="#BF7A62"/>
<path d="M268.262 191.2C268.262 190.922 268.476 181.033 268.476 181.033C268.476 181.033 265.081 171.857 264.992 172.135C264.903 172.413 268.262 191.2 268.262 191.2Z" fill="#BF7A62"/>
<path d="M258.4 209.543V208.532L268.325 208.724L268.272 212.091L267.661 212.121C264.93 212.217 253.757 212.44 251.939 211.874C249.96 211.226 258.4 209.543 258.4 209.543Z" fill="#B75400"/>
<g opacity="0.3">
<path opacity="0.3" d="M264.731 211.944C264.892 211.138 265.355 210.418 266.032 209.922C266.694 209.43 267.524 209.197 268.356 209.27L268.309 211.944H264.731Z" fill="white"/>
</g>
<path opacity="0.3" d="M254.274 210.509C254.274 210.509 251.307 211.277 251.662 211.757C252.018 212.238 263.321 212.42 268.309 212.081V211.869L255.131 211.757C255.131 211.757 254.849 210.539 254.274 210.509Z" fill="white"/>
<path d="M268.476 211.863C268.419 211.87 268.361 211.87 268.304 211.863H267.818L266.016 211.909C264.496 211.934 262.396 211.949 260.077 211.909C257.758 211.869 255.658 211.793 254.138 211.717L252.341 211.616L251.856 211.58H251.683H251.856H252.341L254.144 211.646C255.663 211.702 257.758 211.767 260.077 211.803C262.396 211.838 264.496 211.843 266.016 211.838H267.818H268.304L268.476 211.863Z" fill="#424242"/>
<path d="M255.125 211.904C255.052 211.615 254.943 211.335 254.802 211.07C254.628 210.823 254.427 210.595 254.201 210.392C254.508 210.505 254.759 210.725 254.906 211.009C255.088 211.272 255.166 211.59 255.125 211.904Z" fill="#424242"/>
<path d="M258.071 210.519C258.04 210.519 257.904 210.367 257.763 210.145C257.662 210.018 257.592 209.871 257.559 209.715C257.591 209.715 257.727 209.861 257.868 210.084C257.969 210.212 258.039 210.36 258.071 210.519Z" fill="#424242"/>
<path d="M258.876 210.124C258.876 210.124 258.703 210.043 258.531 209.892C258.359 209.74 258.249 209.598 258.27 209.573C258.291 209.548 258.447 209.654 258.615 209.806C258.782 209.957 258.902 210.079 258.876 210.124Z" fill="#424242"/>
<path d="M259.403 209.229C259.235 209.283 259.057 209.3 258.881 209.28C258.599 209.28 258.359 209.255 258.359 209.219C258.526 209.164 258.705 209.145 258.881 209.164C259.058 209.146 259.237 209.168 259.403 209.229Z" fill="#424242"/>
<path d="M259.597 208.592C259.417 208.681 259.22 208.733 259.019 208.744C258.817 208.755 258.616 208.726 258.427 208.658C258.62 208.629 258.816 208.619 259.012 208.628C259.205 208.6 259.401 208.588 259.597 208.592Z" fill="#424242"/>
<path d="M257.748 209.679C257.538 209.712 257.325 209.712 257.116 209.679C256.885 209.648 256.657 209.595 256.436 209.523C256.304 209.482 256.176 209.428 256.055 209.361C255.981 209.317 255.925 209.249 255.898 209.169C255.891 209.122 255.896 209.074 255.915 209.031C255.933 208.987 255.964 208.949 256.003 208.921C256.248 208.811 256.526 208.787 256.787 208.852C257.049 208.917 257.28 209.069 257.439 209.28C257.533 209.402 257.6 209.542 257.638 209.689C257.638 209.796 257.638 209.856 257.638 209.856C257.577 209.674 257.483 209.502 257.361 209.351C257.224 209.189 257.043 209.066 256.839 208.997C256.716 208.954 256.586 208.936 256.456 208.943C256.326 208.95 256.198 208.982 256.081 209.037C255.977 209.108 256.013 209.219 256.128 209.29C256.239 209.352 256.357 209.403 256.478 209.442C256.691 209.518 256.909 209.577 257.131 209.619C257.507 209.654 257.748 209.659 257.748 209.679Z" fill="#424242"/>
<path d="M257.586 209.705C257.506 209.575 257.482 209.421 257.518 209.275C257.541 209.115 257.604 208.962 257.701 208.83C257.754 208.741 257.83 208.666 257.921 208.613C258.013 208.56 258.116 208.53 258.223 208.527C258.287 208.541 258.343 208.579 258.379 208.633C258.416 208.687 258.429 208.752 258.416 208.815C258.397 208.912 258.358 209.005 258.301 209.088C258.218 209.223 258.114 209.346 257.993 209.452C257.795 209.639 257.633 209.71 257.627 209.695C257.622 209.679 257.758 209.588 257.936 209.396C258.038 209.284 258.129 209.162 258.207 209.032C258.296 208.901 258.359 208.668 258.207 208.638C258.056 208.607 257.883 208.774 257.784 208.896C257.692 209.012 257.627 209.147 257.596 209.29C257.579 209.428 257.575 209.566 257.586 209.705Z" fill="#424242"/>
<path d="M268.304 209.239C268.304 209.239 268.022 209.209 267.573 209.239C266.99 209.293 266.435 209.503 265.969 209.846C265.5 210.193 265.139 210.658 264.924 211.191C264.768 211.601 264.747 211.879 264.726 211.874C264.715 211.81 264.715 211.745 264.726 211.681C264.744 211.509 264.782 211.339 264.841 211.176C265.033 210.614 265.397 210.122 265.885 209.765C266.369 209.409 266.95 209.199 267.557 209.164C267.731 209.155 267.906 209.164 268.079 209.189C268.157 209.193 268.233 209.21 268.304 209.239Z" fill="#424242"/>
<path d="M263.503 210.989C263.028 211.087 262.542 211.126 262.057 211.105C261.57 211.12 261.084 211.075 260.61 210.969C260.61 210.933 261.258 210.969 262.057 210.969C262.856 210.969 263.498 210.953 263.503 210.989Z" fill="#424242"/>
<path d="M265.441 211.019C265.441 211.044 265.384 211.151 265.316 211.292C265.248 211.434 265.212 211.56 265.175 211.56C265.138 211.56 265.128 211.408 265.206 211.242C265.285 211.075 265.42 210.994 265.441 211.019Z" fill="#424242"/>
<path d="M266.188 210.15C266.188 210.175 266.147 210.271 266.042 210.372C265.938 210.473 265.833 210.529 265.812 210.509C265.791 210.488 265.854 210.387 265.958 210.286C266.063 210.185 266.162 210.129 266.188 210.15Z" fill="#424242"/>
<path d="M267.238 209.765C267.238 209.801 267.102 209.796 266.956 209.841C266.81 209.887 266.705 209.963 266.679 209.942C266.653 209.922 266.737 209.786 266.92 209.73C267.102 209.674 267.254 209.735 267.238 209.765Z" fill="#424242"/>
<path d="M267.99 209.573C267.99 209.604 267.943 209.654 267.86 209.679C267.776 209.705 267.703 209.71 267.687 209.679C267.672 209.649 267.734 209.604 267.818 209.573C267.902 209.543 267.954 209.573 267.99 209.573Z" fill="#424242"/>
<path d="M281.012 211.09L280.563 210.165L289.547 206.044L291.062 209.078L290.539 209.371C288.137 210.64 278.238 215.66 276.353 215.943C274.222 216.257 281.012 211.09 281.012 211.09Z" fill="#B75400"/>
<g opacity="0.3">
<path opacity="0.3" d="M287.802 210.519C287.573 209.728 287.655 208.883 288.032 208.147C288.401 207.422 289.036 206.856 289.813 206.56L291.004 208.977L287.802 210.519Z" fill="white"/>
</g>
<path opacity="0.3" d="M277.758 213.749C277.758 213.749 275.465 215.721 276.003 215.989C276.541 216.257 286.742 211.55 291.056 209.093L290.947 208.906L279.095 214.498C279.095 214.498 278.291 213.532 277.758 213.749Z" fill="white"/>
<path d="M291.082 208.835C291.037 208.87 290.988 208.901 290.936 208.926L290.508 209.154L288.941 209.973C287.593 210.65 285.718 211.57 283.624 212.536C281.529 213.502 279.617 214.341 278.223 214.927L276.546 215.64L276.092 215.817L275.93 215.873C275.978 215.843 276.028 215.817 276.081 215.797L276.525 215.6L278.165 214.882C279.549 214.275 281.456 213.426 283.55 212.46C285.645 211.494 287.52 210.584 288.878 209.932L290.487 209.149L290.926 208.941C290.975 208.903 291.028 208.867 291.082 208.835Z" fill="#424242"/>
<path d="M279.163 214.629C278.969 214.398 278.744 214.192 278.494 214.017C278.225 213.871 277.939 213.754 277.643 213.668C277.969 213.643 278.294 213.733 278.557 213.921C278.846 214.073 279.063 214.326 279.163 214.629Z" fill="#424242"/>
<path d="M281.163 212.101C281.002 212.067 280.85 211.998 280.719 211.899C280.49 211.762 280.317 211.626 280.338 211.601C280.359 211.575 280.552 211.661 280.782 211.798C281.012 211.934 281.179 212.101 281.163 212.101Z" fill="#424242"/>
<path d="M281.701 211.419C281.701 211.449 281.508 211.419 281.289 211.358C281.069 211.297 280.897 211.221 280.908 211.191C280.918 211.161 281.101 211.191 281.325 211.247C281.55 211.302 281.712 211.383 281.701 211.419Z" fill="#424242"/>
<path d="M281.759 210.387C281.759 210.418 281.576 210.539 281.32 210.66C281.17 210.75 281.003 210.808 280.829 210.832C280.829 210.802 281.012 210.68 281.268 210.559C281.418 210.47 281.585 210.411 281.759 210.387Z" fill="#424242"/>
<path d="M281.633 209.74C281.633 209.74 281.477 209.968 281.184 210.129C281.018 210.243 280.819 210.305 280.615 210.306C280.779 210.198 280.954 210.104 281.137 210.028C281.404 209.877 281.607 209.715 281.633 209.74Z" fill="#424242"/>
<path d="M280.49 211.505C280.316 211.625 280.122 211.714 279.915 211.767C279.694 211.838 279.467 211.888 279.236 211.919C279.097 211.937 278.957 211.937 278.818 211.919C278.732 211.914 278.651 211.875 278.594 211.813C278.567 211.774 278.553 211.728 278.553 211.681C278.553 211.635 278.567 211.589 278.594 211.55C278.763 211.346 279 211.205 279.264 211.15C279.529 211.094 279.804 211.129 280.046 211.247C280.187 211.317 280.312 211.415 280.411 211.535C280.485 211.616 280.511 211.671 280.5 211.676C280.36 211.531 280.193 211.411 280.009 211.323C279.807 211.237 279.584 211.209 279.367 211.242C279.237 211.256 279.112 211.295 278.998 211.356C278.884 211.418 278.784 211.501 278.703 211.601C278.646 211.712 278.73 211.798 278.86 211.808C278.99 211.82 279.122 211.82 279.252 211.808C279.476 211.783 279.697 211.742 279.915 211.687C280.26 211.596 280.49 211.489 280.49 211.505Z" fill="#424242"/>
<path d="M280.354 211.596C280.354 211.596 280.192 211.505 280.098 211.242C280.043 211.087 280.028 210.922 280.056 210.761C280.061 210.656 280.095 210.554 280.154 210.465C280.212 210.377 280.294 210.304 280.39 210.256C280.454 210.24 280.522 210.25 280.578 210.282C280.635 210.314 280.676 210.366 280.693 210.428C280.727 210.522 280.736 210.623 280.72 210.721C280.706 210.88 280.671 211.036 280.615 211.186C280.577 211.327 280.502 211.456 280.396 211.56C280.396 211.56 280.464 211.409 280.532 211.161C280.574 211.016 280.6 210.866 280.61 210.716C280.61 210.559 280.579 210.327 280.422 210.367C280.265 210.407 280.197 210.625 280.161 210.777C280.128 210.92 280.128 211.068 280.161 211.211C280.21 211.346 280.275 211.475 280.354 211.596Z" fill="#424242"/>
<path d="M289.735 206.54C289.735 206.54 289.468 206.636 289.087 206.868C288.59 207.17 288.189 207.599 287.928 208.107C287.677 208.621 287.576 209.19 287.635 209.755C287.682 210.185 287.792 210.443 287.771 210.448C287.73 210.397 287.7 210.338 287.682 210.276C287.624 210.111 287.58 209.942 287.552 209.77C287.446 209.099 287.586 208.412 287.949 207.83C288.311 207.248 288.873 206.808 289.536 206.585C289.6 206.56 289.667 206.545 289.735 206.54Z" fill="#424242"/>
<path d="M286.235 210.195C285.856 210.49 285.438 210.735 284.992 210.923C284.567 211.15 284.112 211.32 283.639 211.429C283.639 211.398 284.224 211.166 284.94 210.822C285.655 210.478 286.235 210.165 286.235 210.195Z" fill="#424242"/>
<path d="M287.99 209.386C288.022 209.386 287.99 209.528 287.99 209.684C287.99 209.841 288.022 209.973 287.99 209.983C287.959 209.993 287.881 209.866 287.875 209.684C287.87 209.502 287.959 209.371 287.99 209.386Z" fill="#424242"/>
<path d="M288.257 208.284C288.288 208.284 288.257 208.41 288.257 208.547C288.257 208.683 288.142 208.779 288.11 208.769C288.079 208.759 288.11 208.643 288.142 208.506C288.173 208.37 288.225 208.274 288.257 208.284Z" fill="#424242"/>
<path d="M289.024 207.485C289.024 207.521 288.915 207.571 288.805 207.677C288.695 207.783 288.633 207.895 288.601 207.885C288.57 207.874 288.601 207.723 288.721 207.596C288.842 207.47 289.019 207.455 289.024 207.485Z" fill="#424242"/>
<path d="M289.609 207.005C289.609 207.005 289.609 207.096 289.547 207.156C289.484 207.217 289.416 207.253 289.395 207.227C289.374 207.202 289.395 207.141 289.458 207.076C289.521 207.01 289.589 206.985 289.609 207.005Z" fill="#424242"/>
<path d="M277.773 115.732C273.595 108.755 272.55 109.569 273.96 105.505L278.035 92.2786L276.311 83.987C275.362 83.0924 274.228 82.4021 272.984 81.9612C271.74 81.5203 270.414 81.3389 269.092 81.4288L260.589 81.9951C260.589 81.9951 256.41 81.1103 250.236 86.9042L245.985 90.7618L251.359 100.636L251.631 105.115L255.507 117.365L254.462 122.77C254.013 126.88 248.304 174.021 249.077 174.769C249.85 175.517 261.79 169.779 264.673 172.135C267.557 174.491 273.36 175.937 276.635 174.921C279.91 173.905 284.82 167.6 289.777 171.852C289.787 171.852 288.168 130.025 277.773 115.732Z" fill="#424242"/>
<path d="M273.094 82.0001C273.094 82.0001 281.973 84.2803 280.641 90.4029C279.999 93.4364 275.752 99.6954 275.752 99.6954L265.713 95.0997L273.094 82.0001Z" fill="#424242"/>
<path d="M255.026 119.878C256.777 118.413 259.033 117.638 261.346 117.704C262.519 117.745 263.663 118.074 264.668 118.66C265.835 119.337 266.749 120.355 267.28 121.567C267.56 122.225 267.685 122.934 267.646 123.645C267.59 124.384 267.367 125.102 266.993 125.748C266.277 127.078 265.149 128.185 264.381 129.54C263.613 130.895 263.566 132.447 263.676 133.893C263.786 135.339 264.005 136.79 263.676 138.145C263.535 138.803 263.277 139.433 262.913 140.005C262.579 140.562 262.093 141.018 261.508 141.325C260.953 141.605 260.321 141.709 259.701 141.623C259.143 141.534 258.61 141.336 258.134 141.042C257.344 140.521 256.62 139.912 255.977 139.227C255.466 138.744 254.929 138.289 254.368 137.862C254.015 137.589 253.641 137.343 253.25 137.124C252.984 136.972 252.832 136.906 252.838 136.896C252.843 136.886 252.879 136.896 252.953 136.931C253.026 136.967 253.141 137.007 253.276 137.073C253.68 137.277 254.066 137.512 254.431 137.776C255.006 138.195 255.557 138.644 256.081 139.121C256.727 139.786 257.449 140.378 258.233 140.885C258.693 141.159 259.204 141.342 259.738 141.421C260.312 141.496 260.896 141.395 261.409 141.133C261.954 140.84 262.406 140.408 262.715 139.884C263.061 139.332 263.304 138.727 263.436 138.094C263.754 136.795 263.524 135.374 263.436 133.913C263.365 133.16 263.365 132.402 263.436 131.648C263.523 130.865 263.768 130.106 264.156 129.413C264.935 128.013 266.058 126.916 266.768 125.632C267.13 125.011 267.346 124.32 267.4 123.609C267.439 122.936 267.323 122.262 267.061 121.638C266.562 120.47 265.693 119.486 264.58 118.827C263.61 118.248 262.505 117.919 261.367 117.871C259.71 117.77 258.057 118.136 256.609 118.923C256.212 119.13 255.826 119.358 255.455 119.605L255.162 119.802C255.068 119.863 255.031 119.883 255.026 119.878Z" fill="#FAFAFA"/>
<path d="M288.742 159.081L288.607 159.116L288.199 159.182C287.839 159.238 287.311 159.318 286.632 159.404C284.703 159.687 282.754 159.816 280.803 159.789C279.452 159.768 278.108 159.598 276.797 159.283C275.283 158.92 273.848 158.302 272.556 157.458C271.109 156.528 269.961 155.225 269.239 153.696C268.474 152.037 268.318 150.175 268.795 148.418C269.057 147.532 269.519 146.714 270.148 146.022C270.774 145.385 271.453 144.8 272.179 144.272C272.868 143.773 273.497 143.202 274.055 142.569C274.558 141.945 274.905 141.216 275.068 140.44C275.402 138.923 275.246 137.407 275.319 136.001C275.314 134.68 275.655 133.379 276.311 132.219C276.869 131.275 277.627 130.457 278.536 129.818C279.216 129.333 279.973 128.957 280.777 128.706C281.285 128.546 281.811 128.444 282.344 128.402H282.757H282.898C282.186 128.455 281.485 128.592 280.808 128.812C280.023 129.075 279.286 129.457 278.625 129.944C277.646 130.644 276.854 131.559 276.315 132.614C275.775 133.669 275.503 134.834 275.522 136.011C275.46 137.402 275.632 138.918 275.293 140.496C275.13 141.308 274.772 142.072 274.248 142.725C273.681 143.378 273.04 143.967 272.336 144.48C271.621 145 270.952 145.576 270.336 146.204C269.738 146.867 269.298 147.649 269.046 148.494C268.585 150.192 268.736 151.991 269.474 153.595C270.17 155.086 271.285 156.358 272.691 157.266C273.956 158.099 275.361 158.711 276.844 159.076C278.137 159.401 279.463 159.586 280.798 159.627C282.739 159.666 284.68 159.567 286.606 159.329L288.173 159.157L288.581 159.111L288.742 159.081Z" fill="#FAFAFA"/>
<path d="M263.843 171.72C263.899 171.672 263.96 171.629 264.026 171.594C264.215 171.502 264.391 171.387 264.548 171.25C264.731 171.073 264.658 170.745 264.548 170.386C264.392 169.991 264.2 169.61 263.974 169.248C263.498 168.414 262.929 167.423 262.25 166.361C261.519 165.207 260.641 164.145 259.638 163.201C258.638 162.259 257.439 161.538 256.123 161.088C255.052 160.722 253.904 160.616 252.78 160.78C252.023 160.905 251.308 161.201 250.691 161.644C250.257 161.963 250.054 162.185 250.033 162.15C250.07 162.087 250.116 162.029 250.169 161.978C250.311 161.824 250.464 161.68 250.628 161.548C251.238 161.059 251.966 160.727 252.744 160.582C253.9 160.384 255.09 160.473 256.201 160.84C257.559 161.29 258.797 162.026 259.826 162.994C260.847 163.953 261.734 165.038 262.464 166.22C263.148 167.291 263.686 168.303 264.146 169.142C264.358 169.52 264.533 169.916 264.668 170.325C264.724 170.499 264.759 170.679 264.773 170.861C264.779 170.942 264.768 171.023 264.741 171.1C264.713 171.177 264.668 171.247 264.611 171.306C264.446 171.441 264.259 171.548 264.057 171.624C263.921 171.7 263.848 171.73 263.843 171.72Z" fill="#FAFAFA"/>
<path d="M275.266 112.279C275.266 112.279 275.204 112.401 275.016 112.542C274.742 112.739 274.426 112.873 274.091 112.937C273.591 113.031 273.074 112.989 272.597 112.815C272.016 112.593 271.514 112.209 271.156 111.713C270.529 110.812 270.258 109.723 270.393 108.644C270.41 108.204 270.509 107.771 270.686 107.365C270.733 107.365 270.618 107.871 270.586 108.654C270.512 109.679 270.789 110.699 271.375 111.556C271.707 112.004 272.161 112.354 272.686 112.568C273.122 112.737 273.595 112.794 274.06 112.734C274.49 112.663 274.9 112.508 275.266 112.279Z" fill="#FAFAFA"/>
<path d="M276.024 97.7388C276.024 97.7388 275.956 97.7388 275.82 97.7843C275.622 97.8016 275.423 97.8016 275.225 97.7843C274.486 97.7298 273.779 97.4719 273.188 97.0411C272.775 96.7447 272.431 96.3674 272.179 95.9339C271.891 95.4316 271.73 94.8702 271.709 94.2958C271.676 93.6601 271.811 93.0268 272.101 92.4555C272.443 91.8745 272.869 91.3435 273.365 90.8781C273.59 90.6415 273.779 90.3761 273.929 90.0894C274.068 89.8204 274.12 89.5178 274.081 89.2198C273.92 88.642 273.662 88.0938 273.318 87.5969C273.043 87.1248 272.92 86.5842 272.964 86.044C273.007 85.5038 273.216 84.9884 273.564 84.5634C273.8 84.2854 274.094 84.0575 274.425 83.894C274.757 83.7305 275.12 83.6348 275.491 83.6129C275.69 83.6 275.89 83.6119 276.086 83.6483C276.156 83.6546 276.223 83.6735 276.285 83.7039C276.285 83.7343 276.003 83.6584 275.501 83.7039C275.148 83.7447 274.807 83.8534 274.497 84.0236C274.188 84.1937 273.917 84.4219 273.699 84.6949C273.385 85.0935 273.2 85.5737 273.169 86.0742C273.137 86.5748 273.26 87.0731 273.522 87.5059C273.89 88.0231 274.164 88.5977 274.331 89.2046C274.376 89.5507 274.316 89.9018 274.159 90.2158C273.999 90.525 273.795 90.8109 273.553 91.0652C273.076 91.5168 272.662 92.0266 272.32 92.5819C272.053 93.115 271.924 93.7034 271.944 94.2958C271.955 94.7996 272.081 95.2948 272.313 95.7459C272.545 96.1969 272.878 96.5927 273.287 96.9046C273.848 97.3277 274.515 97.5998 275.219 97.6933C275.736 97.754 276.024 97.7135 276.024 97.7388Z" fill="#FAFAFA"/>
<path d="M252.054 102.603C252.333 102.636 252.614 102.649 252.895 102.643C253.657 102.606 254.383 102.315 254.948 101.819C255.352 101.449 255.646 100.98 255.797 100.462C255.949 99.9445 255.953 99.3965 255.81 98.8764C255.642 98.2571 255.277 97.7049 254.765 97.299C254.173 96.8658 253.655 96.3455 253.229 95.757C252.883 95.1012 252.76 94.3559 252.879 93.6285C252.958 92.9358 253.125 92.2937 253.235 91.682C253.36 91.1124 253.397 90.528 253.344 89.9478C253.295 89.4477 253.097 88.972 252.775 88.5777C252.3 88.0021 251.62 87.6182 250.869 87.5008C250.589 87.4705 250.308 87.4604 250.028 87.4705C250.028 87.4705 250.096 87.4452 250.242 87.4149C250.453 87.3897 250.667 87.3897 250.879 87.4149C251.678 87.4983 252.412 87.879 252.926 88.4766C253.282 88.8911 253.506 89.3972 253.569 89.9327C253.635 90.5352 253.605 91.1439 253.48 91.7376C253.376 92.3645 253.214 93.0015 253.146 93.6689C253.036 94.3422 253.147 95.0321 253.465 95.6407C253.881 96.2027 254.38 96.702 254.948 97.122C255.486 97.5687 255.867 98.1657 256.04 98.8309C256.188 99.3907 256.175 99.9791 256.003 100.532C255.831 101.086 255.506 101.583 255.063 101.971C254.459 102.479 253.685 102.759 252.885 102.759C252.67 102.763 252.456 102.741 252.247 102.694C252.122 102.638 252.049 102.613 252.054 102.603Z" fill="#FAFAFA"/>
<path d="M264.93 56.6351C265.821 56.4633 266.74 56.4779 267.625 56.678C268.509 56.8781 269.34 57.2591 270.06 57.7953C270.78 58.3316 271.374 59.0108 271.801 59.7874C272.227 60.5639 272.478 61.4198 272.535 62.2976C272.597 63.2633 272.472 64.3806 273.177 65.0682C273.699 65.5738 274.441 65.6547 275.063 65.9833C275.644 66.3084 276.089 66.8198 276.322 67.4292C276.555 68.0385 276.56 68.7074 276.337 69.3201C276.097 69.9218 275.637 70.4324 275.402 71.0391C275.058 71.934 274.77 72.9603 275.052 73.8754C276.504 78.6784 272.963 79.2649 271.114 79.5885C268.471 80.0384 265.791 79.2245 265.52 76.555C265.431 75.6905 263.838 75.7865 262.95 75.8978C261.905 76.0343 261.085 76.9089 260.302 77.6117C259.115 78.7813 257.613 79.6047 255.966 79.9879C255.144 80.1706 254.288 80.1545 253.474 79.9412C252.659 79.7278 251.912 79.3236 251.297 78.7644C250.127 77.5965 249.839 75.5893 250.868 74.3052C250.24 74.0281 249.685 73.617 249.244 73.1027C248.803 72.5884 248.488 71.9842 248.323 71.3354C248.158 70.6866 248.146 70.01 248.29 69.3563C248.433 68.7026 248.727 68.0888 249.15 67.5607C249.792 66.7569 250.717 66.1603 251.182 65.2452C251.568 64.4767 251.986 62.7173 252.289 61.9033C252.718 60.7556 254.18 58.7889 255.313 58.253" fill="#616161"/>
<path d="M269.625 82.8646L259.816 83.0011C259.649 81.904 259.32 77.642 259.32 77.642C259.32 77.642 255.209 77.3993 254.775 73.4861C254.342 69.5729 254.17 60.5028 254.17 60.5028C256.378 59.3363 258.868 58.7612 261.383 58.8368C263.898 58.9123 266.346 59.6358 268.476 60.9325L269.119 61.3218L269.625 82.8646Z" fill="#D89377"/>
<path d="M258.991 70.933C258.693 70.8449 258.382 70.8089 258.071 70.8268C257.925 70.8268 257.805 70.8268 257.789 70.7307C257.769 70.5896 257.791 70.4458 257.852 70.3162L258.186 69.1786C258.646 67.5607 258.949 66.2311 258.86 66.2108C258.771 66.1906 258.338 67.4798 257.878 69.0977C257.774 69.4921 257.669 69.8712 257.57 70.2403C257.501 70.4336 257.501 70.6436 257.57 70.8369C257.596 70.8886 257.634 70.9337 257.681 70.9687C257.728 71.0038 257.783 71.0279 257.842 71.0391C257.925 71.0489 258.009 71.0489 258.092 71.0391C258.396 71.0495 258.699 71.0137 258.991 70.933Z" fill="#424242"/>
<path d="M259.304 77.5864C261.177 77.4476 262.966 76.7737 264.444 75.65C264.444 75.65 263.472 78.5875 259.393 78.6026L259.304 77.5864Z" fill="#BF7A62"/>
<path d="M262.041 66.8378C262.041 66.9719 261.986 67.1005 261.888 67.1953C261.79 67.2901 261.657 67.3434 261.519 67.3434C261.453 67.3475 261.387 67.3387 261.325 67.3176C261.263 67.2965 261.205 67.2635 261.157 67.2206C261.108 67.1777 261.069 67.1257 261.041 67.0677C261.014 67.0098 260.998 66.9471 260.996 66.8833C260.996 66.7492 261.051 66.6206 261.149 66.5258C261.247 66.431 261.38 66.3777 261.519 66.3777C261.584 66.3736 261.65 66.3824 261.713 66.4035C261.775 66.4246 261.832 66.4576 261.881 66.5005C261.929 66.5434 261.969 66.5954 261.996 66.6534C262.024 66.7113 262.039 66.774 262.041 66.8378Z" fill="#424242"/>
<path d="M262.882 66.3018C262.819 66.3625 262.438 66.0793 261.884 66.0692C261.331 66.0591 260.923 66.317 260.84 66.2512C260.756 66.1855 260.882 66.1046 261.059 65.9833C261.302 65.8285 261.588 65.7492 261.879 65.7558C262.167 65.7601 262.445 65.8541 262.673 66.0237C262.861 66.1552 262.913 66.2715 262.882 66.3018Z" fill="#424242"/>
<path d="M256.384 66.8226C256.384 66.9567 256.329 67.0853 256.231 67.1801C256.133 67.2749 256 67.3282 255.862 67.3282C255.796 67.333 255.731 67.3249 255.668 67.3044C255.606 67.2839 255.549 67.2513 255.5 67.2088C255.451 67.1663 255.412 67.1146 255.384 67.0569C255.357 66.9992 255.342 66.9367 255.34 66.8731C255.34 66.7391 255.395 66.6105 255.493 66.5156C255.591 66.4208 255.723 66.3676 255.862 66.3676C255.992 66.3669 256.117 66.4132 256.214 66.4973C256.311 66.5815 256.371 66.6974 256.384 66.8226Z" fill="#424242"/>
<path d="M257.116 66.3827C257.053 66.4433 256.672 66.1602 256.118 66.1501C255.564 66.14 255.157 66.3978 255.073 66.3321C254.99 66.2664 255.115 66.1855 255.293 66.0641C255.536 65.9112 255.822 65.8336 256.113 65.8417C256.4 65.8446 256.678 65.9368 256.907 66.1046C257.095 66.236 257.152 66.3523 257.116 66.3827Z" fill="#424242"/>
<path d="M259.92 72.3081C259.865 72.1834 259.835 72.0495 259.832 71.9138C259.832 71.8452 259.854 71.7782 259.892 71.7209C259.931 71.6636 259.986 71.6182 260.051 71.5902C260.145 71.5599 260.26 71.5902 260.344 71.5245C260.427 71.4587 260.458 71.2919 260.526 71.1706C260.576 71.0933 260.65 71.0332 260.737 70.9987C260.824 70.9642 260.921 70.9571 261.012 70.9784C261.193 71.0287 261.356 71.1268 261.482 71.2616C261.647 71.4018 261.751 71.5966 261.775 71.8076C261.768 71.9089 261.738 72.0073 261.685 72.0951C261.632 72.1828 261.559 72.2575 261.472 72.3132C261.291 72.4256 261.085 72.495 260.871 72.5154C260.643 72.5491 260.412 72.5576 260.182 72.5407C260.115 72.5392 260.05 72.5255 259.988 72.5002C259.958 72.4862 259.933 72.4637 259.917 72.4358C259.9 72.4079 259.892 72.3757 259.894 72.3435" fill="#BF7A62"/>
<path d="M259.518 72.389C259.973 72.3359 260.406 72.1678 260.773 71.9016C261.14 71.6353 261.427 71.2803 261.608 70.8723" fill="#BF7A62"/>
<path d="M261.623 70.8723C261.52 71.3254 261.253 71.7278 260.87 72.0062C260.486 72.2845 260.012 72.4204 259.534 72.389C259.941 72.2191 260.336 72.0215 260.714 71.7975C261.289 71.3829 261.55 70.8369 261.623 70.8723Z" fill="#424242"/>
<path d="M255.115 64.9368C255.587 64.7209 256.12 64.6622 256.63 64.7699L255.115 64.9368Z" fill="#BF7A62"/>
<path d="M256.63 64.7699C256.588 64.9166 256.259 64.9519 255.888 64.9924C255.517 65.0328 255.188 65.0632 255.115 64.9368C255.042 64.8104 255.34 64.5222 255.831 64.4716C256.322 64.4211 256.672 64.6334 256.63 64.7699Z" fill="#424242"/>
<path d="M260.803 64.9772C261.506 64.749 262.273 64.7906 262.945 65.0935L260.803 64.9772Z" fill="#BF7A62"/>
<path d="M262.945 65.0884C262.871 65.2199 262.422 65.1187 261.869 65.0884C261.315 65.0581 260.861 65.0884 260.824 64.9671C260.787 64.8457 261.242 64.5221 261.921 64.5626C262.6 64.603 263.018 64.9772 262.945 65.0884Z" fill="#424242"/>
<path d="M263.049 56.5593C262.759 56.2362 262.403 55.974 262.005 55.7888C261.606 55.6036 261.172 55.4994 260.73 55.4824C259.398 55.3545 258.055 55.5674 256.835 56.0997C255.615 56.6321 254.561 57.4653 253.778 58.5159C252.885 59.7596 252.435 61.4938 253.256 62.7729C253.537 63.2025 253.94 63.5447 254.417 63.7583C254.894 63.972 255.425 64.0482 255.946 63.9778C256.466 63.9075 256.955 63.6935 257.353 63.3614C257.751 63.0294 258.042 62.5934 258.192 62.1055C258.2 62.3994 258.268 62.6888 258.393 62.9568C258.519 63.2247 258.697 63.4659 258.92 63.6662C259.142 63.8665 259.404 64.022 259.689 64.1235C259.974 64.225 260.277 64.2706 260.58 64.2575C260.884 64.2444 261.182 64.1729 261.456 64.0473C261.731 63.9216 261.977 63.7443 262.18 63.5256C262.383 63.3069 262.539 63.0513 262.639 62.7736C262.739 62.496 262.781 62.2018 262.762 61.9083C263.012 62.7144 263.521 63.4226 264.214 63.9306C264.94 64.3705 266.084 64.2643 266.46 63.5161C266.92 64.0217 267.562 64.5828 268.252 64.416C268.539 64.3196 268.785 64.135 268.954 63.8905C269.123 63.6459 269.204 63.3547 269.187 63.0611C269.136 62.4731 268.931 61.9075 268.591 61.4179C267.254 59.163 265.279 57.0902 262.684 56.4076" fill="#616161"/>
<path d="M266.162 61.9084C266.766 62.9497 267.088 64.1221 267.099 65.3164C267.109 66.5107 266.806 67.688 266.22 68.7387C265.783 69.3645 265.41 70.03 265.107 70.7257C264.962 71.0758 264.93 71.4601 265.015 71.8282C265.1 72.1964 265.298 72.5311 265.582 72.7884C265.964 73.0665 266.549 73.2081 266.627 73.658C266.645 73.8888 266.596 74.1198 266.486 74.3254C266.126 75.2359 266.082 76.2349 266.361 77.1718C266.549 77.7886 266.58 78.552 268.1 79.1941C268.852 79.5228 269.265 80.0789 270.9 79.6744C273.762 78.9616 272.749 72.7682 272.467 69.9218C272.185 67.0754 270.827 61.9943 269.176 59.6231" fill="#616161"/>
<path d="M259.633 81.3277C259.633 81.3277 256.666 92.051 258.557 90.9893C260.448 89.9276 269.625 82.8647 269.625 82.8647L264.987 79.4773L259.633 81.3277Z" fill="#D89377"/>
<path d="M231.694 99.7965C231.365 98.7449 227.259 96.5811 227.881 95.9996C228.69 95.2362 232.059 98.4466 232.368 98.6944C232.676 98.9421 233.047 98.5174 232.759 98.3051C232.342 98.0017 228.058 94.7003 228.863 93.947C229.302 93.5274 229.991 94.3767 229.991 94.3767C229.991 94.3767 233.752 97.7591 234.112 97.4102C234.473 97.0614 232.336 94.9784 231.563 94.3363C230.79 93.6942 230.795 93.0824 231.354 92.9813C231.741 92.9105 234.149 94.8267 234.896 95.5092C235.643 96.1918 237.664 97.9916 237.408 96.2878C237.408 96.2625 237.408 96.2373 237.408 96.2069C237.105 94.5385 237.445 93.1735 237.821 92.8195C237.91 92.7524 238.018 92.7109 238.131 92.6998C238.244 92.6888 238.357 92.7086 238.459 92.7571C238.561 92.8056 238.647 92.8807 238.706 92.974C238.766 93.0672 238.798 93.1749 238.797 93.2847C238.816 93.3663 238.816 93.4508 238.797 93.5324C238.797 93.5678 238.797 93.6184 238.797 93.6588C238.773 94.2392 238.811 94.8204 238.912 95.3929C238.988 95.9084 239.154 96.4077 239.403 96.8692C239.696 97.3748 239.968 97.8501 240.203 98.2191C242.95 99.6954 250.848 103.588 258.766 104.2C260.192 104.311 266.512 94.6599 266.512 94.6599L275.914 98.9573C273.724 102.945 271.221 106.765 268.429 110.383C260.448 120.758 235.674 103.401 235.674 103.401L235.444 103.29C233.564 102.391 231.737 101.391 229.97 100.297C227.839 98.841 227.964 98.6489 228.179 98.4315C228.748 97.8399 232.023 100.843 231.694 99.7965Z" fill="#B75400"/>
<path d="M89.1143 210.923L89.0673 206.777L81.0339 206.818V212.885L81.5563 212.915C83.7709 213.021 92.8333 213.31 94.3115 212.87C95.9464 212.374 89.1143 210.923 89.1143 210.923Z" fill="#B75400"/>
<path d="M80.9294 212.708H81.0652H81.4622L82.9247 212.763C84.1574 212.799 85.8602 212.829 87.7406 212.824C89.621 212.819 91.329 212.774 92.5617 212.728L94.019 212.662L94.4159 212.637H94.5517C94.5067 212.631 94.461 212.631 94.4159 212.637H94.019L92.5564 212.667C91.3237 212.698 89.621 212.733 87.7406 212.738C85.8602 212.743 84.1574 212.738 82.9247 212.708L81.4622 212.683H80.9399L80.9294 212.708Z" fill="#B75400"/>
<path d="M91.7468 212.875C91.8078 212.639 91.8972 212.412 92.0132 212.197C92.1655 211.998 92.3407 211.817 92.5355 211.656C92.282 211.746 92.0743 211.927 91.9557 212.162C91.7954 212.365 91.7207 212.62 91.7468 212.875Z" fill="#424242"/>
<path d="M89.3702 211.722C89.3963 211.722 89.506 211.601 89.6209 211.424C89.7052 211.322 89.7641 211.202 89.7933 211.075C89.7933 211.075 89.6575 211.191 89.5426 211.373C89.4276 211.555 89.3493 211.707 89.3702 211.722Z" fill="#424242"/>
<path d="M88.7173 211.393C88.7173 211.393 88.8636 211.328 88.9994 211.206C89.1352 211.085 89.2345 210.974 89.2188 210.953C89.2031 210.933 89.0725 211.014 88.9367 211.136C88.8009 211.257 88.7017 211.373 88.7173 211.393Z" fill="#424242"/>
<path d="M88.3047 210.66C88.439 210.704 88.5812 210.722 88.7225 210.711C88.8653 210.726 89.0097 210.71 89.1456 210.665C89.0104 210.617 88.8657 210.6 88.7225 210.615C88.5815 210.6 88.4389 210.616 88.3047 210.66Z" fill="#424242"/>
<path d="M88.1637 210.145C88.3018 210.231 88.4639 210.276 88.6286 210.271C88.7932 210.296 88.9616 210.274 89.1143 210.21C88.9577 210.182 88.7981 210.172 88.639 210.18C88.4822 210.152 88.323 210.141 88.1637 210.145Z" fill="#424242"/>
<path d="M89.6418 211.039C89.8141 211.074 89.9919 211.074 90.1642 211.039C90.3522 211.018 90.5377 210.979 90.7178 210.923C90.8267 210.892 90.9318 210.85 91.0312 210.797C91.0903 210.76 91.1345 210.705 91.1566 210.64C91.1646 210.603 91.1615 210.564 91.1476 210.528C91.1338 210.492 91.1097 210.461 91.0782 210.438C90.8804 210.347 90.6563 210.324 90.4433 210.374C90.2303 210.423 90.0414 210.542 89.9082 210.711C89.8289 210.811 89.772 210.927 89.7411 211.05C89.7286 211.092 89.7286 211.138 89.7411 211.181C89.789 211.026 89.867 210.882 89.9709 210.756C90.0864 210.625 90.2388 210.528 90.4097 210.478C90.5096 210.444 90.6157 210.429 90.7216 210.435C90.8275 210.441 90.931 210.468 91.026 210.514C91.1096 210.574 91.0782 210.665 90.9842 210.716C90.8945 210.769 90.7979 210.809 90.6969 210.837C90.5278 210.899 90.3529 210.945 90.1746 210.974C89.8403 211.024 89.6418 211.024 89.6418 211.039Z" fill="#424242"/>
<path d="M89.7724 211.09C89.8374 210.987 89.858 210.864 89.8299 210.746C89.8163 210.615 89.7677 210.49 89.6888 210.382C89.6451 210.309 89.5829 210.247 89.5081 210.203C89.4332 210.159 89.3481 210.133 89.2605 210.129C89.2088 210.14 89.1632 210.17 89.1332 210.212C89.1031 210.254 89.0908 210.306 89.0986 210.357C89.1113 210.436 89.1415 210.512 89.1874 210.579C89.2562 210.69 89.3386 210.792 89.4329 210.883C89.5136 210.973 89.6158 211.042 89.7306 211.085C89.7306 211.085 89.6262 210.994 89.4851 210.837C89.4006 210.746 89.327 210.646 89.2658 210.539C89.1979 210.433 89.1456 210.246 89.2658 210.22C89.3859 210.195 89.5269 210.332 89.6053 210.433C89.6788 210.528 89.7288 210.639 89.7515 210.756C89.7709 210.866 89.7779 210.978 89.7724 211.09Z" fill="#424242"/>
<path d="M81.0809 210.584C81.0809 210.584 81.3108 210.584 81.6764 210.584C82.1459 210.636 82.5909 210.815 82.9604 211.1C83.3299 211.386 83.6089 211.766 83.7657 212.197C83.8911 212.531 83.9015 212.753 83.9224 212.748C83.9308 212.696 83.9308 212.643 83.9224 212.592C83.9106 212.45 83.8807 212.311 83.8336 212.177C83.6878 211.721 83.4039 211.318 83.0188 211.019C82.6288 210.726 82.1584 210.55 81.6659 210.514C81.5202 210.497 81.3729 210.497 81.2272 210.514C81.1751 210.53 81.1258 210.554 81.0809 210.584Z" fill="#424242"/>
<path d="M81.9009 207.344C81.8466 207.874 81.8256 208.408 81.8382 208.941C81.8131 209.474 81.8253 210.008 81.8748 210.539C81.9255 210.008 81.9447 209.474 81.9323 208.941C81.9542 208.409 81.9438 207.875 81.9009 207.344Z" fill="#424242"/>
<path d="M84.9618 212.051C85.3461 212.131 85.7388 212.166 86.1318 212.157C86.5262 212.175 86.9214 212.143 87.3071 212.061C87.3071 212.03 86.7847 212.061 86.1318 212.061C85.4789 212.061 84.9618 212.02 84.9618 212.051Z" fill="#424242"/>
<path d="M83.3844 212.051C83.3844 212.051 83.4314 212.162 83.4836 212.278C83.5359 212.394 83.5672 212.495 83.5933 212.495C83.6194 212.495 83.6351 212.369 83.5933 212.238C83.5515 212.106 83.4053 212.035 83.3844 212.051Z" fill="#424242"/>
<path d="M82.7889 211.343C82.7889 211.343 82.8255 211.439 82.9091 211.52C82.9926 211.601 83.071 211.651 83.0919 211.636C83.1128 211.621 83.0605 211.535 82.977 211.454C82.8934 211.373 82.8098 211.323 82.7889 211.343Z" fill="#424242"/>
<path d="M81.9427 211.019C81.9427 211.044 82.0524 211.044 82.1726 211.085C82.2927 211.125 82.3763 211.181 82.3972 211.166C82.4181 211.151 82.3502 211.039 82.2039 210.994C82.0577 210.948 81.9323 210.994 81.9427 211.019Z" fill="#424242"/>
<path d="M81.3368 210.868C81.3368 210.893 81.3734 210.933 81.4413 210.959C81.5092 210.984 81.5666 210.959 81.5771 210.959C81.5875 210.959 81.5405 210.893 81.4726 210.868C81.4047 210.842 81.3472 210.842 81.3368 210.868Z" fill="#424242"/>
<path d="M42.366 204.942L44.6381 201.403L37.8479 197.252L34.4736 202.384L34.8758 202.667C36.6831 203.911 44.1524 208.881 45.641 209.28C47.3124 209.725 42.366 204.942 42.366 204.942Z" fill="#616161"/>
<path d="M34.4736 202.172L34.5833 202.258L34.9072 202.48L36.1033 203.289C37.1479 203.961 38.5426 204.876 40.1304 205.852C41.7183 206.828 43.1756 207.682 44.2412 208.284L45.5052 208.992L45.8551 209.179C45.9335 209.219 45.9753 209.24 45.9805 209.235L45.8656 209.159L45.5261 208.962L44.2777 208.228C43.2331 207.612 41.7705 206.747 40.1827 205.771C38.5948 204.796 37.1688 203.896 36.1451 203.243L34.9281 202.46L34.5938 202.252L34.4736 202.172Z" fill="#424242"/>
<path d="M43.4995 207.955C43.6835 207.792 43.8848 207.648 44.1002 207.526C44.3315 207.432 44.5734 207.366 44.821 207.328C44.5613 207.274 44.2898 207.313 44.0584 207.44C43.8109 207.536 43.6109 207.721 43.4995 207.955Z" fill="#424242"/>
<path d="M42.1414 205.746C42.1414 205.771 42.3242 205.716 42.5175 205.625C42.7108 205.534 42.8675 205.443 42.857 205.417C42.7222 205.43 42.5919 205.471 42.4757 205.539C42.3086 205.63 42.131 205.721 42.1414 205.746Z" fill="#424242"/>
<path d="M41.7863 205.129C41.7863 205.154 41.943 205.129 42.1258 205.129C42.3086 205.129 42.4548 205.053 42.4496 205.028C42.4444 205.003 42.2929 205.028 42.1101 205.028C41.9273 205.028 41.7863 205.104 41.7863 205.129Z" fill="#424242"/>
<path d="M41.8333 204.295C41.8333 204.295 41.9638 204.431 42.1571 204.558C42.3503 204.684 42.5227 204.76 42.5384 204.735C42.5541 204.71 42.4078 204.598 42.2145 204.477C42.1022 204.391 41.9722 204.329 41.8333 204.295Z" fill="#424242"/>
<path d="M42.0004 203.784C42.0004 203.784 42.1048 203.981 42.3242 204.138C42.4466 204.245 42.5996 204.314 42.763 204.335C42.763 204.31 42.5906 204.214 42.3817 204.062C42.2621 203.96 42.1346 203.867 42.0004 203.784Z" fill="#424242"/>
<path d="M42.7472 205.311C42.8733 205.426 43.0203 205.517 43.1808 205.579C43.3486 205.655 43.5235 205.716 43.7031 205.761C43.8118 205.793 43.924 205.814 44.0374 205.822C44.108 205.824 44.177 205.801 44.2306 205.756C44.2572 205.729 44.2752 205.695 44.2826 205.658C44.29 205.622 44.2865 205.584 44.2724 205.549C44.1587 205.368 43.9836 205.23 43.7768 205.16C43.5701 205.09 43.3447 205.092 43.139 205.165C43.0167 205.208 42.9048 205.275 42.8099 205.362C42.7472 205.422 42.7211 205.463 42.7264 205.468C42.8554 205.365 43.0021 205.284 43.1599 205.23C43.3301 205.18 43.5119 205.18 43.6822 205.23C43.7897 205.251 43.8916 205.294 43.9814 205.355C44.0713 205.416 44.1472 205.494 44.2045 205.584C44.2411 205.675 44.1627 205.736 44.0531 205.736C43.9488 205.729 43.8456 205.712 43.7449 205.685C43.5668 205.644 43.3922 205.59 43.2226 205.524C42.9196 205.402 42.7525 205.301 42.7472 205.311Z" fill="#424242"/>
<path d="M42.8309 205.402C42.8309 205.402 42.9667 205.342 43.0712 205.139C43.1321 205.022 43.1608 204.891 43.1548 204.76C43.1581 204.675 43.1392 204.591 43.1 204.515C43.0607 204.439 43.0023 204.374 42.9301 204.325C42.8802 204.307 42.8249 204.309 42.7761 204.329C42.7272 204.35 42.6888 204.389 42.669 204.437C42.6345 204.509 42.6184 204.589 42.622 204.669C42.6166 204.798 42.6289 204.927 42.6585 205.053C42.678 205.171 42.7263 205.282 42.7996 205.377C42.7996 205.377 42.7578 205.246 42.7264 205.038C42.7126 204.917 42.7126 204.795 42.7264 204.674C42.7264 204.548 42.7891 204.361 42.9093 204.411C43.0294 204.462 43.066 204.639 43.0816 204.765C43.0859 204.884 43.0664 205.002 43.0242 205.114C42.9685 205.215 42.9038 205.312 42.8309 205.402Z" fill="#424242"/>
<path d="M35.7952 200.473C35.7952 200.473 35.9989 200.574 36.2809 200.796C36.6512 201.086 36.9314 201.469 37.0905 201.904C37.244 202.338 37.2693 202.806 37.1637 203.254C37.0801 203.602 36.9704 203.795 36.9861 203.805C37.0197 203.765 37.0478 203.72 37.0697 203.673C37.1381 203.546 37.1924 203.412 37.2316 203.274C37.3582 202.813 37.3418 202.326 37.1846 201.873C37.0189 201.423 36.7212 201.03 36.3279 200.741C36.2088 200.656 36.081 200.583 35.9466 200.523C35.8995 200.498 35.8482 200.481 35.7952 200.473Z" fill="#424242"/>
<path d="M38.2866 198.162C37.944 198.58 37.6283 199.017 37.3412 199.472C37.0258 199.909 36.7396 200.365 36.4846 200.837C36.8251 200.417 37.1391 199.978 37.4248 199.522C37.7363 199.084 38.024 198.63 38.2866 198.162Z" fill="#424242"/>
<path d="M38.2449 203.719C38.5184 203.993 38.8295 204.229 39.1694 204.421C39.4915 204.643 39.8428 204.821 40.214 204.952C40.214 204.927 39.7648 204.684 39.2216 204.34C38.6784 203.997 38.2605 203.698 38.2449 203.719Z" fill="#424242"/>
<path d="M36.913 202.905C36.913 202.905 36.913 203.016 36.8712 203.142C36.8294 203.269 36.8189 203.37 36.8712 203.385C36.9234 203.4 36.9757 203.299 36.9965 203.157C37.0174 203.016 36.9391 202.895 36.913 202.905Z" fill="#424242"/>
<path d="M36.8085 201.99C36.8085 201.99 36.8085 202.086 36.8085 202.202C36.8085 202.318 36.8712 202.399 36.8973 202.394C36.9234 202.389 36.9286 202.293 36.8973 202.182C36.8659 202.07 36.8346 201.99 36.8085 201.99Z" fill="#424242"/>
<path d="M36.2704 201.277C36.2704 201.302 36.354 201.358 36.4323 201.454C36.5107 201.55 36.5472 201.641 36.5733 201.641C36.5994 201.641 36.6047 201.509 36.5054 201.393C36.4062 201.277 36.2808 201.251 36.2704 201.277Z" fill="#424242"/>
<path d="M35.8474 200.837C35.8474 200.837 35.8474 200.908 35.884 200.963C35.9205 201.019 35.978 201.049 35.9989 201.034C36.0198 201.019 35.9989 200.963 35.9623 200.908C35.9258 200.852 35.8683 200.817 35.8474 200.837Z" fill="#424242"/>
<path d="M73.4654 124.479C73.4654 124.479 80.2556 168.287 79.2841 170.401C78.3126 172.514 46.4872 206.373 46.4872 206.373L34.7714 198.855C34.7714 198.855 62.5487 164.981 62.3398 164.187C62.1309 163.393 51.8149 120.955 51.8149 120.955L73.4654 124.479Z" fill="#B75400"/>
<path d="M47.9445 120.359L47.5319 121.981C46.3248 126.773 47.0732 131.831 49.6212 136.102L68.0803 167.105C69.3922 169.299 70.347 171.676 70.9113 174.152L79.2685 209.947H92.1334C92.1334 210.691 88.8062 180.457 87.1348 170.416C85.8812 162.832 75.4085 139.338 70.3367 128.235L73.4707 124.494L68.0071 123.625L47.9445 120.359Z" fill="#B75400"/>
<path d="M70.7231 128.139C70.8381 128.296 70.9328 128.466 71.0052 128.645C71.1724 128.969 71.4022 129.444 71.679 130.035C72.2327 131.213 72.9587 132.862 73.7004 134.702C74.4421 136.542 75.0532 138.241 75.4711 139.464C75.6748 140.081 75.8367 140.582 75.9412 140.931C76.008 141.109 76.0536 141.294 76.077 141.482C75.9759 141.324 75.8969 141.154 75.842 140.976C75.6905 140.582 75.5024 140.102 75.2883 139.535C74.8286 138.322 74.1862 136.648 73.4445 134.808C72.7028 132.968 72.0081 131.315 71.5014 130.116C71.2716 129.56 71.0731 129.105 70.906 128.696C70.8176 128.52 70.756 128.332 70.7231 128.139Z" fill="#424242"/>
<path d="M72.2378 180.098C72.199 179.984 72.171 179.868 72.1543 179.749C72.1073 179.491 72.0446 179.158 71.9715 178.738C71.9297 178.515 71.8879 178.273 71.8409 178.01C71.7939 177.747 71.7155 177.459 71.6424 177.15C71.5014 176.539 71.3551 175.836 71.1201 175.072C71.0104 174.688 70.9007 174.289 70.7805 173.874L70.3575 172.585C70.0859 171.695 69.7046 170.77 69.3128 169.784C68.5189 167.833 67.5526 165.739 66.4296 163.565C64.4617 159.896 62.2945 156.33 59.937 152.883C59.0439 151.578 58.3178 150.511 57.7903 149.748C57.55 149.394 57.362 149.111 57.2105 148.894C57.1389 148.796 57.076 148.693 57.0225 148.585C57.111 148.669 57.1898 148.763 57.2575 148.863L57.8791 149.687C58.4014 150.41 59.1797 151.462 60.099 152.781C62.5057 156.206 64.6999 159.767 66.6698 163.444C67.7981 165.613 68.7591 167.731 69.5479 169.693C69.9083 170.704 70.2843 171.619 70.5507 172.519L70.9581 173.814C71.0678 174.238 71.1775 174.638 71.282 175.027C71.5014 175.795 71.6319 176.503 71.7625 177.12C71.8252 177.43 71.8827 177.718 71.9349 177.985C71.9767 178.253 72.008 178.49 72.0446 178.718C72.0968 179.137 72.1438 179.476 72.1804 179.729C72.2132 179.849 72.2325 179.973 72.2378 180.098Z" fill="#424242"/>
<path d="M48.2108 204.563C48.0305 204.525 47.8553 204.467 47.6885 204.391C47.2116 204.21 46.7459 204.002 46.2939 203.769C44.808 202.984 43.3865 202.09 42.0421 201.095C40.4751 199.952 39.0335 198.911 37.9575 198.223C36.8815 197.535 36.1868 197.151 36.2077 197.111C36.3905 197.164 36.5658 197.239 36.7301 197.333C37.0591 197.485 37.5136 197.738 38.0672 198.066C39.1798 198.718 40.6318 199.74 42.2093 200.882C43.5436 201.871 44.9391 202.779 46.3879 203.602C47.49 204.219 48.2265 204.517 48.2108 204.563Z" fill="#424242"/>
<path d="M92.0863 208.056C91.9128 208.076 91.7375 208.076 91.564 208.056H90.1067L85.317 208.021L80.522 208.046H79.0647C78.89 208.055 78.7148 208.045 78.5424 208.016C78.7119 207.967 78.8877 207.941 79.0647 207.94C79.4094 207.915 79.9056 207.88 80.522 207.854C81.7442 207.794 83.447 207.743 85.3222 207.748C87.1973 207.753 88.8949 207.799 90.1224 207.864C90.7335 207.895 91.2297 207.925 91.5744 207.955C91.7491 207.966 91.9214 208 92.0863 208.056Z" fill="#424242"/>
<path d="M56.4114 75.6399C55.2802 75.7883 54.1289 75.6126 53.0998 75.1344C52.5903 74.8934 52.1588 74.5218 51.8522 74.0601C51.5455 73.5984 51.3755 73.0642 51.3605 72.5155C51.3605 71.8734 51.6687 71.2414 51.559 70.6094C51.4493 69.9774 50.9635 69.4719 50.6501 68.9056C50.2777 68.1827 50.1721 67.3582 50.3507 66.569C50.5294 65.7799 50.9815 65.0737 51.6321 64.5677C52.3164 64.0622 53.1991 63.7993 53.7632 63.1774C54.4422 62.4443 54.5519 61.3826 54.9645 60.4826C55.271 59.8344 55.7369 59.2687 56.3215 58.8351C56.9061 58.4015 57.5915 58.1131 58.3179 57.9952C59.1223 57.8738 59.958 57.9598 60.7258 57.7121C61.36 57.4468 61.9582 57.1072 62.507 56.7009C64.3242 55.5639 66.5298 55.1627 68.6495 55.5836C69.5783 55.7423 70.4408 56.1545 71.1358 56.7717C71.8827 57.4896 72.8438 58.2884 73.1154 59.249C73.434 60.4119 73.0423 61.8679 72.7237 63.0257C72.4051 64.1835 71.4388 65.2452 70.2061 65.3868" fill="#424242"/>
<path d="M56.1554 84.5837L65.9647 84.7151C66.1318 83.6231 66.487 79.356 66.487 79.356C66.487 79.356 70.5977 79.1183 71.026 75.2001C71.4543 71.2819 71.6319 62.2219 71.6319 62.2219C69.4232 61.0529 66.9318 60.4764 64.4157 60.5519C61.8995 60.6275 59.4499 61.3524 57.3202 62.6516L56.6777 63.046L56.1554 84.5837Z" fill="#FFBE9D"/>
<path d="M66.79 72.6469C67.0906 72.5653 67.4028 72.5312 67.7146 72.5458C67.8608 72.5458 67.9757 72.5205 67.9966 72.4447C68.0116 72.3048 67.9882 72.1635 67.9287 72.0352L67.5944 70.8976C67.2699 69.9304 67.0442 68.9347 66.9206 67.9248C67.346 68.8549 67.6749 69.8236 67.9026 70.8167C68.0123 71.2111 68.1115 71.5852 68.2108 71.9593C68.2826 72.1504 68.2826 72.3598 68.2108 72.5508C68.1844 72.6033 68.1456 72.649 68.0975 72.6842C68.0494 72.7193 67.9933 72.7429 67.9339 72.7531C67.8508 72.7652 67.7663 72.7652 67.6832 72.7531C67.3814 72.768 67.0792 72.732 66.79 72.6469Z" fill="#424242"/>
<path d="M66.4766 79.3003C64.6032 79.1651 62.8139 78.4928 61.3369 77.369C61.3369 77.369 62.3137 80.3014 66.3878 80.3165L66.4766 79.3003Z" fill="#EB996E"/>
<path d="M56.7091 67.1664C56.6256 67.131 53.9356 66.7063 54.0975 69.8055C54.2594 72.9048 57.4299 71.7318 57.4352 71.6408C57.4404 71.5498 56.7091 67.1664 56.7091 67.1664Z" fill="#FFBE9D"/>
<path d="M56.4113 70.5993C56.4113 70.5993 56.3539 70.6398 56.2651 70.6853C56.1347 70.7459 55.9855 70.7568 55.8472 70.7156C55.6349 70.5975 55.4584 70.4275 55.3356 70.2224C55.2127 70.0174 55.1478 69.7847 55.1473 69.5477C55.1264 69.2811 55.1674 69.0133 55.2674 68.7641C55.2933 68.6669 55.3428 68.5772 55.4119 68.5024C55.4809 68.4276 55.5675 68.37 55.6644 68.3343C55.728 68.3156 55.7963 68.3185 55.858 68.3424C55.9197 68.3663 55.9712 68.4098 56.0039 68.4658C56.0509 68.5517 56.0039 68.6124 56.0509 68.6175C56.0979 68.6225 56.1136 68.5618 56.0823 68.4354C56.0608 68.3597 56.0128 68.2936 55.9465 68.2484C55.9028 68.2171 55.8527 68.195 55.7996 68.1837C55.7465 68.1724 55.6915 68.172 55.6383 68.1827C55.5076 68.2123 55.3872 68.2746 55.2892 68.3633C55.1911 68.452 55.1188 68.564 55.0794 68.6882C54.9554 68.9633 54.9034 69.2637 54.9279 69.5629C54.9241 69.8394 55.0056 70.1107 55.1619 70.3421C55.3182 70.5736 55.5423 70.7547 55.8054 70.8622C55.895 70.8855 55.989 70.888 56.0797 70.8695C56.1704 70.8511 56.2554 70.8122 56.3277 70.756C56.4113 70.6752 56.4113 70.6044 56.4113 70.5993Z" fill="#EB996E"/>
<path d="M63.1547 67.0906C63.1077 67.0349 63.186 66.8883 63.3949 66.7316C63.6729 66.5408 64.0003 66.4288 64.3403 66.408C64.6804 66.3822 65.021 66.4506 65.3223 66.6052C65.5521 66.7316 65.6462 66.8681 65.6096 66.9237C65.5313 67.0552 65.0142 66.8833 64.3769 66.9237C63.7397 66.9642 63.2487 67.2068 63.1547 67.0906Z" fill="#424242"/>
<path d="M68.8323 67.1209C68.8009 66.9844 69.2397 66.7822 69.8142 66.7872C70.3888 66.7923 70.8276 66.9895 70.8015 67.131C70.7753 67.2726 70.3366 67.313 69.8142 67.313C69.2919 67.313 68.8584 67.2675 68.8323 67.1209Z" fill="#424242"/>
<path d="M55.6906 63.9964C55.8472 64.9469 56.0005 65.8991 56.1502 66.853C56.1763 67.3072 56.3378 67.7445 56.6151 68.1118C57.1374 68.673 58.088 68.6174 58.7566 68.2484C59.7334 67.6973 60.2714 66.6406 60.684 65.6193C61.0966 64.5981 61.4623 63.5212 62.251 62.7426C62.818 63.3174 63.5582 63.7041 64.3658 63.8476C65.1735 63.9911 66.0073 63.8839 66.7482 63.5414C67.4011 63.2279 67.9443 62.7325 68.5711 62.3685C68.8706 62.1634 69.2147 62.0276 69.5769 61.9715C69.9391 61.9154 70.3098 61.9405 70.6604 62.0449C71.0313 62.1966 71.3656 62.4898 71.7626 62.4696C71.9148 62.4571 72.0611 62.4068 72.1874 62.3235C72.3137 62.2403 72.4156 62.1269 72.4834 61.9943C72.6136 61.7248 72.659 61.4241 72.614 61.1298C72.4834 60.0377 71.5693 59.1681 70.5246 58.6828C69.0674 57.9901 67.3907 57.8941 65.761 57.889C64.2157 57.8448 62.671 57.9926 61.1645 58.3289C59.6518 58.6735 58.2759 59.4378 57.2053 60.5281C56.6779 61.0778 56.2855 61.7357 56.0576 62.4527C55.8297 63.1697 55.7721 63.9273 55.889 64.6689" fill="#424242"/>
<path d="M68.4616 60.8618C68.6753 61.8681 69.2261 62.778 70.0285 63.4504C70.3903 63.7993 70.8715 64.008 71.3814 64.0368C71.7908 63.9896 72.1679 63.798 72.4406 63.4986C72.7133 63.1992 72.8625 62.813 72.8596 62.4139C72.823 61.6094 72.4653 60.85 71.8619 60.2956C71.3466 59.705 70.6142 59.3315 69.8196 59.2541C69.4256 59.2358 69.0389 59.362 68.7368 59.6075C68.4348 59.8531 68.2395 60.1999 68.1899 60.5787" fill="#424242"/>
<path d="M63.724 68.5568C63.724 68.6909 63.779 68.8195 63.877 68.9143C63.9749 69.0091 64.1078 69.0624 64.2463 69.0624C64.3121 69.0665 64.378 69.0577 64.4402 69.0366C64.5024 69.0155 64.5596 68.9825 64.6083 68.9396C64.6571 68.8967 64.6964 68.8447 64.7239 68.7867C64.7515 68.7288 64.7667 68.666 64.7686 68.6023C64.7686 68.4682 64.7136 68.3396 64.6157 68.2448C64.5177 68.15 64.3849 68.0967 64.2463 68.0967C64.1804 68.0919 64.1141 68.1001 64.0516 68.121C63.9891 68.1418 63.9316 68.1747 63.8827 68.2178C63.8338 68.2609 63.7945 68.3132 63.7672 68.3714C63.7399 68.4297 63.7252 68.4928 63.724 68.5568Z" fill="#424242"/>
<path d="M62.8987 68.0107C62.9666 68.0765 63.3479 67.7883 63.9015 67.7782C64.4552 67.7681 64.8626 68.031 64.9201 67.9602C64.9775 67.8894 64.8835 67.8186 64.7007 67.6973C64.4611 67.543 64.1783 67.4637 63.8906 67.47C63.6028 67.4763 63.3241 67.568 63.0919 67.7327C62.9248 67.8692 62.8673 68.0107 62.8987 68.0107Z" fill="#424242"/>
<path d="M69.3965 68.5416C69.3965 68.6757 69.4515 68.8043 69.5495 68.8991C69.6474 68.9939 69.7803 69.0472 69.9188 69.0472C69.9847 69.052 70.051 69.0438 70.1135 69.0229C70.176 69.0021 70.2335 68.9692 70.2824 68.9261C70.3313 68.883 70.3706 68.8307 70.3979 68.7724C70.4252 68.7141 70.4399 68.6511 70.4411 68.5871C70.4411 68.453 70.3861 68.3244 70.2882 68.2296C70.1902 68.1348 70.0573 68.0815 69.9188 68.0815C69.7881 68.081 69.6619 68.128 69.5651 68.2132C69.4684 68.2983 69.4083 68.4155 69.3965 68.5416Z" fill="#424242"/>
<path d="M68.6652 68.0967C68.7279 68.1624 69.1144 67.8743 69.668 67.8642C70.2217 67.854 70.6291 68.1169 70.7127 68.0512C70.7963 67.9855 70.6761 67.9046 70.4933 67.7833C70.2529 67.6279 69.9687 67.5483 69.6797 67.5556C69.3907 67.5628 69.1111 67.6565 68.8793 67.8237C68.6913 67.9501 68.6338 68.0714 68.6652 68.0967Z" fill="#424242"/>
<path d="M66.6594 74.2344C66.6594 74.2698 66.5236 74.3305 66.2729 74.3153C65.9465 74.292 65.6409 74.1513 65.4163 73.921C65.1891 73.6915 65.0571 73.3892 65.0454 73.0716C65.0454 72.834 65.1133 72.6975 65.1447 72.7025C65.176 72.7076 65.1447 73.2839 65.6095 73.739C66.0744 74.194 66.6646 74.1637 66.6594 74.2344Z" fill="#424242"/>
<path d="M68.5084 94.488L76.6619 91.8488C76.6619 91.8488 82.3344 104.847 83.7969 104.994C91.8878 105.707 100.548 103.113 103.583 102.087C103.891 101.748 104.246 101.349 104.627 100.853C104.962 100.43 105.219 99.9544 105.39 99.4477C105.623 98.824 105.769 98.1727 105.823 97.5113C105.806 97.3826 105.832 97.252 105.896 97.1381C105.96 97.0241 106.06 96.9326 106.181 96.8766C106.301 96.8206 106.438 96.803 106.569 96.8261C106.701 96.8493 106.822 96.9122 106.915 97.0058C107.265 97.4456 107.354 99.1241 106.555 100.929C105.756 102.734 108.581 101.298 109.621 100.793C110.66 100.287 113.956 98.8713 114.369 99.0584C114.975 99.3314 114.787 100.009 113.737 100.489C112.687 100.969 109.636 102.633 109.939 103.149C110.242 103.664 115.497 101.02 115.497 101.02C115.497 101.02 116.542 100.277 116.897 100.863C117.565 101.925 111.757 104.337 111.203 104.554C110.812 104.706 111.12 105.282 111.527 105.095C111.935 104.908 116.709 102.34 117.398 103.417C117.921 104.241 112.645 105.439 111.966 106.506C111.287 107.572 115.873 105.201 116.348 106C116.521 106.303 116.61 106.551 113.768 107.517C111.688 108.149 109.575 108.672 107.437 109.084C107.437 109.084 78.1871 121.754 72.9639 109.529C67.5996 97.1321 68.5084 94.488 68.5084 94.488Z" fill="#EB996E"/>
<path d="M79.3939 96.1311C76.1293 88.7345 71.8567 85.8375 69.6002 84.7657C68.8097 84.3943 67.9498 84.1811 67.0722 84.1388L66.8006 82.8647L55.9884 81.9243L55.722 83.5422L54.155 83.4562C54.155 83.4562 44.8367 84.3612 44.8158 94.8116C44.8158 99.7005 47.5371 104.458 48.4982 106.789C49.0989 111.663 46.9312 120.505 46.9991 122.659L73.4968 124.479L74.5832 108.457L74.3377 106.94L83.0606 104.352L79.3939 96.1311Z" fill="#EEEEEE"/>
<path d="M138.062 60.7607C134.237 56.1756 129.094 52.7909 123.282 51.0345C117.471 49.278 111.252 49.2286 105.411 50.8924C99.5705 52.5563 94.3706 55.8587 90.4686 60.3823C86.5666 64.906 84.1377 70.4478 83.4888 76.3073C82.9652 81.0709 83.6367 85.8866 85.4462 90.3455C87.2557 94.8043 90.1499 98.7748 93.8831 101.92L66.9363 132.533L70.8015 135.723L97.9625 104.852C101.863 107.183 106.254 108.636 110.812 109.104C111.919 109.219 113.031 109.277 114.144 109.276C119.949 109.257 125.629 107.652 130.533 104.646C135.436 101.639 139.363 97.3537 141.86 92.2821C144.358 87.2105 145.325 81.5593 144.65 75.9791C143.975 70.3989 141.686 65.1166 138.046 60.7405L138.062 60.7607ZM139.66 82.1164C139.027 87.8384 136.364 93.1712 132.125 97.2059C127.886 101.241 122.332 103.728 116.411 104.244C110.49 104.76 104.567 103.272 99.6511 100.035C94.7356 96.7978 91.1318 92.011 89.4537 86.4903C87.7756 80.9696 88.1271 75.0564 90.4481 69.7583C92.7692 64.4603 96.9163 60.1051 102.183 57.4348C107.449 54.7645 113.51 53.9444 119.331 55.1141C125.152 56.2838 130.374 59.3711 134.108 63.8498C136.235 66.388 137.821 69.3094 138.774 72.4448C139.727 75.5803 140.028 78.8675 139.66 82.1164Z" fill="#424242"/>
<path d="M135.894 58.6626C132.07 54.0752 126.927 50.6883 121.115 48.9303C115.303 47.1724 109.083 47.1223 103.241 48.7865C97.3994 50.4506 92.1988 53.7543 88.2971 58.2795C84.3954 62.8048 81.9677 68.3483 81.3212 74.2092C80.7967 78.9729 81.4677 83.7888 83.2773 88.2478C85.0869 92.7069 87.9816 96.6773 91.7155 99.8219L64.4396 130.662L68.5712 133.863L95.8105 102.734C99.7115 105.063 104.102 106.516 108.66 106.986C109.767 107.099 110.879 107.156 111.992 107.158C117.797 107.139 123.478 105.534 128.381 102.528C133.284 99.5212 137.211 95.2354 139.708 90.1638C142.206 85.0922 143.173 79.441 142.498 73.8608C141.823 68.2806 139.534 62.9983 135.894 58.6221V58.6626ZM137.492 80.0183C136.86 85.7431 134.197 91.0788 129.956 95.1159C125.716 99.1531 120.16 101.642 114.236 102.159C108.311 102.675 102.386 101.188 97.4676 97.949C92.5497 94.7104 88.9441 89.9215 87.2652 84.3981C85.5863 78.8748 85.9381 72.9589 88.2604 67.6584C90.5828 62.358 94.7322 58.001 100.001 55.3299C105.271 52.6588 111.334 51.8389 117.158 53.0099C122.981 54.1808 128.206 57.2703 131.94 61.7517C134.066 64.2903 135.652 67.2118 136.605 70.3471C137.558 73.4824 137.86 76.7695 137.492 80.0183Z" fill="#616161"/>
<path d="M97.9626 93.5172C97.8853 93.4536 97.8168 93.3805 97.7589 93.2998C97.6335 93.1482 97.4402 92.9308 97.2365 92.6325C96.6014 91.7993 96.0272 90.9242 95.5181 90.0136C93.8162 87.0047 92.7824 83.6849 92.4829 80.2668C92.1834 76.8488 92.6247 73.4079 93.7787 70.1645C94.12 69.1856 94.5319 68.231 95.0114 67.308C95.1733 66.9743 95.3248 66.7316 95.4241 66.5648C95.4643 66.4745 95.5189 66.3909 95.586 66.317C95.5559 66.4111 95.5175 66.5024 95.4711 66.59C95.3927 66.767 95.2569 67.0147 95.1054 67.3484C94.6669 68.2857 94.2833 69.2461 93.9563 70.2252C92.8635 73.4562 92.4538 76.8671 92.7517 80.2547C93.0496 83.6422 94.0491 86.937 95.6904 89.9428C96.1801 90.8541 96.7243 91.737 97.3201 92.587C97.5238 92.8954 97.7014 93.0926 97.8111 93.2796C97.8697 93.3537 97.9205 93.4333 97.9626 93.5172Z" fill="#424242"/>
<path d="M99.2422 62.9196C99.2892 62.9802 98.9758 63.2633 98.6624 63.6628C98.349 64.0622 98.1401 64.4211 98.067 64.3959C97.9939 64.3706 98.0983 63.9307 98.4431 63.501C98.7878 63.0712 99.2057 62.8589 99.2422 62.9196Z" fill="#424242"/>
<path d="M72.1648 90.5445C72.2488 90.7712 72.3117 91.0047 72.3528 91.2422C72.4573 91.6921 72.5931 92.3494 72.755 93.1684C73.0684 94.7964 73.4497 97.0614 73.7997 99.5741C74.1496 102.087 74.322 104.372 74.4213 106.025C74.4735 106.854 74.5048 107.542 74.5153 107.987C74.54 108.227 74.54 108.47 74.5153 108.71C74.4619 108.476 74.4305 108.237 74.4213 107.997C74.3742 107.491 74.3116 106.829 74.2384 106.04C74.087 104.392 73.8571 102.112 73.5385 99.6045C73.2199 97.0968 72.8647 94.8368 72.5983 93.1988C72.473 92.4202 72.3685 91.768 72.2849 91.2573C72.2186 91.0246 72.1784 90.7856 72.1648 90.5445Z" fill="#424242"/>
<path d="M86.5758 115.379C86.5758 115.379 57.3254 128.074 52.1022 115.849C46.7431 103.396 47.6519 100.752 47.6519 100.752L55.8055 98.113C55.8055 98.113 61.4832 111.111 62.9404 111.258C71.0365 111.976 79.6967 109.377 82.7314 108.351C83.0396 108.017 83.3896 107.613 83.7761 107.122C84.1626 106.632 84.4656 106.111 84.8207 105.671C85.5938 104.736 86.2049 104.579 86.5444 104.21C87.3488 103.326 88.1114 103.973 87.7353 104.448C87.3592 104.923 86.5183 105.409 85.7191 107.218C84.92 109.028 87.7667 108.134 88.8949 107.85C90.138 107.532 92.4728 106.652 92.4728 106.652C92.5303 107.183 91.9087 108.25 90.8588 108.73C90.29 108.998 89.7058 109.235 89.109 109.438C89.109 109.438 91.2663 109.18 91.3237 109.66C91.3812 110.141 90.6865 113.66 88.3882 114.716L86.5758 115.379Z" fill="#FFBE9D"/>
<path d="M53.8885 86.788L59.1431 102.142L47.6519 106.541C47.6519 106.541 41.6556 91.4595 49.2502 87.7688L53.8885 86.788Z" fill="#EEEEEE"/>
<path d="M59.9057 101.546C59.9057 101.546 59.843 101.505 59.749 101.404C59.6188 101.246 59.5034 101.077 59.4043 100.899C59.0845 100.242 58.8071 99.5665 58.5738 98.8764C57.9313 97.1575 57.059 94.7711 56.1136 92.137L54.7921 88.416C54.3847 87.2734 54.0661 86.2116 53.4654 85.5291C53.2416 85.2519 52.9566 85.0268 52.6312 84.8702C52.3058 84.7136 51.9484 84.6295 51.585 84.6241C51.3167 84.641 51.0535 84.7026 50.8068 84.8061C50.8068 84.8061 50.859 84.7505 50.9844 84.6848C51.1689 84.591 51.3718 84.5358 51.5798 84.523C51.9664 84.5061 52.3517 84.5774 52.7046 84.7311C53.0575 84.8848 53.3682 85.1166 53.6117 85.4078C54.2698 86.1206 54.6093 87.2076 55.0272 88.3351C55.445 89.4625 55.8942 90.7315 56.3695 92.0511C57.3202 94.6852 58.1611 97.1069 58.7566 98.8158C59.0595 99.6854 59.2789 100.398 59.4983 100.838C59.7177 101.278 59.9266 101.531 59.9057 101.546Z" fill="#424242"/>
<path d="M59.6602 101.834C59.5281 101.94 59.3824 102.028 59.2267 102.097C58.9394 102.254 58.5163 102.466 57.9888 102.719C56.9441 103.224 55.4555 103.882 53.8102 104.534C52.1648 105.186 50.6031 105.707 49.4801 106.051C48.9212 106.222 48.4354 106.354 48.1429 106.435C47.9747 106.493 47.7989 106.529 47.6206 106.541C48.1963 106.281 48.7896 106.06 49.3965 105.879C50.5039 105.489 52.0081 104.943 53.6848 104.296C55.3615 103.649 56.8188 103.017 57.9052 102.552C58.4743 102.278 59.0605 102.038 59.6602 101.834Z" fill="#424242"/>
<path d="M49.5324 105.975C49.0576 105.286 48.7406 104.507 48.6027 103.69C48.8772 104.011 49.0784 104.385 49.1929 104.787C49.3947 105.154 49.5106 105.559 49.5324 105.975Z" fill="#424242"/>
<path d="M51.9612 105.07C51.8933 105.105 51.5799 104.66 51.3501 104.059C51.1685 103.694 51.0962 103.288 51.1412 102.886C51.3547 103.222 51.5116 103.589 51.606 103.973C51.78 104.319 51.8997 104.689 51.9612 105.07Z" fill="#424242"/>
<path d="M54.505 104.003C54.1879 103.718 53.9613 103.352 53.8521 102.946C53.6614 102.568 53.5854 102.146 53.6327 101.728C53.8441 102.079 54.0041 102.457 54.108 102.85C54.2938 103.215 54.4274 103.603 54.505 104.003Z" fill="#424242"/>
<path d="M57.2262 102.941C56.9744 102.587 56.7969 102.189 56.7039 101.768C56.5304 101.373 56.4398 100.949 56.4375 100.52C56.695 100.869 56.873 101.267 56.9598 101.687C57.1382 102.083 57.229 102.51 57.2262 102.941Z" fill="#424242"/>
<path d="M83.2694 104.19C81.8271 104.78 80.3498 105.287 78.8453 105.707C77.3687 106.208 75.8637 106.626 74.3376 106.961C75.7809 106.373 77.258 105.866 78.7618 105.444C80.2379 104.942 81.743 104.523 83.2694 104.19Z" fill="#424242"/>
<path d="M76.2599 105.975C76.1868 106.005 75.9569 105.631 75.7376 105.146C75.5182 104.66 75.4085 104.241 75.4764 104.21C75.5443 104.18 75.7741 104.554 75.9987 105.045C76.2233 105.535 76.3383 105.929 76.2599 105.975Z" fill="#424242"/>
<path d="M78.5162 105.484C78.4483 105.484 78.2028 105.07 78.0357 104.473C77.8921 104.123 77.8523 103.742 77.9208 103.371C77.9991 103.371 78.1349 103.831 78.2968 104.382C78.4431 104.732 78.5176 105.107 78.5162 105.484Z" fill="#424242"/>
<path d="M80.9608 104.736C80.6342 104.06 80.4784 103.318 80.5064 102.572C80.7077 102.893 80.831 103.255 80.8668 103.629C80.9858 103.986 81.0179 104.365 80.9608 104.736Z" fill="#424242"/>
<path d="M57.0487 83.4006C56.9703 83.4006 56.9338 83.1175 56.9546 82.7737C56.9755 82.4299 57.0643 82.1619 57.1375 82.167C57.2106 82.172 57.2524 82.4552 57.2263 82.7939C57.2001 83.1326 57.1218 83.4056 57.0487 83.4006Z" fill="#424242"/>
<path d="M59.4305 83.5371C59.3521 83.5371 59.2842 83.2641 59.2685 82.9253C59.2529 82.5866 59.3051 82.3035 59.3782 82.3035C59.4513 82.3035 59.5245 82.5714 59.5401 82.9152C59.5558 83.259 59.5036 83.532 59.4305 83.5371Z" fill="#424242"/>
<path d="M61.269 83.8456C61.1959 83.8456 61.1384 83.5574 61.1384 83.2035C61.1384 82.8496 61.2063 82.5664 61.2795 82.5664C61.3526 82.5664 61.4153 82.8546 61.41 83.2035C61.4048 83.5523 61.3474 83.8456 61.269 83.8456Z" fill="#424242"/>
<path d="M63.7552 84.1084C63.6873 84.1084 63.5358 83.8 63.5254 83.3652C63.5149 82.9304 63.6403 82.5967 63.7082 82.6119C63.7761 82.6271 63.7813 82.9557 63.797 83.3551C63.8127 83.7545 63.8336 84.0882 63.7552 84.1084Z" fill="#424242"/>
<path d="M65.8133 84.1084C65.7349 84.1084 65.6357 83.7899 65.5835 83.3753C65.5312 82.9608 65.5521 82.617 65.6252 82.6119C65.6984 82.6068 65.8028 82.9304 65.8551 83.345C65.9073 83.7596 65.8812 84.0983 65.8133 84.1084Z" fill="#424242"/>
</svg>
