<svg width="250" height="240" viewBox="0 0 250 240" fill="none" xmlns="http://www.w3.org/2000/svg">
<path d="M215.642 53.6241L214.399 51.6027C204.363 35.2402 186.418 25.1562 167.259 25.8049C164.209 25.9072 161.174 26.2754 158.188 26.9054C140.295 30.6934 124.726 44.0788 118.297 61.2291C114.505 71.313 113.447 82.9203 106.243 90.9249C96.8658 101.351 80.95 101.669 66.9593 101.235C52.9686 100.8 37.0412 101.171 27.7102 111.66C21.8711 118.211 20.0096 127.525 20.4836 136.294C21.7497 159.474 38.076 180.25 58.8771 190.571C79.6781 200.893 104.168 201.814 126.934 197.279C158.824 190.907 189.152 173.45 207.386 146.471C225.621 119.491 230.228 82.7408 215.642 53.6241Z" fill="#EBEBEB"/>
<path d="M250 239.404C250 239.485 194.158 239.555 125.292 239.555C56.4252 239.555 0.572266 239.497 0.572266 239.404C0.572266 239.311 56.4021 239.253 125.292 239.253C194.181 239.253 250 239.335 250 239.404Z" fill="#263238"/>
<path d="M68.1039 40.2967C58.8249 54.9158 59.4319 75.188 69.5723 89.2221C76.3306 98.5821 86.4652 104.861 94.5127 113.12C102.56 121.38 108.677 133.572 104.428 144.31C100.103 155.24 87.4364 159.682 77.9552 166.61C67.4942 174.243 60.3925 185.64 58.1416 198.408C55.8908 211.176 58.6657 224.322 65.8838 235.083H164.408C164.408 235.083 181.717 202.04 159.465 176.85C137.213 151.66 125.263 151.255 126.084 134.736C126.905 118.217 138.445 112.859 145.041 106.662C151.638 100.464 183.776 86.0249 164.819 40.2909L68.1039 40.2967Z" fill="#FAFAFA"/>
<path d="M68.1036 40.2966H69.7976H74.7926H94.0211L164.819 40.2445H164.894V40.314C166.345 43.7769 167.581 47.3265 168.594 50.9424C169.658 54.7283 170.358 58.6072 170.687 62.5265C171.028 66.6233 170.818 70.7475 170.062 74.7883C169.233 78.9769 167.729 83.0027 165.611 86.7083C164.513 88.5983 163.272 90.401 161.899 92.1007C160.498 93.8231 158.981 95.4486 157.361 96.966C155.72 98.5111 154 99.9707 152.21 101.339C150.417 102.729 148.544 104.038 146.717 105.428C145.804 106.117 144.983 106.894 144.093 107.67C143.202 108.446 142.318 109.17 141.404 109.9C139.583 111.359 137.745 112.796 136.011 114.412C132.391 117.555 129.609 121.552 127.917 126.042C127.104 128.345 126.591 130.743 126.39 133.178C126.338 133.757 126.258 134.394 126.234 135.008C126.211 135.622 126.188 136.236 126.234 136.85C126.248 138.083 126.371 139.312 126.604 140.522C127.063 142.975 128.062 145.294 129.53 147.31C131.04 149.326 132.75 151.184 134.635 152.853C138.375 156.277 142.347 159.549 146.145 163.082C149.943 166.615 153.661 170.299 157.245 174.197C159.074 176.127 160.785 178.165 162.367 180.302C163.96 182.465 165.344 184.775 166.501 187.2C168.841 192.116 170.278 197.413 170.744 202.839C171.216 208.34 170.893 213.88 169.785 219.288C169.246 222.021 168.539 224.717 167.669 227.362C166.813 230.03 165.77 232.633 164.547 235.153L164.506 235.234H65.8027L65.7622 235.17C61.142 228.201 58.3084 220.197 57.5124 211.869C56.7115 203.869 57.8828 195.794 60.9233 188.353C63.8131 181.24 68.2627 174.87 73.9427 169.714C76.6991 167.276 79.6758 165.101 82.8343 163.215C85.91 161.304 89.0145 159.532 91.9456 157.597C94.8795 155.76 97.5749 153.565 99.97 151.064C102.257 148.607 103.954 145.659 104.93 142.445C105.786 139.309 105.921 136.02 105.324 132.825C104.753 129.741 103.726 126.76 102.277 123.98C100.89 121.304 99.2279 118.78 97.3164 116.45C95.4714 114.216 93.4658 112.119 91.3155 110.178C87.1472 106.332 82.8748 102.967 79.036 99.5087C77.1109 97.7711 75.2898 96.0335 73.6074 94.2553C71.9768 92.5145 70.4737 90.6582 69.1096 88.7008C66.6436 85.111 64.7425 81.1631 63.4728 76.995C62.3607 73.3956 61.7156 69.6677 61.5535 65.9033C61.4725 65.046 61.5072 64.2004 61.5072 63.3722C61.5072 62.5439 61.5072 61.7388 61.5824 60.9569C61.6575 60.1749 61.698 59.4104 61.7558 58.64C61.8136 57.8697 61.9697 57.1804 62.068 56.4796C62.7067 52.2132 64.0099 48.0736 65.9299 44.2121C66.1899 43.6147 66.4873 43.0343 66.8202 42.4744L67.5313 41.2639C67.9071 40.621 68.1094 40.2966 68.1094 40.2966L67.5313 41.2813L66.8433 42.4744C66.5184 43.0368 66.225 43.6169 65.9646 44.2121C64.0619 48.083 62.7745 52.2279 62.1489 56.497C62.0507 57.192 61.935 57.9102 61.8483 58.6458C61.7616 59.3814 61.7327 60.1518 61.6749 60.9337C61.6171 61.7156 61.6171 62.5207 61.6113 63.3432C61.6055 64.1657 61.5824 65.0113 61.6633 65.8685C61.8305 69.6205 62.4815 73.3351 63.6 76.9197C64.8682 81.0729 66.7675 85.0055 69.231 88.5791C70.5917 90.5284 72.093 92.3752 73.723 94.1047C75.3996 95.8887 77.2207 97.6263 79.1459 99.3176C82.9847 102.793 87.2397 106.123 91.4369 109.975C93.6038 111.931 95.625 114.043 97.4841 116.294C99.4061 118.64 101.078 121.181 102.473 123.876C103.937 126.673 104.973 129.674 105.549 132.778C106.154 136.008 106.02 139.333 105.156 142.503C104.175 145.754 102.462 148.737 100.149 151.22C97.7423 153.736 95.0356 155.946 92.0902 157.8C89.1475 159.74 86.0429 161.513 82.9731 163.424C79.8279 165.304 76.863 167.472 74.1162 169.899C68.4711 175.029 64.0475 181.363 61.1719 188.434C58.1497 195.837 56.9884 203.87 57.7899 211.828C58.5859 220.109 61.4054 228.066 65.9993 234.996L65.8836 234.933H164.408L164.275 235.014C165.496 232.5 166.535 229.903 167.386 227.241C168.252 224.607 168.954 221.922 169.49 219.201C170.593 213.82 170.914 208.307 170.444 202.833C169.987 197.437 168.559 192.168 166.229 187.281C165.08 184.874 163.708 182.58 162.13 180.429C160.551 178.304 158.849 176.273 157.031 174.348C153.466 170.459 149.772 166.76 145.949 163.25C142.156 159.723 138.196 156.456 134.444 153.016C132.545 151.332 130.819 149.461 129.293 147.432C127.797 145.391 126.772 143.043 126.292 140.557C126.061 139.329 125.935 138.083 125.916 136.833C125.887 136.213 125.916 135.593 125.916 134.973C125.916 134.354 126.02 133.74 126.067 133.126C126.279 130.677 126.804 128.265 127.628 125.949C129.335 121.42 132.142 117.389 135.797 114.221C137.531 112.61 139.387 111.151 141.208 109.697C142.121 108.967 143.017 108.232 143.89 107.479C144.763 106.726 145.625 105.915 146.527 105.22C148.365 103.83 150.232 102.521 152.019 101.136C153.804 99.774 155.52 98.3223 157.158 96.7865C158.768 95.2759 160.277 93.6602 161.674 91.9501C163.036 90.2563 164.271 88.4636 165.368 86.5867C167.474 82.9067 168.97 78.9083 169.796 74.7477C170.548 70.7398 170.76 66.6489 170.426 62.5844C170.103 58.6658 169.408 54.7869 168.351 51.0003C167.352 47.3744 166.132 43.8133 164.697 40.3372L164.795 40.4009L94.0385 40.3488H74.7984H69.7918L68.1036 40.2966Z" fill="#263238"/>
<path d="M160.887 67.1081C175.398 69.5002 152.522 95.2517 139.566 105.411C132.05 111.29 124.014 117.673 120.453 126.523C116.406 136.566 119.407 147.849 117.452 157.951C117.39 158.299 117.197 158.61 116.915 158.823C116.632 159.035 116.279 159.132 115.928 159.095C115.577 159.057 115.252 158.888 115.02 158.621C114.788 158.354 114.666 158.009 114.677 157.655C114.77 151.023 114.597 144.397 113.521 137.87C111.966 128.602 108.416 119.457 101.959 112.674C96.6688 107.131 89.737 103.453 84.1003 98.2751C75.8677 90.7165 67.4097 80.9685 66.583 69.813C66.583 69.813 82.389 57.0705 91.165 58.6633C101.421 60.5457 111.515 76.3986 127.402 74.5856C138.456 73.3172 144.058 64.3395 160.887 67.1081Z" fill="#B75400"/>
<path d="M162.176 204.93C161.812 201.292 160.841 197.18 157.621 195.466C155.672 194.423 153.296 194.539 151.157 195.101C149.018 195.662 147.012 196.641 144.896 197.273C140.69 198.512 136.198 198.368 132.079 196.861C128.142 195.413 124.766 192.807 121.095 190.733C117.424 188.66 113.163 187.142 109.093 188.156C102.074 189.894 98.4205 198.373 91.4829 200.418C88.3957 201.321 85.0831 200.812 81.9496 200.105C78.8161 199.398 75.6654 198.477 72.4567 198.599C69.9361 198.692 67.3172 199.566 65.5539 201.292L65.5076 201.344C65.2141 201.633 64.9471 201.947 64.7098 202.283C62.5592 205.179 62.2123 209.019 62.8772 212.529C63.6172 216.462 65.4498 220.093 67.4155 223.574C69.728 227.675 72.3642 231.753 76.1914 234.487C80.9205 237.863 86.8579 235.535 92.645 235.992C106.133 237.058 120.644 237.782 134.137 236.74C141.265 236.16 147.943 236.96 153.597 232.575C157.574 229.494 160.164 224.849 161.413 219.972C162.662 215.095 162.679 209.94 162.176 204.93Z" fill="#B75400"/>
<g opacity="0.24">
<path opacity="0.24" d="M136.716 197.968C135.959 199.126 135.629 200.702 136.363 201.883C137.098 203.065 138.098 204.148 138.41 205.509C138.913 207.641 137.629 209.726 136.676 211.701C134.91 215.232 134.243 219.213 134.762 223.128C135.309 227.057 137.334 230.627 140.422 233.108C141.792 234.168 143.573 234.991 145.226 234.469C146.781 233.983 147.781 232.402 148.117 230.797C148.452 229.193 148.169 227.542 147.966 225.926C147.025 218.395 147.22 210.764 148.545 203.291C148.764 202.045 148.972 200.621 148.186 199.63C147.619 199.053 146.899 198.651 146.111 198.472C143.104 197.47 139.861 198.582 136.745 197.991" fill="black"/>
</g>
<path d="M58.6513 239.566C58.6513 239.566 58.3796 235.037 64.2765 232.512H167.906C167.906 232.512 173.311 235.257 173.976 239.462L58.6513 239.566Z" fill="#263238"/>
<path d="M165.703 40.8469L165.535 40.9222L68.0919 40.2967C68.0919 40.2967 67.745 40.0766 67.2305 39.6653C66.6231 39.1886 66.1799 38.5332 65.9631 37.7912C65.7464 37.0493 65.7671 36.2579 66.0221 35.5283C66.2772 34.7987 66.754 34.1674 67.3854 33.723C68.0169 33.2787 68.7714 33.0436 69.543 33.0508L164.125 33.8154C168.015 33.8501 169.241 39.1788 165.703 40.8469Z" fill="#263238"/>
<g opacity="0.24">
<path opacity="0.24" d="M150.093 78.0898C150.29 78.4663 149.556 79.2482 148.162 80.5224C146.769 81.7967 144.694 83.4706 142.115 85.5731C139.019 88.1356 135.734 90.4591 132.287 92.5235C130.146 93.7657 127.893 94.8032 125.558 95.6223C124.292 96.0605 123 96.4184 121.69 96.6938C120.313 96.9867 118.916 97.1687 117.51 97.2383C114.662 97.3935 111.81 97.0003 109.11 96.0799C106.722 95.2099 104.454 94.0423 102.357 92.6046C100.415 91.3188 98.7441 90.0445 97.1542 88.8224C95.5644 87.6003 94.148 86.4245 92.8645 85.3124C87.7481 80.8699 85.054 77.6032 85.5743 76.9719C86.0947 76.3406 89.7369 78.3967 95.4025 81.872L100.028 84.7101C101.687 85.7179 103.462 86.8357 105.277 87.8667C107.078 88.9262 108.987 89.7902 110.971 90.4442C113.002 91.0533 115.122 91.3042 117.238 91.1856C121.678 90.9539 125.985 89.39 129.714 87.5829C133.443 85.7758 136.82 83.6675 139.745 82.0226C142.06 80.6538 144.48 79.4724 146.983 78.4894C148.816 77.8465 149.926 77.7249 150.093 78.0898Z" fill="black"/>
</g>
<path d="M114.747 170.05C115.157 169.887 115.614 169.892 116.02 170.064C116.426 170.236 116.748 170.561 116.917 170.97C117.085 171.378 117.086 171.836 116.92 172.245C116.753 172.654 116.433 172.981 116.027 173.155C115.622 173.329 115.165 173.336 114.755 173.174C114.344 173.013 114.014 172.696 113.835 172.293C113.656 171.889 113.643 171.431 113.798 171.018C113.954 170.605 114.266 170.269 114.666 170.085" fill="#B75400"/>
<path d="M79.8978 94.2439C79.7711 94.1397 79.6549 94.0233 79.5509 93.8964L78.6085 92.8654C78.2096 92.4078 77.6835 91.8749 77.1459 91.1973L75.3074 88.8804C74.6773 87.9885 73.9662 87.027 73.2493 85.9844L72.1913 84.2989C72.0121 84.0093 71.8213 83.7197 71.6479 83.4127L71.1391 82.4744C69.6005 79.7426 68.3951 76.8354 67.549 73.8153C66.6986 70.7978 66.2401 67.683 66.1846 64.548C66.1846 63.824 66.225 63.1232 66.2366 62.434C66.2366 62.0922 66.2366 61.7563 66.2829 61.4261C66.3291 61.096 66.3522 60.7716 66.3869 60.4531C66.4621 59.8159 66.5083 59.1962 66.595 58.6054C66.6818 58.0146 66.8032 57.447 66.9015 56.9199C67.0633 55.8368 67.3524 54.8927 67.5547 54.0239C67.6646 53.6069 67.7513 53.213 67.8611 52.8655L68.1791 51.8982L68.6243 50.5718C68.6668 50.4139 68.7249 50.2606 68.7977 50.1143C68.7739 50.2758 68.7352 50.4348 68.6821 50.5892C68.5838 50.9251 68.4566 51.3711 68.289 51.933L67.9999 52.9002C67.9016 53.2535 67.8207 53.6474 67.7166 54.0586C67.5316 54.8985 67.2599 55.8484 67.1385 56.9547C67.046 57.4875 66.9535 58.0494 66.8552 58.6344C66.7569 59.2194 66.7338 59.8333 66.6644 60.4704C66.6644 60.789 66.6008 61.1076 66.5661 61.4377C66.5314 61.7679 66.5661 62.1038 66.5315 62.4397C66.5315 63.1232 66.4852 63.8182 66.491 64.5365C66.5474 67.653 67.0001 70.7497 67.838 73.7516C68.6797 76.7495 69.8691 79.6381 71.3819 82.3586C71.5496 82.6714 71.7173 82.9841 71.8791 83.2969C72.041 83.6097 72.2433 83.8761 72.4168 84.1773L73.4574 85.8628C74.1627 86.9285 74.8623 87.89 75.4751 88.7588L77.2788 91.0756C77.7992 91.7649 78.3137 92.3036 78.6953 92.7785L79.5971 93.85C79.7055 93.9749 79.8059 94.1064 79.8978 94.2439Z" fill="#263238"/>
<path d="M74.4111 180.29C74.4398 180.224 74.4746 180.16 74.5152 180.099L74.8621 179.555C75.0182 179.312 75.2089 179.022 75.4402 178.674L75.8044 178.095C75.949 177.904 76.1166 177.713 76.2843 177.516L77.4405 176.126C77.8857 175.645 78.3944 175.147 78.9321 174.603C80.1787 173.4 81.5036 172.282 82.8981 171.255C85.9679 168.938 89.9281 166.621 94.2178 163.905C96.4734 162.512 98.6416 160.982 100.71 159.323C102.929 157.552 104.889 155.478 106.532 153.16C109.539 148.532 111.173 143.143 111.244 137.62C111.317 133.119 110.564 128.643 109.024 124.415C108.003 121.561 106.722 118.808 105.196 116.19C104.659 115.257 104.219 114.551 103.919 114.07L103.578 113.525C103.503 113.404 103.468 113.334 103.468 113.334C103.519 113.386 103.564 113.445 103.601 113.508L103.971 114.041C104.289 114.504 104.745 115.199 105.295 116.132C106.867 118.736 108.184 121.486 109.226 124.345C110.808 128.591 111.592 133.094 111.538 137.626C111.514 138.933 111.408 140.237 111.221 141.53C111.033 142.883 110.749 144.22 110.371 145.532C109.581 148.31 108.353 150.944 106.734 153.334C105.075 155.677 103.093 157.773 100.849 159.561C98.7681 161.221 96.5884 162.753 94.3219 164.148C90.0148 166.841 86.0488 169.135 82.979 171.434C81.5849 172.448 80.2564 173.548 79.0015 174.73C78.4638 175.269 77.9493 175.755 77.4983 176.23L76.3421 177.591C76.1686 177.8 76.001 177.991 75.8565 178.171L75.4807 178.721L74.9025 179.584L74.5325 180.111C74.4969 180.174 74.4563 180.234 74.4111 180.29Z" fill="#263238"/>
<path d="M69.0348 190.525C68.9999 190.619 68.9574 190.71 68.9076 190.797L68.4914 191.533C68.3064 191.846 68.0867 192.239 67.8612 192.691C67.6357 193.143 67.3467 193.676 67.1039 194.284C66.9767 194.585 66.8379 194.898 66.6992 195.222C66.5604 195.547 66.4448 195.906 66.3061 196.265C66.0285 196.983 65.8089 197.771 65.5545 198.582C64.5489 202.213 64.2023 205.995 64.5312 209.749C64.6295 210.606 64.6989 211.428 64.8492 212.181C64.9128 212.558 64.9648 212.929 65.0399 213.276C65.1151 213.624 65.196 213.96 65.2712 214.278C65.3984 214.921 65.5892 215.483 65.7279 215.981C65.8667 216.479 66.0054 216.908 66.1326 217.255L66.4043 218.055C66.4433 218.145 66.4686 218.241 66.4795 218.338C66.4238 218.258 66.3791 218.17 66.3465 218.078C66.2598 217.863 66.1557 217.609 66.0228 217.296C65.848 216.883 65.6956 216.462 65.566 216.033C65.4099 215.535 65.2076 214.973 65.0631 214.33C64.9821 214.012 64.9012 213.676 64.8145 213.328C64.7278 212.981 64.6757 212.604 64.6006 212.228C64.4387 211.463 64.3578 210.641 64.2537 209.778C63.8918 206.001 64.2409 202.189 65.2828 198.541C65.5429 197.707 65.7742 196.914 66.069 196.195C66.2135 195.836 66.3292 195.483 66.4795 195.153L66.9073 194.209C67.1617 193.629 67.4854 193.091 67.7109 192.627C67.9146 192.229 68.1405 191.842 68.3873 191.469L68.8498 190.757C68.9654 190.6 69.0232 190.519 69.0348 190.525Z" fill="#263238"/>
<path d="M140.509 204.449L140.393 204.53L140.035 204.756L138.63 205.602L137.612 206.181C137.231 206.395 136.809 206.592 136.358 206.818C135.444 207.258 134.438 207.82 133.247 208.272L131.397 209.031C130.756 209.285 130.056 209.488 129.351 209.731C127.946 210.247 126.385 210.618 124.761 211.04C117.628 212.714 110.229 212.911 103.017 211.62C101.364 211.284 99.7912 210.994 98.3575 210.554C97.6406 210.345 96.9353 210.183 96.2762 209.975L94.3915 209.285C93.1832 208.897 92.1426 208.393 91.2118 208C90.7493 207.797 90.3157 207.617 89.9284 207.42L88.8762 206.87L87.4309 206.1L87.0609 205.891L86.9395 205.816C86.9395 205.816 86.9915 205.816 87.0782 205.868L87.4598 206.048L88.9282 206.766L89.9862 207.287C90.3793 207.472 90.8187 207.64 91.2812 207.837C92.212 208.208 93.2526 208.7 94.4667 209.071L96.3282 209.749C96.9873 209.969 97.6926 210.125 98.4095 210.328C99.8375 210.757 101.404 211.029 103.035 211.359C110.213 212.604 117.566 212.407 124.668 210.78C126.287 210.363 127.842 210.009 129.247 209.505C129.952 209.268 130.646 209.077 131.288 208.822L133.138 208.086C134.329 207.646 135.34 207.102 136.254 206.679C136.705 206.459 137.132 206.268 137.514 206.1L138.543 205.521L139.971 204.721L140.347 204.524C140.463 204.461 140.509 204.443 140.509 204.449Z" fill="#263238"/>
<path d="M146.538 81.8604C146.503 81.9023 146.462 81.9393 146.416 81.9704L146.035 82.2832C145.682 82.567 145.191 82.9666 144.561 83.4416C143.277 84.461 141.416 85.9379 139.063 87.6987C136.325 89.7987 133.453 91.718 130.466 93.4444C128.69 94.4403 126.838 95.2944 124.927 95.9987C122.867 96.7498 120.717 97.2288 118.533 97.4236C114.287 97.6623 110.053 96.7795 106.254 94.8635C104.611 94.0275 103.026 93.0833 101.508 92.037C100.097 91.0407 98.8077 90.0735 97.6688 89.141C95.3562 87.2991 93.5872 85.741 92.3384 84.6753L90.9104 83.4358L90.5462 83.1114L90.4248 82.9898C90.4248 82.9898 90.4768 82.9898 90.5636 83.0825L90.9509 83.3895L92.4136 84.5826C93.6854 85.6252 95.5008 87.1543 97.8017 88.973C98.958 89.8823 100.236 90.838 101.652 91.8227C103.165 92.8509 104.742 93.7796 106.375 94.6028C110.136 96.4809 114.32 97.3453 118.516 97.1108C120.674 96.9191 122.798 96.4479 124.835 95.7091C126.732 95.0142 128.572 94.1718 130.339 93.1896C133.321 91.4945 136.196 89.6163 138.947 87.5655C141.306 85.8279 143.185 84.3799 144.497 83.3895L146.006 82.231L146.405 81.9414C146.445 81.9079 146.49 81.8805 146.538 81.8604Z" fill="#263238"/>
<g opacity="0.24">
<path opacity="0.24" d="M94.3975 209.314C97.1378 207.194 100.988 207.704 104.376 208.422C107.764 209.141 111.175 210.293 114.603 209.812C117.187 209.448 119.558 208.179 122.119 207.623C124.68 207.067 127.761 207.478 129.178 209.673C117.857 213.328 105.658 213.202 94.4148 209.314" fill="black"/>
</g>
<path d="M189.985 193.595L177.555 179.63L177.428 196.607L181.174 207.496L143.931 213.965L142.353 184.524L139.671 161.935C139.511 160.589 139.801 159.227 140.496 158.063C141.19 156.899 142.25 155.998 143.509 155.5L153.76 151.446L168.213 154.099L174.023 156.311C176.459 157.241 178.631 158.754 180.348 160.719L197.83 180.748" fill="#B75400"/>
<path d="M176.688 176.271C177.389 176.261 178.09 176.211 178.786 176.12C180.463 175.864 182.025 175.112 183.273 173.96C184.52 172.808 185.396 171.31 185.787 169.656C185.931 168.966 186.037 168.268 186.105 167.565C186.152 167.755 186.17 167.95 186.157 168.145C186.162 168.67 186.107 169.195 185.995 169.708C185.645 171.428 184.764 172.994 183.476 174.184C182.189 175.375 180.56 176.129 178.821 176.34C178.301 176.407 177.776 176.419 177.254 176.375C177.061 176.371 176.87 176.336 176.688 176.271Z" fill="white"/>
<path d="M177.769 195.883C177.856 195.883 177.879 189.998 177.821 182.746C177.764 175.495 177.642 169.616 177.556 169.616C177.469 169.616 177.446 175.495 177.503 182.752C177.561 190.01 177.683 195.883 177.769 195.883Z" fill="#263238"/>
<path d="M176.405 200.198L153.904 191.122C153.014 190.763 152.243 190.162 151.676 189.387C151.109 188.613 150.769 187.695 150.695 186.737L149.048 165.121C149.048 165.121 149.244 155.923 143.509 155.477L140.266 156.763C136.051 159.005 135.011 165.156 135.583 169.899C136.398 176.641 136.739 186.187 137.647 192.037C138.399 196.827 141.116 201.038 145.81 202.271L173.526 208.283L176.405 200.198Z" fill="#B75400"/>
<path d="M149.372 168.417C149.409 168.578 149.432 168.743 149.441 168.909C149.476 169.262 149.528 169.737 149.586 170.334C149.701 171.602 149.863 173.386 150.06 175.576C150.256 177.765 150.476 180.435 150.73 183.354C150.788 184.09 150.852 184.837 150.915 185.602C150.96 186.38 151.056 187.154 151.204 187.919C151.361 188.692 151.753 189.398 152.326 189.94C152.942 190.483 153.643 190.921 154.401 191.237C160.605 193.925 166.322 196.149 170.473 197.707L175.405 199.526L176.746 200.018C176.903 200.07 177.056 200.134 177.203 200.209C177.039 200.179 176.878 200.135 176.723 200.076L175.364 199.636C174.208 199.242 172.474 198.657 170.404 197.898C166.224 196.392 160.501 194.203 154.274 191.527C153.487 191.195 152.758 190.738 152.118 190.172C151.503 189.587 151.083 188.826 150.915 187.994C150.766 187.218 150.671 186.432 150.632 185.642C150.568 184.872 150.511 184.125 150.453 183.389C150.227 180.493 150.019 177.829 149.875 175.605C149.73 173.381 149.586 171.626 149.493 170.357C149.453 169.778 149.424 169.28 149.406 168.926C149.38 168.758 149.368 168.587 149.372 168.417Z" fill="#263238"/>
<path d="M136.479 180.169C136.502 180.264 136.516 180.361 136.52 180.458L136.595 181.292C136.664 182.063 136.751 183.1 136.861 184.362C136.97 185.625 137.144 187.195 137.369 188.897C137.591 190.742 137.929 192.57 138.381 194.371C138.594 195.299 138.966 196.182 139.48 196.983C139.982 197.718 140.544 198.41 141.162 199.051C142.214 200.135 143.429 201.048 144.764 201.756C146.007 202.389 147.341 202.827 148.718 203.053C148.62 203.066 148.521 203.066 148.423 203.053C148.144 203.035 147.866 202.998 147.591 202.943C146.574 202.753 145.589 202.42 144.665 201.953C143.294 201.261 142.044 200.349 140.965 199.254C140.326 198.606 139.746 197.902 139.231 197.151C138.691 196.328 138.3 195.416 138.075 194.458C137.616 192.643 137.282 190.799 137.075 188.938C136.866 187.2 136.728 185.683 136.635 184.385C136.543 183.088 136.491 182.034 136.462 181.304C136.462 180.968 136.462 180.69 136.462 180.464C136.452 180.365 136.458 180.266 136.479 180.169Z" fill="#263238"/>
<path d="M146.1 195.292C146.159 194.87 146.298 194.463 146.51 194.093C146.974 193.17 147.616 192.349 148.401 191.677C149.185 191.006 150.095 190.498 151.077 190.183C151.476 190.031 151.9 189.958 152.326 189.969C151.948 190.127 151.562 190.266 151.17 190.386C150.24 190.746 149.378 191.261 148.62 191.909C147.864 192.559 147.221 193.33 146.718 194.191C146.314 194.857 146.146 195.309 146.1 195.292Z" fill="#263238"/>
<path d="M150.527 178.854C150.576 178.868 150.623 178.89 150.666 178.918L151.071 179.132C151.593 179.39 152.129 179.616 152.678 179.81C154.701 180.521 156.871 180.708 158.985 180.354C162.126 179.793 164.932 178.045 166.825 175.471C167.956 173.985 168.665 172.22 168.877 170.363C168.982 169.387 168.88 168.4 168.576 167.467C168.257 166.514 167.7 165.659 166.958 164.982C166.227 164.296 165.306 163.848 164.316 163.696C163.847 163.612 163.365 163.636 162.906 163.765C162.447 163.894 162.024 164.126 161.668 164.443C161.345 164.76 161.159 165.19 161.148 165.642C161.158 166.092 161.312 166.527 161.587 166.882C161.874 167.225 162.226 167.508 162.623 167.714C163.02 167.919 163.454 168.044 163.899 168.081C165.465 168.276 167.054 168.075 168.522 167.495C169.99 166.915 171.289 165.975 172.3 164.762C173.066 163.818 173.643 162.734 173.999 161.57C174.265 160.689 174.409 159.775 174.427 158.854C174.433 158.272 174.391 157.691 174.3 157.116C174.265 156.937 174.236 156.786 174.219 156.67C174.214 156.618 174.214 156.566 174.219 156.514C174.458 157.263 174.575 158.045 174.566 158.831C174.572 159.765 174.443 160.696 174.184 161.594C173.541 163.758 172.151 165.622 170.264 166.856C168.376 168.09 166.112 168.612 163.876 168.33C163.399 168.288 162.934 168.151 162.51 167.929C162.085 167.706 161.709 167.401 161.402 167.032C161.088 166.628 160.913 166.132 160.905 165.619C160.905 165.092 161.113 164.586 161.483 164.212C161.871 163.864 162.333 163.609 162.833 163.464C163.334 163.32 163.86 163.29 164.373 163.378C165.425 163.534 166.403 164.009 167.177 164.739C167.96 165.447 168.546 166.347 168.877 167.351C169.192 168.322 169.298 169.348 169.189 170.363C168.964 172.26 168.231 174.061 167.068 175.576C165.463 177.77 163.185 179.377 160.582 180.151C157.979 180.925 155.195 180.823 152.655 179.862C151.904 179.621 151.189 179.282 150.527 178.854Z" fill="white"/>
<path d="M135.785 173.091C135.883 172.918 136.008 172.761 136.155 172.628C136.525 172.236 136.931 171.881 137.369 171.568C138.845 170.552 140.562 169.942 142.347 169.801C143.326 169.691 144.317 169.732 145.284 169.923C146.07 170.086 146.83 170.355 147.544 170.722C148.024 170.964 148.484 171.243 148.92 171.556C149.089 171.66 149.241 171.789 149.371 171.938C149.336 171.985 148.666 171.475 147.452 170.913C145.869 170.178 144.114 169.897 142.382 170.102C140.642 170.24 138.963 170.803 137.491 171.741C136.375 172.489 135.826 173.131 135.785 173.091Z" fill="white"/>
<path d="M139.387 157.632C139.935 158.15 140.547 158.595 141.208 158.958C141.929 159.329 142.714 159.561 143.52 159.642C144.502 159.741 145.494 159.602 146.411 159.236C147.31 158.852 148.104 158.256 148.723 157.499C149.235 156.867 149.627 156.147 149.88 155.373C150.088 154.647 150.206 153.898 150.232 153.143C150.289 153.343 150.314 153.55 150.308 153.757C150.317 154.325 150.241 154.892 150.082 155.437C149.846 156.251 149.454 157.01 148.926 157.673C148.292 158.503 147.45 159.151 146.485 159.55C145.521 159.949 144.468 160.084 143.434 159.943C142.595 159.848 141.784 159.588 141.046 159.179C140.549 158.905 140.097 158.558 139.705 158.148C139.568 157.997 139.46 157.822 139.387 157.632Z" fill="white"/>
<path d="M158.997 193.178C158.998 193.034 159.014 192.89 159.043 192.749C159.124 192.347 159.258 191.957 159.442 191.591C160.177 190.242 161.371 189.202 162.807 188.66C164.92 187.818 167.259 187.734 169.427 188.422C170.617 188.776 171.982 189.216 172.895 190.38C173.125 190.677 173.27 191.032 173.315 191.405C173.36 191.778 173.303 192.157 173.15 192.5C172.801 193.17 172.237 193.703 171.548 194.012C170.884 194.341 170.156 194.523 169.415 194.545C168.679 194.58 167.954 194.355 167.368 193.908C167.098 193.676 166.877 193.392 166.72 193.072C166.563 192.753 166.473 192.404 166.455 192.048C166.417 191.383 166.522 190.718 166.761 190.096C167.633 187.985 169.292 186.297 171.386 185.393C172.776 184.773 174.298 184.51 175.815 184.629C176.367 184.671 176.911 184.786 177.434 184.97C177.434 185.011 176.855 184.82 175.803 184.745C174.547 184.676 173.29 184.865 172.109 185.301C170.928 185.736 169.848 186.408 168.935 187.276C168.088 188.089 167.427 189.077 166.998 190.172C166.774 190.756 166.678 191.383 166.715 192.008C166.732 192.325 166.813 192.635 166.955 192.919C167.096 193.202 167.294 193.454 167.536 193.658C168.065 194.065 168.72 194.271 169.386 194.238C170.081 194.22 170.764 194.05 171.386 193.74C172.015 193.459 172.532 192.976 172.855 192.367C172.985 192.071 173.033 191.745 172.995 191.424C172.956 191.103 172.832 190.799 172.635 190.542C172.232 190.032 171.715 189.624 171.126 189.349C170.555 189.076 169.961 188.853 169.351 188.683C167.241 187.999 164.96 188.058 162.888 188.851C161.483 189.36 160.301 190.346 159.546 191.637C159.296 192.124 159.111 192.642 158.997 193.178Z" fill="white"/>
<path d="M144.013 201.316C144.013 201.258 144.868 201.188 146.169 200.736C147.867 200.137 149.389 199.121 150.594 197.782C151.8 196.442 152.652 194.822 153.072 193.068C153.401 191.724 153.39 190.849 153.448 190.855C153.488 191.055 153.498 191.26 153.477 191.463C153.463 192.019 153.398 192.571 153.28 193.114C152.905 194.925 152.055 196.602 150.817 197.974C149.58 199.345 147.999 200.361 146.238 200.916C145.711 201.088 145.169 201.21 144.62 201.281C144.42 201.322 144.216 201.333 144.013 201.316Z" fill="white"/>
<path d="M136.716 184.513C136.801 184.465 136.893 184.428 136.988 184.403C137.173 184.345 137.438 184.264 137.791 184.171C138.792 183.907 139.828 183.802 140.861 183.858C141.579 183.913 142.282 184.087 142.942 184.374C143.711 184.706 144.381 185.233 144.885 185.903C145.438 186.663 145.706 187.594 145.642 188.533C145.605 189.032 145.453 189.516 145.197 189.946C144.938 190.399 144.529 190.748 144.041 190.93C143.783 191.018 143.507 191.037 143.24 190.984C142.973 190.931 142.725 190.809 142.52 190.629C142.173 190.246 141.985 189.745 141.994 189.228C141.964 188.305 142.146 187.387 142.526 186.546C143.054 185.347 143.966 184.359 145.118 183.739C146.27 183.118 147.596 182.902 148.885 183.123C149.163 183.166 149.435 183.234 149.701 183.325C149.88 183.395 149.972 183.436 149.967 183.447C149.961 183.459 149.579 183.325 148.868 183.239C147.863 183.117 146.844 183.248 145.902 183.621C144.508 184.182 143.391 185.273 142.798 186.656C142.445 187.46 142.277 188.333 142.306 189.21C142.294 189.653 142.451 190.084 142.746 190.415C142.912 190.556 143.111 190.652 143.325 190.693C143.539 190.733 143.76 190.717 143.966 190.647C144.394 190.488 144.754 190.185 144.983 189.789C145.213 189.399 145.351 188.961 145.388 188.509C145.448 187.639 145.205 186.775 144.7 186.065C144.23 185.428 143.603 184.924 142.879 184.606C142.246 184.318 141.57 184.138 140.878 184.073C139.867 183.997 138.851 184.069 137.861 184.287C137.115 184.432 136.727 184.536 136.716 184.513Z" fill="white"/>
<g opacity="0.3">
<path opacity="0.3" d="M169.935 197.62C167.53 196.259 165.177 195.211 162.662 194.07C160.148 192.929 157.679 191.452 156.031 189.228C152.927 185.034 153.279 178.981 150.105 174.846C150.314 177.626 150.52 180.408 150.724 183.192C150.915 185.741 150.528 188.266 152.164 189.998C153.545 191.458 156.239 192.575 158.147 193.207C161.98 194.475 166.108 196.358 169.935 197.62Z" fill="black"/>
</g>
<path d="M209.063 229.39C209.063 229.39 227.893 234.603 228.65 234.881C229.806 235.28 229.592 239.445 227.829 239.375C226.991 239.346 213.376 239.885 211.642 239.781C209.907 239.676 204.704 237.62 204.704 237.62L209.063 229.39Z" fill="#B75400"/>
<path d="M216.885 236.589C217.118 235.896 217.396 235.219 217.718 234.562C218.123 233.955 218.567 233.374 219.047 232.824C218.377 233.192 217.821 233.737 217.44 234.4C217.058 235.063 216.866 235.818 216.885 236.583V236.589Z" fill="#263238"/>
<path d="M214.919 235.697C215.011 235.697 215.202 234.823 215.705 233.838C216.208 232.853 216.798 232.164 216.734 232.1C216.185 232.529 215.737 233.075 215.423 233.698C215.109 234.32 214.937 235.005 214.919 235.703V235.697Z" fill="#263238"/>
<path d="M213.11 235.205C213.202 234.53 213.349 233.864 213.549 233.212C213.844 232.598 214.186 232.007 214.572 231.446C213.975 231.848 213.515 232.424 213.254 233.096C212.993 233.768 212.942 234.504 213.11 235.205Z" fill="#263238"/>
<path d="M213.417 232.766C213.583 232.319 213.652 231.841 213.619 231.365C213.613 230.846 213.549 230.329 213.428 229.824C213.356 229.526 213.261 229.233 213.145 228.949C213.09 228.77 212.986 228.609 212.844 228.486C212.749 228.416 212.633 228.38 212.514 228.387C212.396 228.393 212.284 228.44 212.197 228.521C212.051 228.661 211.962 228.851 211.948 229.054C211.934 229.219 211.934 229.386 211.948 229.552C211.95 229.862 211.989 230.171 212.064 230.473C212.189 230.978 212.384 231.463 212.642 231.915C212.849 232.35 213.135 232.743 213.486 233.073C213.532 233.073 213.214 232.604 212.839 231.834C212.619 231.388 212.454 230.918 212.347 230.432C212.286 230.149 212.255 229.859 212.255 229.569C212.255 229.28 212.255 228.92 212.428 228.781C212.462 228.751 212.506 228.733 212.552 228.733C212.598 228.733 212.643 228.751 212.677 228.781C212.771 228.874 212.842 228.987 212.885 229.112C212.995 229.384 213.09 229.662 213.168 229.946C213.3 230.426 213.384 230.919 213.417 231.417C213.451 232.228 213.365 232.761 213.417 232.766Z" fill="#263238"/>
<path d="M213.393 232.575C213.01 232.415 212.594 232.347 212.179 232.378C211.729 232.378 211.281 232.433 210.844 232.54C210.575 232.602 210.314 232.697 210.069 232.824C209.915 232.903 209.79 233.029 209.714 233.185C209.638 233.341 209.615 233.517 209.647 233.687C209.69 233.85 209.776 233.998 209.894 234.117C210.013 234.236 210.161 234.322 210.323 234.365C210.601 234.435 210.891 234.435 211.168 234.365C211.613 234.263 212.031 234.065 212.393 233.786C212.736 233.556 213.032 233.263 213.266 232.923C212.918 233.127 212.584 233.353 212.266 233.6C211.916 233.841 211.524 234.012 211.11 234.104C210.88 234.162 210.64 234.162 210.41 234.104C210.302 234.077 210.202 234.021 210.122 233.943C210.042 233.865 209.984 233.766 209.953 233.658C209.936 233.552 209.953 233.443 210.004 233.348C210.054 233.253 210.134 233.177 210.231 233.131C210.446 233.013 210.675 232.923 210.913 232.865C211.328 232.746 211.754 232.673 212.185 232.645C212.919 232.552 213.382 232.627 213.393 232.575Z" fill="#263238"/>
<path d="M219.776 236.792C219.857 236.215 219.982 235.646 220.152 235.089C220.416 234.572 220.723 234.078 221.071 233.612C220.522 233.912 220.094 234.392 219.858 234.971C219.622 235.55 219.593 236.194 219.776 236.792Z" fill="#263238"/>
<path d="M206.641 237.666C206.869 237.811 207.113 237.928 207.369 238.014C208.052 238.274 208.751 238.491 209.462 238.663C211.823 239.179 214.238 239.408 216.654 239.346C219.475 239.311 222.019 239.184 223.863 239.109L226.043 238.993C226.31 238.988 226.577 238.961 226.84 238.912C226.575 238.87 226.305 238.856 226.037 238.871H223.857L216.654 239.01C214.26 239.072 211.867 238.878 209.514 238.431C207.71 238.066 206.664 237.603 206.641 237.666Z" fill="#263238"/>
<path d="M206.086 238.095C206.086 238.136 206.624 237.835 207.497 237.452C208.606 236.927 209.84 236.727 211.058 236.873C212.256 237.133 213.337 237.775 214.139 238.703C214.473 239.099 214.835 239.47 215.22 239.815C214.972 239.355 214.663 238.93 214.301 238.553C213.93 238.12 213.511 237.732 213.052 237.394C212.478 236.968 211.81 236.686 211.104 236.572C209.826 236.417 208.532 236.662 207.398 237.273C206.919 237.474 206.476 237.752 206.086 238.095Z" fill="#263238"/>
<path d="M189.054 224.183C189.054 224.183 171.237 235.871 170.601 236.346C169.641 237.07 170.739 240.528 172.404 239.931C173.191 239.647 188.141 235.477 189.748 234.852C191.355 234.226 195.686 230.716 195.686 230.716L189.054 224.183Z" fill="#B75400"/>
<path d="M183.764 233.427C183.549 232.692 183.137 232.03 182.572 231.514C182.007 230.999 181.312 230.648 180.562 230.502C181.188 230.878 181.789 231.296 182.359 231.753C182.862 232.281 183.331 232.84 183.764 233.427Z" fill="#263238"/>
<path d="M185.359 231.979C185.133 231.318 184.763 230.715 184.276 230.214C183.789 229.714 183.198 229.327 182.544 229.083C182.498 229.164 183.278 229.662 184.047 230.426C184.816 231.191 185.278 232.025 185.359 231.979Z" fill="#263238"/>
<path d="M186.967 230.948C186.965 230.219 186.688 229.518 186.192 228.984C185.778 228.395 185.16 227.982 184.458 227.826C184.994 228.245 185.499 228.704 185.967 229.199C186.346 229.754 186.681 230.339 186.967 230.948Z" fill="#263238"/>
<path d="M185.938 228.729C185.984 228.729 185.741 228.225 185.539 227.391C185.417 226.908 185.345 226.413 185.325 225.914C185.305 225.621 185.305 225.327 185.325 225.034C185.323 224.902 185.357 224.772 185.423 224.658C185.448 224.618 185.487 224.59 185.533 224.579C185.578 224.568 185.626 224.576 185.666 224.6C185.868 224.681 185.972 225.028 186.071 225.306C186.155 225.582 186.213 225.865 186.244 226.152C186.289 226.648 186.273 227.148 186.198 227.64C186.076 228.486 185.909 229.002 185.955 229.019C186.193 228.605 186.35 228.149 186.417 227.675C186.528 227.168 186.567 226.647 186.533 226.129C186.51 225.819 186.454 225.512 186.365 225.214C186.318 225.054 186.26 224.897 186.192 224.744C186.115 224.555 185.971 224.4 185.787 224.31C185.68 224.26 185.559 224.249 185.445 224.28C185.33 224.311 185.231 224.381 185.163 224.478C185.067 224.639 185.017 224.823 185.018 225.011C184.955 225.836 185.049 226.665 185.296 227.455C185.418 227.92 185.636 228.355 185.938 228.729Z" fill="#263238"/>
<path d="M185.874 228.538C185.874 228.585 186.313 228.376 187.03 228.196C187.449 228.096 187.877 228.038 188.308 228.023C188.554 228.006 188.8 228.022 189.042 228.069C189.149 228.084 189.247 228.132 189.324 228.207C189.401 228.282 189.452 228.38 189.47 228.486C189.475 228.601 189.449 228.715 189.395 228.817C189.341 228.919 189.261 229.005 189.164 229.065C188.965 229.191 188.739 229.266 188.504 229.285C188.082 229.327 187.656 229.283 187.25 229.158C186.873 229.017 186.487 228.902 186.094 228.816C186.42 229.077 186.793 229.274 187.192 229.395C187.621 229.56 188.081 229.629 188.539 229.598C188.824 229.583 189.101 229.495 189.343 229.343C189.486 229.255 189.603 229.13 189.681 228.982C189.759 228.833 189.796 228.666 189.788 228.498C189.768 228.325 189.692 228.164 189.572 228.039C189.452 227.913 189.294 227.83 189.123 227.803C188.852 227.754 188.576 227.743 188.302 227.768C187.853 227.798 187.408 227.882 186.978 228.017C186.575 228.103 186.197 228.282 185.874 228.538Z" fill="#263238"/>
<path d="M174.67 239.288C174.67 239.317 174.97 239.109 175.109 238.599C175.248 237.933 175.128 237.239 174.774 236.659C174.603 236.348 174.409 236.05 174.196 235.767C174.022 235.525 173.818 235.307 173.589 235.118C173.424 234.982 173.223 234.899 173.011 234.88C172.86 234.88 172.785 234.909 172.785 234.927C172.785 234.944 173.103 234.956 173.433 235.292C173.627 235.489 173.8 235.706 173.947 235.94C174.155 236.22 174.348 236.51 174.525 236.809C174.845 237.329 174.983 237.94 174.918 238.547C174.851 238.799 174.768 239.046 174.67 239.288Z" fill="#263238"/>
<path d="M181.07 234.498C181.094 234.185 181.05 233.87 180.941 233.575C180.832 233.28 180.661 233.012 180.44 232.79C180.262 232.531 180.029 232.314 179.759 232.155C179.488 231.996 179.186 231.898 178.873 231.869C179.346 232.205 179.788 232.581 180.197 232.992C180.53 233.469 180.822 233.973 181.07 234.498Z" fill="#263238"/>
<path d="M193.852 231.336C193.575 231.49 193.312 231.669 193.066 231.869C192.36 232.36 191.626 232.81 190.869 233.218C189.748 233.814 188.59 234.334 187.4 234.776C186.047 235.28 184.51 235.755 182.937 236.219C179.729 237.145 176.826 237.991 174.734 238.622L172.242 239.404C171.934 239.486 171.634 239.594 171.346 239.729C171.661 239.686 171.972 239.618 172.276 239.526L174.78 238.825C176.89 238.246 179.798 237.435 183.007 236.508C184.608 236.039 186.128 235.552 187.481 235.031C188.685 234.573 189.854 234.027 190.979 233.398C191.734 232.969 192.457 232.485 193.141 231.95C193.395 231.765 193.633 231.56 193.852 231.336Z" fill="#263238"/>
<path d="M194.512 231.573C194.032 231.362 193.523 231.225 193.003 231.168C191.736 230.933 190.428 231.095 189.257 231.631C188.623 231.963 188.08 232.444 187.672 233.033C187.337 233.497 187.056 233.999 186.834 234.527C186.602 234.996 186.437 235.495 186.343 236.01C186.605 235.563 186.836 235.098 187.037 234.62C187.519 233.489 188.355 232.546 189.418 231.932C190.537 231.428 191.776 231.249 192.991 231.417C193.916 231.492 194.5 231.62 194.512 231.573Z" fill="#263238"/>
<path d="M226.083 195.68C226.083 195.68 231.43 197.591 231.448 203.598C231.494 215.095 208.253 227.774 208.253 227.774L177.323 207.247L175.387 206.459C175.387 206.459 217.156 190.751 226.083 195.68Z" fill="#263238"/>
<path d="M192.991 217.614C193.276 217.456 193.547 217.274 193.801 217.07C194.304 216.699 195.026 216.155 195.911 215.466C197.686 214.099 200.091 212.153 202.686 209.923C205.282 207.693 207.56 205.602 209.179 204.055C209.988 203.285 210.636 202.648 211.081 202.202C211.321 201.984 211.542 201.746 211.74 201.489C211.474 201.676 211.224 201.885 210.994 202.115L209.028 203.893C207.369 205.393 205.068 207.461 202.478 209.685C199.888 211.909 197.506 213.879 195.778 215.292L193.725 216.972C193.464 217.166 193.218 217.381 192.991 217.614Z" fill="#455A64"/>
<path d="M217.354 199.978C215.331 199.763 213.306 200.361 211.723 201.64C211.775 201.727 212.879 201.003 214.463 200.551C216.047 200.099 217.354 200.076 217.354 199.978Z" fill="#455A64"/>
<path d="M214.688 198.165C213.972 198.469 213.343 198.945 212.854 199.551C212.366 200.158 212.035 200.875 211.89 201.64C211.982 201.64 212.317 200.707 213.098 199.752C213.878 198.796 214.74 198.246 214.688 198.165Z" fill="#455A64"/>
<path d="M227.783 234.585C227.783 234.55 227.413 234.475 226.985 234.828C226.481 235.299 226.165 235.937 226.095 236.624C225.993 237.299 226.09 237.989 226.372 238.611C226.592 239.08 226.835 239.3 226.864 239.277C226.787 239.019 226.693 238.768 226.58 238.524C226.378 237.928 226.319 237.293 226.407 236.67C226.476 236.05 226.73 235.464 227.135 234.991C227.465 234.649 227.789 234.637 227.783 234.585Z" fill="#263238"/>
<path d="M218.966 176.885L207.953 204.86L160.529 205.636L159.65 203.065L176.272 202.462L184.261 177.644L218.966 176.885Z" fill="#455A64"/>
<path d="M196.819 189.013C197.183 188.83 197.592 188.756 197.997 188.8C198.402 188.845 198.786 189.005 199.102 189.262C199.371 189.515 199.557 189.844 199.636 190.204C199.716 190.565 199.685 190.941 199.548 191.284C199.399 191.626 199.158 191.92 198.851 192.132C198.545 192.343 198.185 192.465 197.813 192.483C197.422 192.508 197.033 192.405 196.705 192.188C196.377 191.972 196.129 191.654 195.998 191.284C195.874 190.87 195.885 190.427 196.028 190.019C196.171 189.611 196.44 189.259 196.796 189.013" fill="#EBEBEB"/>
<path d="M211.179 229.175C211.179 229.175 167.484 200.458 165.703 199.862C163.923 199.265 159.587 196.427 155.268 197.62C150.949 198.813 147.064 202.7 145.128 208.376C144.018 211.62 143.497 217.151 143.249 221.304C142.917 226.27 144.524 231.171 147.729 234.973C149.149 236.748 151.035 238.09 153.175 238.848C153.632 238.993 154.106 239.115 154.592 239.219C162.853 241.014 171.357 237.296 175.982 230.218L177 228.666C177 228.666 205.588 239.184 206.033 239.039L211.179 229.175Z" fill="#263238"/>
<path d="M157.124 221.269C157.201 221.308 157.28 221.343 157.361 221.373L158.078 221.657L160.847 222.729L171.144 226.615C175.514 228.249 180.752 230.195 186.632 232.338C192.511 234.481 199.021 236.827 205.982 239.184L206.103 239.23L206.167 239.109L209.583 232.575L211.318 229.245L211.381 229.117L211.26 229.042L177.931 207.843L167.918 201.518L165.2 199.815L164.489 199.381C164.327 199.283 164.241 199.242 164.241 199.242L164.472 199.41L165.166 199.868L167.854 201.605L177.844 208.029L211.121 229.309L211.063 229.1C210.514 230.16 209.907 231.289 209.329 232.431L205.918 238.964L206.109 238.889C199.171 236.537 192.638 234.197 186.753 232.071L171.242 226.418L160.888 222.607L158.101 221.588L157.373 221.333L157.124 221.269Z" fill="#455A64"/>
<path d="M161.657 119.3C162.403 117.279 164.051 116.404 166.138 115.9C167.187 115.656 168.281 115.668 169.324 115.938C170.368 116.207 171.332 116.725 172.133 117.447C173.191 118.414 173.965 119.764 175.272 120.343C177.428 121.322 180.186 119.891 182.21 121.09C182.817 121.449 183.282 122.007 183.526 122.671C183.769 123.334 183.775 124.062 183.543 124.729C183.312 125.397 182.857 125.963 182.255 126.333C181.653 126.702 180.943 126.851 180.244 126.755C181.649 127.415 181.909 129.535 180.943 130.751C179.978 131.967 178.192 132.298 176.694 131.875C175.218 131.365 173.909 130.462 172.907 129.263C171.855 128.104 170.93 126.859 169.786 125.787C168.687 124.669 167.229 123.976 165.669 123.83C163.571 123.749 161.622 125.168 160.53 126.957C159.437 128.747 159.015 130.873 158.709 132.958C158.402 135.043 158.171 137.163 157.367 139.109C157.275 139.341 157.136 139.59 156.899 139.642C156.546 139.717 156.292 139.329 156.153 138.999C154.571 135.279 153.735 131.284 153.691 127.241C153.662 124.924 153.928 122.706 155.379 120.87C156.83 119.034 160.177 117.893 161.64 119.271" fill="#263238"/>
<path d="M156.731 128.643L153.517 152.031C153.388 152.976 153.452 153.936 153.706 154.855C153.959 155.774 154.397 156.631 154.992 157.375C155.587 158.119 156.327 158.734 157.166 159.183C158.006 159.631 158.928 159.904 159.876 159.984C161.671 160.14 163.457 159.599 164.865 158.472C166.273 157.345 167.194 155.719 167.438 153.931C167.675 152.193 167.877 150.705 167.918 150.525C167.918 150.525 173.936 150.786 175.173 144.953C175.752 142.132 176.532 136.225 177.162 130.873C177.48 128.103 176.747 125.315 175.108 123.062C173.47 120.809 171.046 119.255 168.317 118.709L167.739 118.599C161.582 117.719 157.419 122.468 156.731 128.643Z" fill="#FFBE9D"/>
<path d="M167.912 150.444C165.206 149.946 162.709 148.654 160.737 146.731C160.737 146.731 161.697 151.295 167.623 151.944L167.912 150.444Z" fill="#EB996E"/>
<path d="M174.648 134.452C174.607 134.67 174.482 134.863 174.3 134.99C174.119 135.117 173.895 135.167 173.676 135.13C173.569 135.118 173.465 135.084 173.371 135.031C173.276 134.978 173.194 134.906 173.128 134.82C173.062 134.734 173.014 134.635 172.987 134.53C172.96 134.425 172.955 134.316 172.971 134.209C173.011 133.99 173.135 133.795 173.316 133.667C173.498 133.539 173.723 133.488 173.942 133.525C174.05 133.538 174.154 133.573 174.248 133.626C174.343 133.68 174.425 133.753 174.491 133.839C174.557 133.926 174.605 134.024 174.631 134.13C174.658 134.235 174.664 134.345 174.648 134.452Z" fill="#263238"/>
<path d="M175.306 133.491C175.179 133.583 174.641 132.987 173.745 132.807C172.849 132.628 172.097 132.952 172.011 132.807C171.924 132.663 172.121 132.576 172.45 132.425C172.889 132.229 173.379 132.179 173.849 132.28C174.316 132.37 174.742 132.607 175.063 132.958C175.312 133.236 175.364 133.456 175.306 133.491Z" fill="#263238"/>
<path d="M165.79 132.993C165.751 133.212 165.627 133.406 165.445 133.534C165.263 133.662 165.038 133.713 164.819 133.676C164.712 133.662 164.608 133.628 164.513 133.574C164.419 133.52 164.337 133.447 164.271 133.361C164.205 133.275 164.156 133.177 164.128 133.072C164.1 132.967 164.093 132.857 164.108 132.749C164.152 132.532 164.277 132.34 164.457 132.213C164.638 132.086 164.861 132.033 165.079 132.066C165.187 132.079 165.292 132.113 165.386 132.167C165.481 132.221 165.563 132.293 165.63 132.379C165.696 132.465 165.744 132.564 165.772 132.67C165.8 132.775 165.806 132.885 165.79 132.993Z" fill="#263238"/>
<path d="M166.455 131.898C166.328 131.985 165.791 131.388 164.895 131.209C163.998 131.029 163.247 131.353 163.16 131.209C163.073 131.064 163.27 130.977 163.599 130.826C164.04 130.634 164.529 130.583 164.999 130.682C165.465 130.776 165.891 131.013 166.218 131.359C166.461 131.672 166.513 131.857 166.455 131.898Z" fill="#263238"/>
<path d="M168.38 139.202C168.882 139.146 169.389 139.155 169.889 139.231C170.126 139.231 170.351 139.231 170.421 139.097C170.494 138.868 170.494 138.621 170.421 138.391C170.317 137.812 170.207 137.163 170.091 136.503C169.646 133.827 169.374 131.649 169.478 131.631C169.582 131.614 170.056 133.769 170.478 136.445C170.583 137.105 170.687 137.73 170.779 138.333C170.87 138.639 170.847 138.968 170.716 139.26C170.666 139.333 170.601 139.394 170.525 139.438C170.449 139.482 170.364 139.508 170.276 139.514C170.144 139.533 170.01 139.533 169.877 139.514C169.367 139.473 168.864 139.368 168.38 139.202Z" fill="#263238"/>
<path d="M165.617 139.306C165.767 139.306 165.57 140.302 166.264 141.159C166.958 142.017 167.999 142.121 167.999 142.26C167.999 142.399 167.733 142.399 167.293 142.324C166.721 142.218 166.203 141.915 165.831 141.466C165.478 141.032 165.306 140.478 165.351 139.92C165.397 139.503 165.553 139.283 165.617 139.306Z" fill="#263238"/>
<path d="M167.385 128.417C167.252 128.649 166.379 128.353 165.298 128.266C164.217 128.179 163.315 128.301 163.217 128.052C163.177 127.936 163.373 127.739 163.761 127.571C164.275 127.368 164.829 127.289 165.379 127.34C165.933 127.382 166.468 127.557 166.94 127.849C167.293 128.081 167.437 128.313 167.385 128.417Z" fill="#263238"/>
<path d="M175.491 130.826C175.295 131 174.723 130.664 173.977 130.502C173.231 130.34 172.578 130.369 172.479 130.126C172.433 130.01 172.572 129.824 172.89 129.685C173.304 129.522 173.759 129.492 174.191 129.599C174.627 129.691 175.022 129.92 175.318 130.253C175.532 130.514 175.584 130.74 175.491 130.826Z" fill="#263238"/>
<path d="M156.344 133.068C156.251 133.004 152.569 131.075 151.898 135.101C151.228 139.126 155.402 138.97 155.425 138.854C155.448 138.738 156.344 133.068 156.344 133.068Z" fill="#FFBE9D"/>
<path d="M154.453 137.122C154.453 137.122 154.378 137.163 154.25 137.198C154.072 137.24 153.884 137.213 153.724 137.122C153.49 136.915 153.316 136.649 153.22 136.352C153.125 136.054 153.111 135.736 153.181 135.431C153.227 135.083 153.352 134.75 153.545 134.458C153.6 134.338 153.682 134.233 153.786 134.151C153.89 134.069 154.011 134.014 154.141 133.989C154.225 133.982 154.31 134.004 154.379 134.053C154.449 134.102 154.499 134.173 154.522 134.255C154.557 134.371 154.522 134.452 154.522 134.458C154.522 134.464 154.62 134.406 154.615 134.238C154.608 134.135 154.568 134.037 154.499 133.96C154.452 133.908 154.395 133.866 154.331 133.837C154.268 133.808 154.199 133.793 154.129 133.792C153.959 133.797 153.794 133.845 153.648 133.932C153.502 134.02 153.381 134.143 153.296 134.29C153.067 134.611 152.918 134.982 152.863 135.373C152.753 136.19 153.042 137.018 153.597 137.279C153.7 137.328 153.813 137.354 153.927 137.354C154.041 137.354 154.153 137.328 154.256 137.279C154.43 137.221 154.464 137.134 154.453 137.122Z" fill="#EB996E"/>
<path d="M178.607 129.934C177.249 130.008 175.892 129.757 174.649 129.204C173.406 128.65 172.311 127.808 171.456 126.749C170.299 125.254 169.531 123.302 167.86 122.399C167.284 122.115 166.658 121.949 166.018 121.909C165.378 121.869 164.737 121.957 164.131 122.167C162.925 122.599 161.819 123.273 160.882 124.148C161.414 127.345 159.997 130.519 158.615 133.415C158.496 133.757 158.266 134.049 157.962 134.244C157.419 134.516 156.771 134.087 156.442 133.572C155.98 132.708 155.779 131.728 155.864 130.751C155.876 128.526 156.328 126.325 157.193 124.276C158.072 122.22 159.533 120.468 161.396 119.236C163.786 117.775 166.648 117.299 169.38 117.91C172.097 118.543 174.546 120.016 176.381 122.121C177.276 123.054 177.925 124.194 178.272 125.44" fill="#263238"/>
<path d="M16.812 224.258C16.8373 224.173 16.8722 224.091 16.9161 224.015L17.2398 223.314C17.6385 222.408 17.9614 221.47 18.2053 220.51C18.8412 218.02 19.0609 214.215 18.1186 209.697C17.6116 207.232 16.9434 204.804 16.1183 202.428C15.2684 199.85 14.2856 197.116 13.482 194.157C12.5747 191.07 12.1362 187.864 12.1812 184.646C12.3026 181.281 13.297 177.922 14.3897 174.58C15.4823 171.238 16.6097 167.959 16.945 164.669C17.3239 161.504 16.6903 158.3 15.1354 155.518C13.6843 152.842 11.869 150.56 10.5104 148.191C9.23703 145.997 8.29781 143.625 7.72386 141.154C6.90494 137.57 6.84585 133.855 7.55042 130.247C7.80959 128.929 8.19685 127.639 8.70667 126.396C8.69311 126.484 8.67183 126.571 8.64308 126.656L8.41183 127.392C7.05157 131.84 6.90584 136.572 7.98979 141.096C8.56912 143.539 9.51034 145.882 10.7821 148.046C12.1407 150.363 13.9676 152.68 15.4419 155.362C17.0209 158.198 17.6662 161.461 17.2861 164.687C16.945 168.035 15.8061 171.33 14.7192 174.672C13.6323 178.014 12.6437 181.333 12.5223 184.64C12.472 187.825 12.8988 191 13.7884 194.058C14.5804 197.001 15.5575 199.734 16.39 202.323C17.2082 204.713 17.8667 207.155 18.3614 209.633C19.2806 214.186 19.0147 218.031 18.3614 220.528C18.1066 221.491 17.762 222.427 17.3323 223.325C17.182 223.615 17.0606 223.841 16.9739 224.015C16.9279 224.101 16.8737 224.182 16.812 224.258Z" fill="#263238"/>
<path d="M12.3548 150.525C12.3548 150.525 9.58553 141.663 14.5516 136.474C14.5901 136.432 14.6394 136.402 14.694 136.386C14.7486 136.371 14.8064 136.371 14.861 136.387C14.9155 136.402 14.9646 136.433 15.0029 136.475C15.0412 136.517 15.0671 136.568 15.0777 136.624C15.3437 138.09 15.6732 142.549 12.3548 150.525Z" fill="#B75400"/>
<path d="M14.0138 139.428C14.0046 139.977 13.9406 140.524 13.8231 141.061C13.6438 142.219 13.4299 143.511 13.1929 144.971C12.9559 146.43 12.7535 147.757 12.5743 148.88C12.5275 149.429 12.4288 149.972 12.2794 150.502C12.2327 149.952 12.2502 149.398 12.3315 148.851C12.424 147.838 12.6032 146.448 12.8518 144.918C13.1004 143.389 13.3663 142.022 13.586 141.02C13.6671 140.475 13.8106 139.94 14.0138 139.428Z" fill="#263238"/>
<path d="M15.6035 171.434C15.6035 171.434 17.2974 162.3 24.1078 160.053C24.1615 160.034 24.2193 160.031 24.2748 160.043C24.3303 160.055 24.3813 160.083 24.4221 160.123C24.4629 160.162 24.4919 160.213 24.5058 160.268C24.5197 160.323 24.518 160.381 24.5009 160.435C24.0615 161.837 22.2635 165.938 15.6035 171.434Z" fill="#B75400"/>
<path d="M22.2529 162.399C21.9885 162.881 21.6767 163.335 21.3221 163.754C20.6399 164.669 19.8306 165.735 18.9402 166.917L16.5468 170.085C16.248 170.546 15.9074 170.978 15.5293 171.376C15.7443 170.867 16.0178 170.385 16.3445 169.94C16.9226 169.089 17.7031 167.942 18.657 166.708C19.6109 165.474 20.4723 164.391 21.1256 163.604C21.4537 163.16 21.832 162.755 22.2529 162.399Z" fill="#263238"/>
<path d="M13.7658 194.342C13.7658 194.342 12.7367 185.11 18.5989 180.962C18.6451 180.929 18.6996 180.909 18.7564 180.905C18.8132 180.901 18.8699 180.913 18.9204 180.939C18.9708 180.966 19.0129 181.006 19.0419 181.055C19.0709 181.104 19.0856 181.16 19.0845 181.217C19.0672 182.7 18.5411 187.143 13.7658 194.342Z" fill="#B75400"/>
<path d="M17.5055 183.76C17.3955 184.299 17.2289 184.825 17.0083 185.33C16.6152 186.401 16.1584 187.646 15.6439 189.048L14.2969 192.767C14.1536 193.295 13.96 193.809 13.7188 194.301C13.7799 193.753 13.9021 193.213 14.083 192.691C14.3663 191.712 14.8056 190.374 15.3433 188.926C15.8809 187.478 16.407 186.175 16.8059 185.243C16.9824 184.723 17.217 184.226 17.5055 183.76Z" fill="#263238"/>
<path d="M18.8931 217.394C18.8931 217.394 18.1936 208.127 24.2003 204.2C24.2473 204.168 24.3023 204.149 24.3593 204.146C24.4162 204.143 24.4728 204.157 24.5226 204.184C24.5725 204.212 24.6136 204.253 24.6415 204.303C24.6693 204.353 24.6827 204.409 24.6802 204.466C24.605 205.943 23.9228 210.363 18.8931 217.394Z" fill="#B75400"/>
<path d="M23.0094 206.969C22.8706 207.505 22.6769 208.025 22.4312 208.521C21.9976 209.575 21.4947 210.838 20.9339 212.181L19.4481 215.854C19.2966 216.365 19.0992 216.861 18.8584 217.336C18.9361 216.791 19.0778 216.256 19.2804 215.744C19.5926 214.776 20.084 213.462 20.6737 212.031C21.2634 210.6 21.83 209.314 22.2636 208.399C22.4589 207.896 22.7091 207.417 23.0094 206.969Z" fill="#263238"/>
<path d="M8.37737 142.741C8.37737 142.741 0.162176 138.443 0.000299761 131.255C-0.00222053 131.198 0.0111914 131.141 0.0390285 131.092C0.0668655 131.042 0.108023 131.001 0.157877 130.973C0.20773 130.945 0.264301 130.932 0.321231 130.935C0.378162 130.938 0.433195 130.956 0.480145 130.989C1.69999 131.834 5.08204 134.748 8.37737 142.741Z" fill="#B75400"/>
<path d="M1.70605 133.722C2.09006 134.115 2.43295 134.546 2.72934 135.008L5.04185 138.217L7.35436 141.42C7.70665 141.841 8.02012 142.292 8.29093 142.77C7.8562 142.421 7.46765 142.018 7.13467 141.571C6.48139 140.795 5.61998 139.682 4.7181 138.426C3.81622 137.169 3.02996 136.004 2.48074 135.147C2.16911 134.703 1.90919 134.225 1.70605 133.722Z" fill="#263238"/>
<path d="M17.2 161.791C17.2 161.791 8.74201 158.003 8.14076 150.838C8.13596 150.782 8.14677 150.725 8.17198 150.675C8.19719 150.624 8.23584 150.581 8.28366 150.552C8.33148 150.522 8.38662 150.505 8.44301 150.505C8.49941 150.504 8.55485 150.519 8.60326 150.548C9.87514 151.296 13.4306 154 17.2 161.791Z" fill="#B75400"/>
<path d="M9.99609 153.184C10.402 153.553 10.77 153.963 11.0945 154.406L13.6036 157.47L16.1185 160.522C16.4938 160.912 16.8307 161.336 17.1244 161.791C16.6836 161.451 16.2821 161.062 15.9277 160.632C15.2281 159.891 14.3031 158.837 13.3261 157.638C12.3491 156.439 11.4934 155.321 10.898 154.504C10.5485 154.1 10.2459 153.657 9.99609 153.184Z" fill="#263238"/>
<path d="M12.332 183.013C12.332 183.013 6.52177 175.773 9.25053 169.112C9.27128 169.059 9.30615 169.013 9.35129 168.979C9.39643 168.945 9.45008 168.924 9.50631 168.919C9.56255 168.914 9.61917 168.924 9.66994 168.949C9.7207 168.974 9.76363 169.012 9.79397 169.06C10.5744 170.34 12.4996 174.365 12.332 183.013Z" fill="#B75400"/>
<path d="M9.82272 172.072C10.0172 172.585 10.1586 173.116 10.2448 173.659C10.4876 174.776 10.7708 176.085 11.0888 177.533C11.4068 178.981 11.6669 180.285 11.9387 181.397C12.0933 181.925 12.1998 182.466 12.2566 183.013C11.9999 182.522 11.8057 182 11.6785 181.46C11.3894 180.482 11.0484 179.144 10.7246 177.603C10.4008 176.062 10.1465 174.707 9.9846 173.711C9.87097 173.172 9.81668 172.622 9.82272 172.072Z" fill="#263238"/>
<path d="M18.0898 208C18.0898 208 9.68956 204.073 9.2155 196.891C9.21185 196.835 9.2235 196.779 9.24918 196.729C9.27486 196.68 9.3136 196.638 9.36121 196.609C9.40882 196.579 9.4635 196.564 9.51933 196.563C9.57516 196.563 9.63003 196.578 9.678 196.607C10.9383 197.4 14.4475 200.163 18.0898 208Z" fill="#B75400"/>
<path d="M11.0254 199.283C11.4268 199.658 11.789 200.073 12.1065 200.522C12.8118 201.42 13.6443 202.468 14.5635 203.627L17.0264 206.725C17.3967 207.131 17.7295 207.569 18.0207 208.034C17.5906 207.696 17.2024 207.307 16.8645 206.876C16.1823 206.129 15.2746 205.057 14.3207 203.841C13.3668 202.625 12.4996 201.501 11.9215 200.673C11.574 200.243 11.2736 199.777 11.0254 199.283Z" fill="#263238"/>
<path d="M34.8156 171.481C34.8237 171.55 34.8237 171.62 34.8156 171.689C34.8156 171.852 34.8156 172.043 34.8156 172.269C34.8156 172.848 34.7578 173.583 34.7173 174.522C34.6075 176.503 34.4571 179.26 34.2779 182.567C33.6998 185.926 31.9654 189.65 29.6529 193.265C27.9705 195.929 26.1841 198.356 24.6868 200.609C23.3025 202.576 22.0565 204.637 20.9579 206.778C20.2395 208.23 19.6589 209.746 19.2235 211.307C19.0732 211.857 18.9633 212.292 18.8997 212.587C18.8742 212.739 18.8335 212.889 18.7783 213.033C18.7802 212.879 18.7976 212.726 18.8303 212.575C18.8708 212.274 18.9633 211.834 19.0905 211.272C19.4828 209.675 20.0369 208.123 20.744 206.639C21.8185 204.472 23.0493 202.387 24.4266 200.401C25.9355 198.13 27.693 195.703 29.3696 193.056C31.6821 189.454 33.3471 185.787 33.9946 182.48C34.2259 179.184 34.4167 176.427 34.5728 174.446C34.6479 173.508 34.7115 172.755 34.752 172.199C34.752 171.967 34.7982 171.77 34.8156 171.62C34.8106 171.574 34.8106 171.527 34.8156 171.481Z" fill="#263238"/>
<path d="M29.8436 192.604C29.8436 192.604 33.3991 184.026 28.9244 178.408C28.8897 178.363 28.8432 178.328 28.79 178.308C28.7369 178.288 28.6792 178.283 28.6234 178.294C28.5677 178.305 28.516 178.331 28.4742 178.37C28.4324 178.408 28.4021 178.458 28.3867 178.512C27.9647 179.949 27.2305 184.38 29.8436 192.604Z" fill="#B75400"/>
<path d="M29.1663 181.403C29.3196 181.931 29.4146 182.475 29.4496 183.024C29.5768 184.032 29.7156 185.428 29.8254 186.975C29.9352 188.521 29.9873 189.923 29.9873 190.936C30.0229 191.487 29.9899 192.039 29.889 192.581C29.7885 192.043 29.7401 191.496 29.7445 190.948C29.6693 189.79 29.5768 188.475 29.4785 186.998C29.3802 185.521 29.282 184.183 29.2068 183.048C29.1394 182.502 29.1258 181.951 29.1663 181.403Z" fill="#263238"/>
<g opacity="0.3">
<path opacity="0.3" d="M29.8436 192.604C29.8436 192.604 33.3991 184.026 28.9244 178.408C28.8897 178.363 28.8432 178.328 28.79 178.308C28.7369 178.288 28.6792 178.283 28.6234 178.294C28.5677 178.305 28.516 178.331 28.4742 178.37C28.4324 178.408 28.4021 178.458 28.3867 178.512C27.9647 179.949 27.2305 184.38 29.8436 192.604Z" fill="black"/>
</g>
<path d="M18.8007 213.27C18.8007 213.27 21.6509 204.438 16.7368 199.202C16.6987 199.16 16.6499 199.13 16.5957 199.114C16.5414 199.098 16.4839 199.098 16.4295 199.113C16.3751 199.128 16.3259 199.157 16.2873 199.199C16.2487 199.24 16.2222 199.291 16.2107 199.346C15.9274 200.806 15.5574 205.26 18.8007 213.27Z" fill="#B75400"/>
<path d="M17.2461 202.156C17.4425 202.671 17.5802 203.207 17.6566 203.754C17.8647 204.745 18.1191 206.123 18.3561 207.658C18.5931 209.193 18.755 210.583 18.8359 211.597C18.9145 212.143 18.9262 212.698 18.8706 213.247C18.7298 212.716 18.637 212.173 18.5931 211.626C18.4255 210.467 18.2289 209.175 18.015 207.71C17.8011 206.245 17.593 204.924 17.4369 203.795C17.3197 203.256 17.2557 202.707 17.2461 202.156Z" fill="#263238"/>
<g opacity="0.3">
<path opacity="0.3" d="M18.8007 213.27C18.8007 213.27 21.6509 204.438 16.7368 199.202C16.6987 199.16 16.6499 199.13 16.5957 199.114C16.5414 199.098 16.4839 199.098 16.4295 199.113C16.3751 199.128 16.3259 199.157 16.2873 199.199C16.2487 199.24 16.2222 199.291 16.2107 199.346C15.9274 200.806 15.5574 205.26 18.8007 213.27Z" fill="black"/>
</g>
<path d="M34.3408 182.127C34.3408 182.127 41.9374 176.798 41.1685 169.651C41.1636 169.594 41.143 169.54 41.1091 169.494C41.0752 169.448 41.0293 169.413 40.9765 169.392C40.9237 169.371 40.8662 169.365 40.8102 169.375C40.7543 169.385 40.7022 169.41 40.6598 169.448C39.5613 170.479 36.5782 173.774 34.3408 182.127Z" fill="#B75400"/>
<g opacity="0.3">
<path opacity="0.3" d="M34.3408 182.127C34.3408 182.127 41.9374 176.798 41.1685 169.651C41.1636 169.594 41.143 169.54 41.1091 169.494C41.0752 169.448 41.0293 169.413 40.9765 169.392C40.9237 169.371 40.8662 169.365 40.8102 169.375C40.7543 169.385 40.7022 169.41 40.6598 169.448C39.5613 170.479 36.5782 173.774 34.3408 182.127Z" fill="black"/>
</g>
<path d="M39.7984 172.321C39.6449 172.848 39.4336 173.357 39.1682 173.838C38.7346 174.759 38.1045 176.01 37.3702 177.377C36.636 178.744 35.9307 179.954 35.3815 180.812C35.1189 181.296 34.7943 181.744 34.416 182.144C34.6246 181.636 34.878 181.147 35.1734 180.684L37.0638 177.209L38.9485 173.734C39.1825 173.235 39.4673 172.761 39.7984 172.321Z" fill="#263238"/>
<path d="M21.8594 204.513C21.8594 204.513 30.9996 203.082 33.474 196.329C33.4944 196.275 33.4996 196.217 33.4891 196.161C33.4785 196.105 33.4526 196.053 33.4141 196.011C33.3757 195.969 33.3263 195.939 33.2715 195.923C33.2167 195.907 33.1587 195.908 33.104 195.923C31.676 196.329 27.5308 198.003 21.8594 204.513Z" fill="#B75400"/>
<g opacity="0.3">
<path opacity="0.3" d="M21.8594 204.513C21.8594 204.513 30.9996 203.082 33.474 196.329C33.4944 196.275 33.4996 196.217 33.4891 196.161C33.4785 196.105 33.4526 196.053 33.4141 196.011C33.3757 195.969 33.3263 195.939 33.2715 195.923C33.2167 195.907 33.1587 195.908 33.104 195.923C31.676 196.329 27.5308 198.003 21.8594 204.513Z" fill="black"/>
</g>
<path d="M31.0689 198.118C30.6996 198.522 30.2888 198.885 29.8433 199.202C29.0512 199.839 27.9355 200.684 26.6751 201.582C25.4148 202.48 24.247 203.262 23.3856 203.795C22.9327 204.109 22.4435 204.368 21.9287 204.565C22.3375 204.199 22.7787 203.872 23.2468 203.586L26.4786 201.304L29.6987 198.987C30.1242 198.651 30.5834 198.36 31.0689 198.118Z" fill="#263238"/>
<path d="M13.1241 221.402L10.4531 239.416H27.1032L24.941 221.402H13.1241Z" fill="#455A64"/>
<path d="M25.6115 226.98C25.6115 227.079 22.6053 227.154 18.8937 227.154C15.1821 227.154 12.1816 227.079 12.1816 226.98C14.4146 226.809 16.6549 226.751 18.8937 226.806C21.1345 226.751 23.3766 226.809 25.6115 226.98Z" fill="#263238"/>
<path d="M25.9405 228.399C25.9405 228.492 22.8359 228.573 19.003 228.573C15.17 228.573 12.0654 228.492 12.0654 228.399C12.0654 228.307 15.17 228.225 19.003 228.225C22.8359 228.225 25.9405 228.318 25.9405 228.399Z" fill="#263238"/>
</svg>
