<svg width="384" height="240" viewBox="0 0 384 240" fill="none" xmlns="http://www.w3.org/2000/svg">
  <path d="M86.81 211.557H266.344C278.19 204.772 288.853 196.105 297.913 185.893C327.038 153.021 337.743 97.4411 322.79 56.2226L321.413 53.2551C310.346 29.3999 287.139 12.9091 260.632 10.9747C256.904 10.7001 253.16 10.7155 249.434 11.0206C224.586 13.0698 201.299 28.2863 189.738 50.0522C182.937 62.8407 179.59 78.1262 168.501 87.5799C154.093 99.8805 132.494 97.6477 113.615 94.7318C94.7368 91.8159 73.1202 89.6348 58.7704 101.999C49.7816 109.742 45.7292 121.83 44.9257 133.568C42.8076 164.26 60.9573 194.205 86.81 211.557Z" fill="#E0E0E0"/>
  <path d="M326.613 161.533C324.266 160.057 321.611 159.14 318.853 158.853C317.585 158.726 316.196 158.761 315.174 159.53C315.058 159.599 314.961 159.697 314.895 159.815C314.828 159.933 314.794 160.066 314.795 160.201C314.858 160.392 314.986 160.554 315.157 160.661C316.808 161.84 318.751 162.545 320.775 162.699C322.798 162.852 324.826 162.449 326.636 161.533" fill="#B75400"/>
  <path d="M326.412 161.309C324.611 159.987 322.93 158.508 321.39 156.89C319.843 155.263 318.757 153.254 318.244 151.069C318.142 150.745 318.111 150.403 318.153 150.066C318.196 149.729 318.311 149.406 318.491 149.118C322.509 152.246 325.637 156.293 326.412 161.309Z" fill="#B75400"/>
  <path d="M326.573 161.499C326.198 159.315 326.23 157.081 326.665 154.909C327.111 152.719 328.365 150.776 330.178 149.468C330.866 151.081 330.574 152.946 330.086 154.634C329.331 157.252 328.154 159.73 326.602 161.969" fill="#B75400"/>
  <path d="M330.499 168.559C328.111 168.852 326.039 170.109 324.26 171.716C322.472 173.343 321.227 175.482 320.695 177.84C323.031 177.697 325.012 176.049 326.435 174.201C327.859 172.353 328.869 170.327 330.453 168.599" fill="#B75400"/>
  <path d="M331.349 169.655C330.412 167.274 330.084 164.698 330.393 162.158C330.703 159.618 331.641 157.196 333.122 155.11C334.483 159.938 333.984 165.39 331.349 169.655Z" fill="#B75400"/>
  <path d="M336.532 175.831C334.355 175.698 332.187 176.208 330.297 177.297C328.407 178.386 326.878 180.006 325.902 181.956C325.816 182.076 325.764 182.216 325.751 182.362C325.738 182.508 325.764 182.655 325.827 182.788C325.919 182.877 326.032 182.942 326.155 182.978C326.278 183.014 326.407 183.02 326.533 182.995C328.628 182.857 330.488 181.6 332.02 180.165C333.553 178.73 334.89 177.065 336.584 175.826" fill="#B75400"/>
  <path d="M336.371 175.498C335.252 171.904 335.183 168.065 336.17 164.432C336.561 163.008 337.215 161.51 338.529 160.839C338.637 160.771 338.767 160.748 338.891 160.776C338.997 160.833 339.079 160.926 339.121 161.04C339.571 162.034 339.768 163.125 339.695 164.214C339.619 165.297 339.454 166.372 339.201 167.428C338.782 169.391 338.564 171.503 337.479 173.197C337.225 173.605 336.997 174.029 336.796 174.465C336.589 174.896 336.589 175.039 336.406 175.389" fill="#B75400"/>
  <path d="M350.096 177.542C349.08 173.673 350.159 168.984 352.598 165.809C352.776 165.58 353.011 165.327 353.304 165.356C353.758 165.396 353.878 165.993 353.878 166.447C353.695 170.424 352.394 174.27 350.124 177.542" fill="#B75400"/>
  <path d="M351.335 178.386C353.737 178.948 356.233 178.982 358.65 178.487C361.067 177.991 363.347 176.978 365.335 175.516C362.99 174.34 360.311 174.011 357.752 174.586C355.221 175.16 352.908 176.308 351.335 178.363" fill="#B75400"/>
  <path d="M352.374 175.808C355.009 171.521 360.054 168.72 365.082 168.461C364.508 170.51 362.821 172.1 360.927 173.053C358.986 173.937 356.933 174.55 354.825 174.873C354.016 175.028 352.902 175.2 352.374 175.837" fill="#B75400"/>
  <path d="M350.359 163.313C351.157 160.888 351.702 158.387 351.983 155.851C352.262 153.301 351.743 150.728 350.497 148.486C348.04 153.245 347.793 158.818 350.284 163.548" fill="#B75400"/>
  <path d="M358.636 159.128C361.506 153.905 367.378 149.732 373.313 149.146C371.017 154.846 364.777 159.254 358.636 159.128Z" fill="#B75400"/>
  <path d="M356.822 160.156C361.116 160.804 364.766 163.548 368.773 165.207C369.613 165.612 370.545 165.79 371.476 165.723C371.909 165.719 372.331 165.581 372.683 165.329C373.035 165.077 373.301 164.722 373.445 164.314C373.589 163.905 373.604 163.462 373.488 163.045C373.372 162.628 373.131 162.256 372.796 161.981C372.23 161.457 371.565 161.053 370.839 160.793C366.471 158.973 361.793 158.927 357.195 160.029" fill="#B75400"/>
  <path d="M354.343 163.163C355.313 163.439 355.646 163.944 356.415 164.598C359.037 166.828 362.139 168.421 365.478 169.253C365.823 169.339 366.276 169.368 366.448 169.058C366.62 168.748 366.408 168.456 366.213 168.209C364.755 166.504 362.866 165.221 360.743 164.495C358.653 163.72 356.84 162.773 354.343 162.98" fill="#B75400"/>
  <path d="M351.57 145.025C353.329 146.646 355.407 147.882 357.672 148.652C359.937 149.422 362.337 149.71 364.72 149.497C364.931 149.496 365.134 149.421 365.294 149.284C365.627 148.923 365.225 148.366 364.841 148.067C360.978 145.054 356.294 143.803 351.547 145.025" fill="#B75400"/>
  <path d="M354.865 143.78C357.192 142.068 359.892 140.93 362.743 140.461C365.594 139.991 368.516 140.202 371.269 141.076C369.124 143.069 366.37 144.282 363.452 144.52C360.561 144.783 357.647 144.537 354.842 143.791" fill="#B75400"/>
  <path d="M353.545 135.434C353.166 131.577 353.413 128.546 353.143 124.654C353.143 124.344 353.057 123.971 352.764 123.862C352.363 123.707 352.024 124.201 351.892 124.614C351.332 126.41 351.189 128.311 351.474 130.171C351.76 132.031 352.466 133.802 353.539 135.348" fill="#B75400"/>
  <path d="M353.292 135.841C355.812 134.215 357.984 132.104 359.681 129.631C360.943 127.909 361.977 125.837 361.718 123.719C360.832 123.745 359.962 123.965 359.17 124.361C358.377 124.758 357.679 125.322 357.126 126.014C356.025 127.409 355.225 129.018 354.779 130.738C354.268 132.46 353.906 134.182 353.309 135.847" fill="#B75400"/>
  <path d="M359.543 134.119C365.296 131.989 370.622 128.847 375.271 124.844C373.394 124.086 371.253 124.539 369.364 125.297C365.101 126.913 361.578 130.035 359.463 134.073" fill="#B75400"/>
  <path d="M355.015 137.971C357.909 138.382 360.846 138.397 363.745 138.017C366.581 137.54 369.255 136.421 371.902 135.307C372.141 135.247 372.347 135.094 372.476 134.883C372.517 134.761 372.521 134.629 372.486 134.505C372.451 134.381 372.379 134.271 372.28 134.188C372.076 134.028 371.839 133.916 371.586 133.861C368.716 133.057 365.605 133.436 362.775 134.389C360.07 135.309 357.469 136.509 355.015 137.971Z" fill="#B75400"/>
  <path d="M338.455 145.128C336.475 141.11 336.601 136.467 338.311 132.346C339.517 134.177 339.666 136.519 339.459 138.7C339.253 140.881 338.575 143.131 338.535 145.329" fill="#B75400"/>
  <path d="M330.539 141.139C328.059 141.105 325.6 141.589 323.319 142.56C321.037 143.532 318.984 144.97 317.291 146.782C319.79 147.083 322.321 146.614 324.546 145.438C326.754 144.266 328.837 142.871 330.763 141.277" fill="#B75400"/>
  <path d="M325.224 139.36C322.802 139.165 320.477 138.86 318.147 139.578C316.971 139.91 315.88 140.492 314.95 141.285C314.02 142.077 313.271 143.061 312.757 144.17C315.039 144.354 317.329 143.922 319.386 142.919C321.433 141.915 323.386 140.732 325.224 139.383" fill="#B75400"/>
  <path d="M333.099 139.44C330.924 138.011 328.685 136.57 326.154 135.996C323.623 135.422 320.684 135.841 318.916 137.718C320.965 138.924 323.456 139.067 325.804 139.067C328.152 139.067 331.102 139.038 333.34 139.83" fill="#B75400"/>
  <path d="M333.11 139.555C329.391 135.899 327.979 129.338 329.477 124.344C332.414 128.84 333.698 134.217 333.11 139.555Z" fill="#B75400"/>
  <path d="M343.345 129.2C344.045 127.57 344.539 125.86 345.164 124.201C345.743 122.523 346.627 120.966 347.77 119.609C348.929 118.242 350.578 117.384 352.362 117.221C351.791 119.742 350.701 122.117 349.16 124.192C347.619 126.268 345.662 127.999 343.414 129.275" fill="#B75400"/>
  <path d="M341.491 131.358C340.343 129.763 338.989 127.593 337.416 126.399C335.843 125.205 333.788 124.482 331.865 124.941C332.86 126.686 334.248 128.174 335.919 129.288C337.59 130.402 339.498 131.111 341.491 131.358Z" fill="#B75400"/>
  <path d="M341.864 129.338C341.027 127.432 340.411 125.437 340.027 123.391C339.644 121.329 339.972 119.199 340.957 117.347C343 121.21 343.655 125.383 341.967 129.401" fill="#B75400"/>
  <path d="M343.362 117.347C344.51 113.519 348.023 110.7 351.806 109.409C352.275 109.218 352.782 109.142 353.287 109.185C353.538 109.213 353.776 109.314 353.97 109.477C354.164 109.639 354.305 109.855 354.377 110.098C354.515 110.746 353.981 111.332 353.47 111.762C350.513 114.288 347.075 116.188 343.362 117.347Z" fill="#B75400"/>
  <path d="M343.402 114.219C343.551 111.751 343.706 109.248 344.504 106.906C345.302 104.564 346.857 102.377 349.096 101.356C349.48 103.847 348.378 106.326 347.052 108.467C345.727 110.608 344.125 112.64 343.333 115.028" fill="#B75400"/>
  <path d="M343.345 115.918C342.386 113.128 342.288 109.604 340.618 107.153C339.47 105.431 337.582 104.283 336.6 102.498C335.996 104.225 336.081 106.118 336.835 107.784C337.597 109.429 338.644 110.926 339.929 112.204C341.163 113.524 342.225 114.5 343.373 115.918" fill="#B75400"/>
  <path d="M343.363 198.056C343.288 198.056 343.225 179.453 343.219 156.505C343.213 133.557 343.271 114.942 343.345 114.942C343.42 114.942 343.483 133.545 343.489 156.505C343.495 179.465 343.437 198.056 343.363 198.056Z" fill="#263238"/>
  <path d="M359.606 142.322C359.381 142.43 359.146 142.518 358.906 142.586L356.977 143.234C355.358 143.808 353.126 144.589 350.703 145.576C348.281 146.563 346.048 147.442 344.763 148.555C344.249 148.985 343.84 149.527 343.569 150.139C343.385 150.576 343.351 150.84 343.328 150.834C343.305 150.828 343.328 150.771 343.328 150.639C343.356 150.455 343.403 150.274 343.465 150.099C343.703 149.452 344.097 148.874 344.613 148.417C345.389 147.758 346.257 147.217 347.191 146.81C348.224 146.334 349.366 145.829 350.583 145.329C353.011 144.336 355.255 143.561 356.897 143.033C357.718 142.781 358.389 142.591 358.854 142.459C359.1 142.39 359.352 142.344 359.606 142.322Z" fill="#263238"/>
  <path d="M364.95 129.229C364.896 129.307 364.83 129.377 364.755 129.436L364.181 130.01L361.954 132.036L354.532 138.642C351.663 141.22 349.137 143.682 347.403 145.53C346.531 146.46 345.848 147.224 345.383 147.757L344.843 148.377C344.784 148.452 344.717 148.519 344.643 148.578C344.643 148.578 344.689 148.492 344.803 148.343C344.918 148.194 345.079 147.97 345.303 147.694C345.745 147.12 346.41 146.345 347.26 145.398C349.501 142.953 351.869 140.627 354.355 138.43C357.259 135.859 359.905 133.545 361.816 131.881L364.112 129.918C364.365 129.711 364.577 129.539 364.744 129.395C364.807 129.333 364.876 129.277 364.95 129.229Z" fill="#263238"/>
  <path d="M351.386 141.248C351.306 141.22 351.914 139.819 352.534 138.051C353.154 136.283 353.429 134.797 353.504 134.808C353.439 135.948 353.197 137.071 352.787 138.137C352.528 138.9 352.227 139.647 351.885 140.376C351.76 140.688 351.592 140.982 351.386 141.248Z" fill="#263238"/>
  <path d="M343.379 152.516C343.213 152.357 343.063 152.182 342.932 151.993L341.784 150.53C340.825 149.29 339.488 147.574 338.007 145.697C336.526 143.82 335.137 142.144 334.161 140.927L333.013 139.48C332.862 139.302 332.728 139.11 332.611 138.906C332.789 139.05 332.95 139.211 333.093 139.389C333.392 139.71 333.811 140.186 334.328 140.778C335.355 141.966 336.75 143.648 338.242 145.507C339.735 147.367 341.038 149.123 341.956 150.392C342.421 151.029 342.788 151.54 343.035 151.913C343.169 152.102 343.285 152.304 343.379 152.516Z" fill="#263238"/>
  <path d="M339.814 147.935C339.092 147.141 338.578 146.181 338.316 145.14C338.039 144.228 337.924 143.274 337.978 142.322H338.098C338.047 142.534 338.006 142.649 337.983 142.643C337.96 142.637 337.983 142.523 337.983 142.299H338.098C338.16 143.228 338.319 144.147 338.575 145.042C338.913 146.037 339.327 147.004 339.814 147.935Z" fill="#263238"/>
  <path d="M335.212 142.155C334.888 141.915 334.537 141.712 334.167 141.553C333.237 141.277 332.259 141.199 331.297 141.323C330.314 141.398 329.338 141.556 328.381 141.794C327.988 141.915 327.587 142.011 327.182 142.081C327.537 141.864 327.925 141.706 328.33 141.61C329.286 141.308 330.274 141.116 331.274 141.036C332.281 140.902 333.304 141.012 334.259 141.357C334.659 141.505 334.996 141.787 335.212 142.155Z" fill="#263238"/>
  <path d="M334.121 140.743C334.121 140.783 333.513 140.502 332.52 140.169C329.937 139.285 327.171 139.074 324.484 139.555C323.451 139.739 322.831 139.928 322.813 139.888C322.945 139.806 323.088 139.744 323.238 139.704C323.633 139.568 324.035 139.454 324.444 139.366C327.165 138.772 330 138.988 332.6 139.985C332.993 140.135 333.377 140.31 333.748 140.508C333.883 140.567 334.009 140.647 334.121 140.743Z" fill="#263238"/>
  <path d="M343.345 134.808C342.873 133.486 342.49 132.134 342.197 130.761C341.805 129.411 341.502 128.036 341.29 126.646C341.758 127.971 342.142 129.325 342.438 130.698C342.826 132.048 343.129 133.42 343.345 134.808Z" fill="#263238"/>
  <path d="M343.42 134.808C343.044 133.973 342.612 133.163 342.128 132.386C341.579 131.654 340.938 130.994 340.223 130.423C340.494 130.49 340.745 130.62 340.957 130.802C341.498 131.196 341.968 131.679 342.346 132.231C342.922 132.982 343.292 133.87 343.42 134.808Z" fill="#263238"/>
  <path d="M343.362 188.138C343.333 188.138 343.276 187.69 343.069 186.904C342.762 185.79 342.345 184.709 341.824 183.678C340.032 180.311 337.815 177.188 335.229 174.385C333.753 172.703 332.324 171.113 331.113 169.598C330.024 168.26 329.04 166.839 328.168 165.35C327.587 164.345 327.089 163.293 326.682 162.205C326.55 161.814 326.446 161.51 326.395 161.304C326.358 161.199 326.331 161.092 326.314 160.982C326.314 160.982 326.475 161.407 326.779 162.165C327.222 163.232 327.742 164.266 328.335 165.258C329.224 166.722 330.216 168.12 331.302 169.443C332.525 170.947 333.954 172.525 335.429 174.207C338.408 177.553 340.745 180.928 341.996 183.598C342.497 184.645 342.882 185.744 343.144 186.875C343.217 187.184 343.272 187.496 343.31 187.811C343.338 187.918 343.355 188.027 343.362 188.138Z" fill="#263238"/>
  <path d="M358.056 171.544C357.815 171.709 357.566 171.863 357.31 172.003C356.614 172.396 355.946 172.837 355.312 173.323C354.377 174.051 353.499 174.851 352.689 175.717C351.765 176.692 350.818 177.817 349.848 179.028C347.914 181.456 346.106 183.62 345.021 185.342C344.447 186.198 344.068 186.915 343.81 187.415C343.686 187.682 343.544 187.941 343.385 188.189C343.385 188.189 343.385 188.115 343.454 187.971C343.523 187.828 343.591 187.627 343.712 187.369C344.051 186.638 344.435 185.929 344.86 185.245C346.329 183.034 347.925 180.91 349.641 178.885C350.611 177.674 351.57 176.537 352.511 175.567C353.341 174.703 354.241 173.91 355.203 173.197C355.853 172.718 356.543 172.296 357.264 171.934C357.522 171.808 357.729 171.727 357.838 171.67C357.947 171.612 358.05 171.532 358.056 171.544Z" fill="#263238"/>
  <path d="M358.343 176.928C357.814 177.048 357.277 177.128 356.736 177.169C355.43 177.305 354.139 177.561 352.879 177.932C351.635 178.335 350.47 178.948 349.435 179.746C348.637 180.36 348.258 180.894 348.224 180.837C348.283 180.7 348.364 180.574 348.465 180.463C348.717 180.146 349.001 179.855 349.314 179.597C350.343 178.737 351.528 178.084 352.804 177.674C354.082 177.291 355.399 177.058 356.73 176.979C357.265 176.913 357.805 176.896 358.343 176.928Z" fill="#263238"/>
  <path d="M348.666 180.24C348.58 180.194 349.315 179.092 349.883 177.565C350.451 176.038 350.543 174.695 350.635 174.729C350.684 175.018 350.684 175.313 350.635 175.602C350.551 176.302 350.391 176.991 350.158 177.657C349.91 178.318 349.592 178.951 349.211 179.545C348.901 179.999 348.701 180.263 348.666 180.24Z" fill="#263238"/>
  <path d="M362.815 157.079C362.73 157.131 362.642 157.177 362.551 157.217L361.787 157.561C361.454 157.705 361.047 157.888 360.588 158.135C360.128 158.382 359.594 158.617 359.032 158.956L358.142 159.461C357.838 159.633 357.534 159.846 357.207 160.035C356.552 160.437 355.898 160.925 355.198 161.424C353.707 162.548 352.303 163.782 350.996 165.115C349.71 166.466 348.525 167.908 347.449 169.431C346.972 170.149 346.507 170.82 346.134 171.492C345.945 171.819 345.744 172.135 345.56 172.445C345.377 172.755 345.239 173.065 345.084 173.352C344.768 173.926 344.544 174.465 344.321 174.936C344.097 175.407 343.924 175.814 343.792 176.153C343.66 176.491 343.557 176.727 343.471 176.928C343.439 177.02 343.397 177.109 343.345 177.192C343.358 177.095 343.385 177 343.425 176.91C343.494 176.698 343.586 176.44 343.695 176.113C343.804 175.785 343.97 175.349 344.183 174.873C344.395 174.396 344.608 173.845 344.912 173.266L345.377 172.347C345.537 172.032 345.738 171.716 345.951 171.377C346.324 170.7 346.783 170.017 347.259 169.294C348.328 167.747 349.516 166.287 350.812 164.925C352.131 163.587 353.549 162.349 355.054 161.223C355.766 160.724 356.432 160.242 357.092 159.851C357.425 159.65 357.735 159.444 358.045 159.277C358.355 159.111 358.659 158.944 358.946 158.784C359.52 158.462 360.059 158.21 360.53 158.003C360.928 157.805 361.336 157.629 361.753 157.475L362.539 157.171C362.625 157.125 362.718 157.094 362.815 157.079Z" fill="#263238"/>
  <path d="M351.186 164.88C351.293 164.503 351.516 164.17 351.823 163.927C352.54 163.307 353.452 162.957 354.4 162.939C355.329 162.937 356.249 163.116 357.109 163.468C357.474 163.583 357.82 163.752 358.137 163.967C357.766 163.897 357.402 163.791 357.052 163.651C356.202 163.358 355.31 163.209 354.411 163.209C353.52 163.226 352.657 163.527 351.949 164.07C351.675 164.321 351.42 164.591 351.186 164.88Z" fill="#263238"/>
  <path d="M349.446 166.67C350.226 165.175 350.431 163.445 350.02 161.809C350.176 162.012 350.281 162.251 350.325 162.503C350.48 163.097 350.522 163.714 350.451 164.323C350.378 164.926 350.193 165.51 349.905 166.045C349.67 166.481 349.475 166.693 349.446 166.67Z" fill="#263238"/>
  <path d="M330.511 190.807C330.913 197.919 333.054 205.157 336.348 212.458H350.698C353.844 205.22 355.835 197.999 356.191 190.807H330.511Z" fill="#455A64"/>
  <path d="M353.866 202.31C353.866 202.384 349.142 202.447 343.322 202.447C337.501 202.447 332.783 202.384 332.783 202.31C332.783 202.235 337.501 202.178 343.322 202.178C349.142 202.178 353.866 202.241 353.866 202.31Z" fill="#FAFAFA"/>
  <path d="M353.533 204.887C353.533 204.962 349.108 205.025 343.649 205.025C338.19 205.025 333.771 204.962 333.771 204.887C333.771 204.812 338.196 204.755 343.649 204.755C349.102 204.755 353.533 204.812 353.533 204.887Z" fill="#FAFAFA"/>
  <path d="M290.061 63.1163H86.075C81.4562 63.1163 77.7119 66.8606 77.7119 71.4794V200.708C77.7119 205.327 81.4562 209.071 86.075 209.071H290.061C294.68 209.071 298.424 205.327 298.424 200.708V71.4794C298.424 66.8606 294.68 63.1163 290.061 63.1163Z" fill="#455A64"/>
  <path d="M69.085 199.646H308.211V202.201C308.211 204.91 307.134 207.509 305.218 209.425C303.302 211.341 300.703 212.418 297.994 212.418H79.302C76.5923 212.418 73.9936 211.341 72.0775 209.425C70.1614 207.509 69.085 204.91 69.085 202.201V199.646Z" fill="#455A64"/>
  <path d="M291.881 68.9137H83.6357V192.167H291.881V68.9137Z" fill="#263238"/>
  <path d="M166.313 198.275L169.275 202.999H211.033L213.788 198.275H166.313Z" fill="#263238"/>
  <path d="M286.146 73.0865H89.8057C88.7691 73.0865 87.9287 73.9269 87.9287 74.9635V189.9C87.9287 190.937 88.7691 191.777 89.8057 191.777H286.146C287.182 191.777 288.023 190.937 288.023 189.9V74.9635C288.023 73.9269 287.182 73.0865 286.146 73.0865Z" fill="#EBEBEB"/>
  <path d="M287.805 191.949H87.7109L87.9291 81.9606H287.805V191.949Z" fill="#FAFAFA"/>
  <path d="M104.34 77.6729C104.341 77.9898 104.248 78.3 104.072 78.5641C103.897 78.8282 103.648 79.0344 103.355 79.1565C103.062 79.2786 102.74 79.3111 102.429 79.25C102.118 79.1888 101.832 79.0368 101.608 78.813C101.383 78.5893 101.23 78.3039 101.168 77.9931C101.106 77.6823 101.137 77.36 101.258 77.0671C101.379 76.7741 101.584 76.5237 101.848 76.3475C102.111 76.1712 102.421 76.0772 102.738 76.0772C102.948 76.0764 103.156 76.1171 103.351 76.197C103.545 76.2768 103.721 76.3942 103.87 76.5425C104.019 76.6907 104.137 76.8669 104.218 77.0609C104.298 77.2549 104.34 77.4628 104.34 77.6729Z" fill="#263238"/>
  <path d="M94.6501 77.6729C94.6513 77.9901 94.5582 78.3005 94.3826 78.5647C94.2071 78.829 93.9571 79.0351 93.6642 79.157C93.3713 79.279 93.0489 79.3111 92.7377 79.2495C92.4265 79.1879 92.1406 79.0353 91.9163 78.811C91.692 78.5867 91.5394 78.3008 91.4778 77.9896C91.4162 77.6784 91.4483 77.356 91.5703 77.0631C91.6922 76.7702 91.8983 76.5202 92.1626 76.3447C92.4268 76.1691 92.7372 76.076 93.0544 76.0772C93.2642 76.0764 93.472 76.1172 93.666 76.1971C93.8599 76.277 94.0361 76.3945 94.1845 76.5428C94.3328 76.6912 94.4503 76.8674 94.5302 77.0613C94.6101 77.2553 94.6509 77.4631 94.6501 77.6729Z" fill="#263238"/>
  <path d="M99.2996 77.6729C99.3007 77.9901 99.2076 78.3005 99.0321 78.5647C98.8565 78.829 98.6065 79.0351 98.3136 79.157C98.0208 79.279 97.6983 79.3111 97.3871 79.2495C97.0759 79.1879 96.79 79.0353 96.5657 78.811C96.3414 78.5867 96.1888 78.3008 96.1272 77.9896C96.0656 77.6784 96.0978 77.356 96.2197 77.0631C96.3416 76.7702 96.5478 76.5202 96.812 76.3447C97.0762 76.1691 97.3866 76.076 97.7039 76.0772C97.9136 76.0764 98.1214 76.1172 98.3154 76.1971C98.5093 76.277 98.6855 76.3945 98.8339 76.5428C98.9822 76.6912 99.0997 76.8674 99.1796 77.0613C99.2596 77.2553 99.3003 77.4631 99.2996 77.6729Z" fill="#263238"/>
  <path d="M296.524 198.275C296.524 198.355 247.539 198.418 187.127 198.418C126.714 198.418 77.7119 198.355 77.7119 198.275C77.7119 198.194 126.691 198.131 187.127 198.131C247.562 198.131 296.524 198.2 296.524 198.275Z" fill="#263238"/>
  <path d="M151.998 124.924L233.408 124.166L235.79 179.505L151.493 178.902L151.998 124.924Z" fill="#B75400"/>
  <path d="M151.998 124.935L190.456 93.6815C191.246 93.0392 192.233 92.6886 193.251 92.6886C194.269 92.6886 195.256 93.0392 196.046 93.6815L233.402 124.172" fill="#B75400"/>
  <g opacity="0.3">
    <path opacity="0.3" d="M151.998 124.935L190.456 93.6815C191.246 93.0392 192.233 92.6886 193.251 92.6886C194.269 92.6886 195.256 93.0392 196.046 93.6815L233.402 124.172" fill="black"/>
  </g>
  <path d="M151.493 178.891C151.396 178.793 157.893 171.664 166.015 162.968C174.137 154.272 180.807 147.321 180.91 147.402C181.014 147.482 174.51 154.622 166.383 163.324C158.255 172.026 151.597 178.994 151.493 178.891Z" fill="#263238"/>
  <path d="M235.79 179.505C235.687 179.603 229.327 172.617 221.584 163.967C213.84 155.317 207.647 148.182 207.75 148.09C207.854 147.999 214.213 154.978 221.962 163.634C229.711 172.29 235.893 179.413 235.79 179.505Z" fill="#263238"/>
  <g opacity="0.5">
    <path opacity="0.5" d="M233.408 124.166L192.597 156.907L151.998 124.924" fill="black"/>
  </g>
  <path d="M156.108 127.943L155.925 102.515L227.209 101.528L228.064 128.276L192.591 156.476L156.108 127.943Z" fill="#FAFAFA"/>
  <path d="M156.108 127.943C156.108 127.943 156.344 128.11 156.786 128.448L158.726 129.946L166.107 135.686C172.467 140.651 181.605 147.74 192.666 156.396H192.517L227.972 128.173L227.921 128.293C227.754 123.191 227.582 117.835 227.41 112.388C227.289 108.72 227.174 105.093 227.06 101.539L227.209 101.683L155.93 102.624L156.022 102.527C156.057 110.522 156.091 116.877 156.108 121.227C156.108 123.403 156.108 125.079 156.108 126.221C156.108 126.795 156.108 127.214 156.108 127.513C156.108 127.811 156.108 127.955 156.108 127.955C156.108 127.955 156.108 127.811 156.108 127.524C156.108 127.237 156.108 126.801 156.108 126.244C156.108 125.096 156.074 123.432 156.051 121.262C156.011 116.894 155.948 110.54 155.873 102.527V102.435H155.965L227.203 101.402H227.352V101.551C227.467 105.104 227.582 108.726 227.703 112.394C227.875 117.841 228.047 123.196 228.208 128.299V128.374L228.15 128.42L192.655 156.603L192.58 156.666L192.505 156.603L165.975 135.784L158.651 130.01L156.74 128.494L156.108 127.943Z" fill="#263238"/>
  <path d="M215.97 114.351C215.97 114.431 205.064 114.586 191.621 114.695C178.178 114.804 167.272 114.827 167.272 114.747C167.272 114.667 178.178 114.512 191.621 114.397C205.064 114.282 215.97 114.265 215.97 114.351Z" fill="#263238"/>
  <path d="M215.981 121.532C215.981 121.612 205.075 121.773 191.638 121.882C178.201 121.991 167.289 122.014 167.289 121.928C167.289 121.842 178.195 121.692 191.638 121.583C205.081 121.474 215.981 121.451 215.981 121.532Z" fill="#263238"/>
  <path d="M215.998 129.809C215.998 129.895 205.093 130.05 191.655 130.159C178.218 130.268 167.307 130.291 167.307 130.205C167.307 130.119 178.213 129.969 191.655 129.86C205.098 129.751 215.998 129.728 215.998 129.809Z" fill="#263238"/>
  <path d="M216.016 138.086C216.016 138.172 205.621 138.321 192.792 138.424C179.963 138.528 169.562 138.551 169.562 138.464C169.562 138.378 179.958 138.229 192.792 138.126C205.627 138.022 216.016 138.005 216.016 138.086Z" fill="#263238"/>
  <path d="M206.924 145.37C206.831 145.396 206.734 145.407 206.637 145.404L205.816 145.439L202.808 145.513L192.873 145.697C188.992 145.766 185.474 145.789 182.931 145.789H179.923H179.102C179.006 145.791 178.91 145.782 178.815 145.76C178.909 145.734 179.006 145.722 179.102 145.726L179.918 145.691L182.931 145.616L192.867 145.439C196.747 145.364 200.26 145.341 202.803 145.341H205.816H206.637C206.733 145.341 206.829 145.351 206.924 145.37Z" fill="#263238"/>
  <path d="M197.74 152.372C196.023 152.527 194.298 152.581 192.574 152.533C190.851 152.587 189.126 152.541 187.408 152.395C189.126 152.244 190.851 152.19 192.574 152.235C194.297 152.184 196.022 152.23 197.74 152.372Z" fill="#263238"/>
  <path d="M383.714 211.924C383.714 212.01 297.879 212.073 192 212.073C86.1211 212.073 0.286133 212.01 0.286133 211.924C0.286133 211.838 86.1039 211.775 192 211.775C297.896 211.775 383.714 211.844 383.714 211.924Z" fill="#263238"/>
  <path d="M111.394 138.803C111.44 138.481 111.364 138.154 111.182 137.886C110.999 137.617 110.722 137.426 110.407 137.351L109.127 137.437L104.535 135.847C104.338 135.795 104.132 135.787 103.932 135.824C103.732 135.861 103.543 135.942 103.378 136.061C103.213 136.18 103.077 136.335 102.979 136.513C102.881 136.692 102.824 136.889 102.813 137.093C102.813 138.407 102.239 141.989 101.2 140.864L101.119 140.789C99.6097 139.107 97.8648 138.292 97.1932 138.39C97.0494 138.418 96.9166 138.487 96.8106 138.588C96.7046 138.689 96.6297 138.819 96.5947 138.961C96.5597 139.103 96.5661 139.253 96.6132 139.391C96.6602 139.53 96.7459 139.653 96.8603 139.744C96.9379 139.826 97.0318 139.891 97.1358 139.934C97.1817 139.934 97.2391 139.991 97.285 140.014C97.9201 140.476 98.5067 141.001 99.0357 141.581C99.5139 142.085 99.9022 142.668 100.184 143.303C100.488 144.015 100.729 144.635 100.918 145.169L100.987 149.376L99.162 169.047C99.162 169.047 87.0507 156.327 87.332 156.207L88.038 176.021L95.3736 182.088C96.7321 183.217 98.3862 183.932 100.139 184.149C101.893 184.366 103.671 184.074 105.263 183.309C106.856 182.545 108.195 181.339 109.122 179.835C110.049 178.331 110.525 176.593 110.493 174.827L110.074 149.393L110.372 146.058L111.394 138.803Z" fill="#FFBE9D"/>
  <path d="M43.3984 166.768L30.1334 197.098L19.6637 218.978L11.8746 221.596C11.8746 221.596 5.70996 223.387 5.70996 224.661C5.70996 225.935 7.33436 225.648 7.33436 225.648C7.63284 227.554 10.2732 226.475 12.1215 225.648C13.9697 224.822 18.0795 224.592 18.0795 224.592C17.8647 224.738 17.687 224.933 17.5606 225.16C17.4342 225.387 17.3626 225.641 17.3514 225.901C17.3403 226.16 17.3899 226.419 17.4964 226.656C17.6029 226.894 17.7632 227.103 17.9647 227.267C18.6191 227.726 19.7556 227.169 20.5247 226.348C21.2939 225.528 23.2799 225.149 25.4898 224.357C27.6996 223.565 28.0613 220.603 28.0613 220.603L54.5855 175.906L43.3984 166.768Z" fill="#FFBE9D"/>
  <path d="M87.3888 177.783L90.7237 182.185L97.9503 166.154C97.9503 166.154 90.9361 157.595 88.3703 154.008C85.8046 150.421 83.9219 149.829 83.9219 149.829C83.9219 149.829 79.261 148.469 76.9364 148.469L65.4221 149.158L53.7298 154.261C50.8581 155.514 48.4116 157.574 46.6869 160.19L35.6777 177.875L51.2674 184.539L56.4965 214.478C57.4952 218.961 58.3734 223.191 62.5119 225.258L91.424 197.471L88.0374 192.133L87.3888 177.783Z" fill="#B75400"/>
  <path d="M59.746 172.301C59.8149 172.347 58.024 175.114 55.7682 178.489C53.5124 181.864 51.6068 184.55 51.5436 184.504C51.4805 184.458 53.2656 181.692 55.5214 178.317C57.7772 174.942 59.6771 172.255 59.746 172.301Z" fill="#263238"/>
  <path d="M83.9855 200.702C83.7423 200.877 83.485 201.03 83.2163 201.162C82.717 201.437 81.9823 201.827 81.0696 202.31C79.2386 203.257 76.7015 204.525 73.8602 205.863C71.019 207.2 68.4245 208.354 66.5303 209.157C65.5833 209.559 64.8084 209.881 64.2803 210.093C64.0074 210.215 63.7253 210.315 63.4365 210.391C63.6899 210.232 63.9569 210.096 64.2344 209.984L66.4442 208.968C68.3155 208.113 70.8984 206.93 73.734 205.593C76.5695 204.255 79.1238 203.016 80.972 202.149L83.1647 201.093C83.4265 200.939 83.7011 200.809 83.9855 200.702Z" fill="#263238"/>
  <path d="M58.8335 165.827C58.4612 165.428 58.1215 165 57.8175 164.547C57.0573 163.491 56.1982 162.511 55.2517 161.619C54.2995 160.741 53.1701 160.078 51.9398 159.673C50.9927 159.375 50.3613 159.386 50.3613 159.329C50.505 159.289 50.6551 159.277 50.8033 159.295C51.2063 159.309 51.6065 159.367 51.9972 159.467C53.2814 159.828 54.4617 160.489 55.4412 161.395C56.4052 162.3 57.257 163.318 57.9782 164.426C58.3093 164.863 58.5958 165.332 58.8335 165.827Z" fill="#263238"/>
  <path d="M82.6077 180.389C82.6222 180.495 82.6222 180.604 82.6077 180.71C82.6077 180.917 82.6077 181.221 82.6077 181.617C82.5402 182.732 82.3848 183.839 82.1427 184.929C81.371 188.554 79.7608 191.948 77.4414 194.838C75.1219 197.729 72.1576 200.036 68.7859 201.575C67.7721 202.037 66.7244 202.421 65.6519 202.723C65.2731 202.838 64.9689 202.901 64.768 202.947C64.6674 202.979 64.5633 202.998 64.458 203.004C64.458 203.004 64.8713 202.861 65.606 202.614C66.6574 202.263 67.6851 201.845 68.6826 201.363C71.9939 199.788 74.9059 197.485 77.2002 194.625C79.4945 191.765 81.1116 188.423 81.9304 184.849C82.1899 183.769 82.3816 182.675 82.5044 181.571C82.556 180.825 82.5847 180.389 82.6077 180.389Z" fill="#263238"/>
  <g opacity="0.3">
    <path opacity="0.3" d="M53.2883 196.11C53.2366 195.823 56.9963 176.388 56.9963 176.388L51.3252 184.9" fill="black"/>
  </g>
  <path d="M86.6489 159.128C86.6756 159.237 86.6891 159.349 86.6891 159.461C86.6891 159.714 86.7236 160.035 86.7523 160.425C86.7924 161.298 86.8556 162.492 86.9302 163.955C87.0737 166.975 87.2746 171.079 87.5042 175.608C87.7338 180.136 87.8945 184.286 87.9806 187.271C88.0265 188.763 88.0552 189.975 88.0667 190.807V191.771C88.0816 191.882 88.0816 191.994 88.0667 192.104C88.0401 191.995 88.0266 191.883 88.0265 191.771C88.0265 191.519 87.9921 191.197 87.9634 190.813C87.9232 189.94 87.8601 188.74 87.7854 187.283C87.642 184.263 87.4411 180.159 87.2115 175.625C86.9819 171.09 86.8269 166.952 86.735 163.961C86.6891 162.469 86.6604 161.263 86.6489 160.425V159.467C86.6339 159.354 86.6339 159.241 86.6489 159.128Z" fill="#263238"/>
  <g opacity="0.2">
    <path opacity="0.2" d="M63.574 210.34C62.6441 209.571 62.8565 207.998 63.6773 207.114C64.4981 206.23 65.7207 205.868 66.8687 205.478C72.3618 203.699 77.8837 201.185 81.5056 196.685C81.9676 196.041 82.514 195.461 83.13 194.963C83.4441 194.714 83.819 194.555 84.2156 194.5C84.6123 194.446 85.0163 194.498 85.3857 194.653C86.4936 195.227 86.5337 196.834 86.0688 197.999C85.4905 199.429 84.4167 200.602 83.0439 201.305" fill="black"/>
  </g>
  <g opacity="0.2">
    <path opacity="0.2" d="M86.7695 162.578L89.9782 181.198L87.4755 177.898L86.7695 162.578Z" fill="black"/>
  </g>
  <path d="M117.294 211.488L111.87 230.097L134.985 236.985C135.507 234.735 124.865 226.75 124.865 226.75L128.86 214.949L117.294 211.488Z" fill="#B75400"/>
  <g opacity="0.6">
    <path opacity="0.6" d="M118.017 223.605C117.775 223.605 117.541 223.695 117.361 223.857C117.181 224.019 117.067 224.242 117.041 224.483C117.035 224.725 117.12 224.961 117.281 225.143C117.443 225.324 117.667 225.437 117.908 225.459C118.165 225.456 118.412 225.358 118.602 225.184C118.791 225.011 118.91 224.773 118.936 224.517C118.918 224.263 118.802 224.026 118.612 223.855C118.423 223.685 118.174 223.595 117.92 223.605" fill="white"/>
  </g>
  <g opacity="0.6">
    <path opacity="0.6" d="M111.87 230.097L112.49 228.243L134.422 235.521C134.422 235.521 135.318 236.273 134.996 236.962L111.87 230.097Z" fill="white"/>
  </g>
  <path d="M125.273 226.722C125.239 226.831 124.659 226.722 123.993 226.917C123.327 227.112 122.897 227.491 122.805 227.422C122.713 227.353 123.075 226.744 123.884 226.521C124.693 226.297 125.331 226.624 125.273 226.722Z" fill="#263238"/>
  <path d="M127.402 228.444C127.402 228.564 126.828 228.61 126.323 228.972C125.818 229.333 125.536 229.81 125.427 229.77C125.318 229.729 125.427 229.069 126.093 228.622C126.759 228.174 127.431 228.335 127.402 228.444Z" fill="#263238"/>
  <path d="M127.919 231.756C127.804 231.756 127.815 231.136 128.292 230.608C128.768 230.079 129.365 229.988 129.382 230.091C129.4 230.194 128.981 230.435 128.596 230.877C128.211 231.319 128.034 231.779 127.919 231.756Z" fill="#263238"/>
  <path d="M125.881 223.938C125.801 224.024 125.307 223.714 124.681 223.57C124.056 223.427 123.47 223.479 123.441 223.364C123.413 223.249 124.015 222.991 124.773 223.169C125.531 223.346 125.99 223.863 125.881 223.938Z" fill="#263238"/>
  <path d="M126.145 221.033C125.738 221.02 125.342 220.9 124.997 220.683C124.6 220.486 124.23 220.239 123.895 219.948C123.69 219.771 123.498 219.579 123.321 219.374C123.214 219.265 123.124 219.139 123.057 219.001C123.007 218.899 122.991 218.782 123.014 218.67C123.037 218.558 123.097 218.456 123.183 218.381C123.264 218.32 123.358 218.278 123.457 218.259C123.557 218.24 123.66 218.244 123.757 218.272C123.905 218.316 124.046 218.38 124.176 218.462C124.404 218.596 124.619 218.75 124.819 218.921C125.159 219.214 125.449 219.559 125.68 219.943C125.931 220.274 126.071 220.675 126.082 221.091C126.019 221.091 125.864 220.677 125.439 220.109C125.194 219.775 124.904 219.476 124.578 219.219C124.389 219.069 124.188 218.934 123.976 218.818C123.752 218.68 123.545 218.617 123.447 218.709C123.35 218.8 123.407 218.755 123.447 218.841C123.498 218.942 123.563 219.035 123.643 219.116C123.803 219.304 123.973 219.482 124.153 219.65C124.46 219.932 124.79 220.188 125.141 220.413C125.738 220.792 126.168 220.97 126.145 221.033Z" fill="#263238"/>
  <path d="M125.951 221.148C125.829 220.754 125.839 220.331 125.979 219.943C126.083 219.507 126.264 219.093 126.513 218.72C126.658 218.497 126.827 218.291 127.018 218.106C127.125 217.971 127.266 217.866 127.426 217.801C127.586 217.737 127.76 217.715 127.931 217.739C128.032 217.773 128.121 217.834 128.189 217.916C128.257 217.999 128.301 218.098 128.315 218.204C128.336 218.356 128.336 218.51 128.315 218.663C128.279 218.933 128.201 219.196 128.086 219.443C127.89 219.856 127.599 220.216 127.236 220.494C126.605 220.959 126.088 220.953 126.088 220.913C126.088 220.873 126.525 220.746 127.041 220.27C127.34 220 127.575 219.666 127.73 219.294C127.823 219.079 127.883 218.85 127.908 218.617C127.948 218.359 127.908 218.135 127.816 218.135C127.724 218.135 127.449 218.227 127.294 218.393C127.123 218.56 126.965 218.741 126.823 218.933C126.581 219.267 126.388 219.634 126.249 220.023C126.025 220.689 126.019 221.148 125.951 221.148Z" fill="#263238"/>
  <path d="M141.029 183.781C141.603 188.075 140.145 192.913 138.589 196.983L128.453 220.792L117.231 219.07C117.231 219.07 114.895 221.676 111.905 222.675C110.567 223.117 106.165 223.984 102.543 221.378C102.543 221.378 97.4169 228.518 89.3408 230.676C81.2648 232.835 69.0674 234.029 63.1553 224.592L91.2809 197.477C91.8549 197.614 115.521 181.657 128.304 178.024C128.326 178.024 139.95 175.889 141.029 183.781Z" fill="#263238"/>
  <path d="M116.399 218.978C116.399 218.978 116.445 218.944 116.549 218.887L117.008 218.646C117.415 218.427 118.012 218.123 118.77 217.704C119.695 217.203 120.592 216.651 121.456 216.051C122.601 215.266 123.624 214.316 124.493 213.233C125.531 211.909 126.209 210.339 126.461 208.675C126.748 206.764 126.666 204.816 126.22 202.935C125.84 200.836 124.747 198.933 123.126 197.546C121.286 196.197 119.091 195.415 116.813 195.295C115.656 195.202 114.494 195.211 113.34 195.324C112.217 195.443 111.103 195.635 110.005 195.898C107.933 196.432 105.908 197.133 103.949 197.993C100.201 199.635 96.9466 201.403 94.0882 202.625C91.8513 203.642 89.5138 204.421 87.1141 204.95C86.6894 205.048 86.3048 205.111 85.9662 205.157C85.6275 205.203 85.3577 205.254 85.1281 205.271L84.6115 205.323H84.4336L84.6115 205.283L85.1224 205.208C85.3462 205.174 85.6275 205.134 85.9547 205.065C86.2818 204.996 86.6607 204.939 87.1027 204.835C89.4727 204.262 91.78 203.454 93.9906 202.424C96.8261 201.185 100.069 199.4 103.829 197.735C105.8 196.862 107.838 196.152 109.925 195.611C111.034 195.348 112.16 195.156 113.294 195.037C114.468 194.924 115.649 194.915 116.824 195.008C119.171 195.128 121.432 195.936 123.322 197.333C124.191 198.034 124.908 198.905 125.428 199.893C125.921 200.838 126.283 201.846 126.502 202.889C126.943 204.804 127.017 206.785 126.72 208.727C126.446 210.425 125.74 212.024 124.671 213.371C123.782 214.463 122.733 215.415 121.559 216.195C120.684 216.785 119.775 217.325 118.839 217.813C118.07 218.215 117.461 218.508 117.048 218.703L116.571 218.921C116.517 218.947 116.459 218.967 116.399 218.978Z" fill="#455A64"/>
  <path d="M123.436 187.702C122.74 189.033 121.953 190.316 121.083 191.542C120.296 192.821 119.428 194.048 118.482 195.215C119.181 193.885 119.968 192.602 120.836 191.375C121.622 190.096 122.491 188.869 123.436 187.702Z" fill="#455A64"/>
  <path d="M115.343 217.084C114.673 217.296 113.993 217.472 113.305 217.612C112.048 217.922 110.32 218.399 108.449 219.053C106.578 219.707 104.931 220.413 103.754 220.953C102.577 221.492 101.854 221.854 101.831 221.814C101.974 221.69 102.132 221.584 102.302 221.498C102.617 221.309 103.082 221.056 103.662 220.763C106.702 219.232 109.928 218.103 113.259 217.406C113.896 217.274 114.407 217.182 114.78 217.136C114.965 217.096 115.154 217.078 115.343 217.084Z" fill="#455A64"/>
  <path d="M128.251 219.231C128.2 219.231 128.068 218.726 127.591 218.026C126.985 217.104 126.083 216.416 125.033 216.075C123.984 215.734 122.85 215.76 121.817 216.149C121.019 216.436 120.6 216.786 120.566 216.723C120.531 216.659 120.646 216.608 120.841 216.453C121.116 216.243 121.417 216.07 121.737 215.936C122.811 215.471 124.018 215.417 125.13 215.783C126.242 216.149 127.181 216.91 127.769 217.922C127.95 218.218 128.091 218.537 128.188 218.869C128.286 219.07 128.286 219.231 128.251 219.231Z" fill="#455A64"/>
  <path d="M79.7039 210.34C79.7854 210.507 79.836 210.688 79.8531 210.874C79.939 211.372 79.9812 211.877 79.9794 212.383C79.9812 214.073 79.5249 215.731 78.6592 217.182C77.7774 218.636 76.4182 219.74 74.8134 220.304C74.3316 220.468 73.8294 220.565 73.3211 220.591C73.1314 220.627 72.9367 220.627 72.7471 220.591C73.4202 220.501 74.0833 220.348 74.7273 220.132C76.2534 219.535 77.5403 218.452 78.3894 217.05C79.2244 215.642 79.694 214.048 79.7555 212.412C79.8244 211.12 79.6522 210.346 79.7039 210.34Z" fill="#455A64"/>
  <path d="M67.0471 223.214C66.984 223.266 66.6855 223.008 66.4043 222.64C66.123 222.273 65.9738 221.877 66.0484 221.837C66.123 221.797 66.3756 222.084 66.6511 222.463C66.9266 222.841 67.1103 223.163 67.0471 223.214Z" fill="#455A64"/>
  <path d="M69.406 225.711C69.3543 225.775 69.0329 225.551 68.6885 225.218C68.3441 224.885 68.1145 224.569 68.1719 224.517C68.2293 224.466 68.5564 224.678 68.8951 225.005C69.2338 225.333 69.4634 225.648 69.406 225.711Z" fill="#455A64"/>
  <path d="M72.1954 227.726C72.1553 227.795 71.7936 227.646 71.3918 227.382C70.99 227.118 70.703 226.854 70.749 226.808C70.7949 226.762 71.1622 226.9 71.5526 227.152C71.9429 227.405 72.2356 227.68 72.1954 227.726Z" fill="#455A64"/>
  <path d="M75.3525 229.081C75.3525 229.161 74.945 229.081 74.4915 228.931C74.0381 228.782 73.6994 228.576 73.7339 228.495C73.7683 228.415 74.1529 228.495 74.5891 228.65C75.0253 228.805 75.3755 229 75.3525 229.081Z" fill="#455A64"/>
  <path d="M78.7448 229.615C78.7448 229.695 78.3545 229.729 77.8723 229.683C77.3902 229.637 77.0171 229.54 77.0286 229.46C77.0401 229.379 77.4361 229.345 77.9011 229.391C78.366 229.437 78.7448 229.534 78.7448 229.615Z" fill="#455A64"/>
  <path d="M82.1772 229.431C82.1772 229.511 81.8041 229.603 81.3277 229.638C81.1138 229.655 80.8988 229.655 80.6848 229.638C80.5413 229.638 80.4552 229.603 80.4495 229.563C80.4438 229.523 80.5241 229.483 80.6619 229.442C80.8693 229.393 81.0805 229.363 81.2933 229.351C81.7927 229.305 82.1657 229.345 82.1772 229.431Z" fill="#455A64"/>
  <path d="M85.5582 228.828C85.5582 228.908 85.2195 229.052 84.7488 229.155C84.2782 229.259 83.8936 229.27 83.8821 229.19C83.8706 229.109 84.2265 228.96 84.6914 228.863C85.1564 228.765 85.5409 228.736 85.5582 228.828Z" fill="#455A64"/>
  <path d="M88.8528 227.812C88.8528 227.892 88.5371 228.076 88.0836 228.231C87.6302 228.386 87.2399 228.438 87.2169 228.363C87.1939 228.289 87.5383 228.099 87.9861 227.944C88.4338 227.789 88.8241 227.738 88.8528 227.812Z" fill="#455A64"/>
  <path d="M92.0158 226.469C92.056 226.544 91.7288 226.768 91.2983 226.963C90.8678 227.158 90.4832 227.261 90.4488 227.187C90.4143 227.112 90.7415 226.888 91.172 226.693C91.6025 226.498 91.9813 226.394 92.0158 226.469Z" fill="#455A64"/>
  <path d="M95.0343 224.81C95.0745 224.879 94.776 225.132 94.3627 225.384C93.9495 225.637 93.5821 225.757 93.5477 225.688C93.5132 225.619 93.806 225.361 94.2135 225.114C94.621 224.868 94.9941 224.747 95.0343 224.81Z" fill="#455A64"/>
  <path d="M97.8645 222.876C97.9162 222.945 97.6407 223.22 97.2504 223.501C96.86 223.783 96.5099 223.949 96.464 223.88C96.4181 223.811 96.6936 223.53 97.0782 223.255C97.4627 222.979 97.8244 222.813 97.8645 222.876Z" fill="#455A64"/>
  <path d="M100.528 220.683C100.585 220.746 100.333 221.05 99.9541 221.36C99.5752 221.67 99.2538 221.877 99.2021 221.814C99.1505 221.751 99.3973 221.447 99.7761 221.137C100.155 220.827 100.471 220.626 100.528 220.683Z" fill="#455A64"/>
  <path d="M103.03 218.318C103.088 218.381 102.852 218.697 102.508 219.019C102.163 219.34 101.831 219.558 101.779 219.501C101.727 219.443 101.951 219.133 102.301 218.8C102.651 218.467 102.979 218.261 103.03 218.318Z" fill="#455A64"/>
  <path d="M105.752 216.2C105.798 216.269 105.528 216.55 105.143 216.826C104.759 217.102 104.408 217.274 104.357 217.211C104.305 217.147 104.581 216.866 104.965 216.585C105.35 216.304 105.706 216.137 105.752 216.2Z" fill="#455A64"/>
  <path d="M108.77 214.541C108.805 214.616 108.483 214.846 108.064 215.058C107.645 215.27 107.266 215.379 107.226 215.305C107.186 215.23 107.502 215.001 107.932 214.788C108.363 214.576 108.736 214.478 108.77 214.541Z" fill="#455A64"/>
  <path d="M112.054 213.52C112.054 213.6 111.71 213.761 111.256 213.87C110.803 213.979 110.407 214.013 110.384 213.939C110.361 213.864 110.717 213.698 111.182 213.583C111.647 213.468 112.043 213.439 112.054 213.52Z" fill="#455A64"/>
  <path d="M115.486 213.33C115.486 213.416 115.09 213.445 114.619 213.434C114.148 213.422 113.769 213.382 113.764 213.302C113.758 213.221 114.143 213.129 114.625 213.135C115.107 213.141 115.491 213.261 115.486 213.33Z" fill="#455A64"/>
  <path d="M118.804 214.214C118.764 214.289 118.396 214.18 117.96 214.025C117.524 213.87 117.162 213.715 117.179 213.635C117.197 213.554 117.598 213.577 118.058 213.744C118.517 213.91 118.838 214.14 118.804 214.214Z" fill="#455A64"/>
  <path d="M118.075 216.711C118.023 216.642 118.282 216.361 118.586 216.017C118.89 215.672 119.16 215.385 119.211 215.443C119.263 215.5 119.143 215.862 118.81 216.229C118.477 216.596 118.127 216.774 118.075 216.711Z" fill="#455A64"/>
  <path d="M115.038 218.29C115.038 218.209 115.342 218.003 115.773 217.825C116.203 217.647 116.588 217.561 116.628 217.635C116.668 217.71 116.335 217.916 115.888 218.1C115.44 218.284 115.084 218.37 115.038 218.29Z" fill="#455A64"/>
  <path d="M111.755 219.346C111.755 219.265 112.071 219.082 112.524 218.927C112.977 218.772 113.362 218.714 113.391 218.795C113.419 218.875 113.069 219.059 112.622 219.208C112.174 219.357 111.784 219.42 111.755 219.346Z" fill="#455A64"/>
  <path d="M108.541 220.568C108.506 220.494 108.839 220.293 109.287 220.115C109.734 219.937 110.113 219.862 110.142 219.937C110.171 220.012 109.838 220.218 109.396 220.396C108.954 220.574 108.569 220.649 108.541 220.568Z" fill="#455A64"/>
  <path d="M105.367 221.94C105.332 221.866 105.659 221.647 106.096 221.464C106.532 221.28 106.917 221.183 106.945 221.257C106.974 221.332 106.652 221.55 106.216 221.734C105.78 221.917 105.395 221.986 105.367 221.94Z" fill="#455A64"/>
  <path d="M98.9492 123.483C98.9492 123.483 102.703 122.335 107.691 116.796C112.679 111.257 114.688 104.168 115.348 104.168C116.008 104.168 118.792 102.607 125.106 114.075C131.42 125.544 129.503 128.465 128.418 128.523C127.333 128.58 119.808 127.076 115.216 127.949C110.624 128.821 104.884 131.657 104.884 131.657L98.9492 123.483Z" fill="#455A64"/>
  <path d="M91.3213 130.56L92.8079 132.943L93.4738 134.004C93.9138 134.709 94.6074 135.218 95.4116 135.426C96.2158 135.634 97.0692 135.526 97.7959 135.124L105.763 131.68L100.189 121.158L92.3373 126.083C91.9762 126.31 91.6635 126.606 91.417 126.954C91.1705 127.302 90.9951 127.695 90.9007 128.111C90.8063 128.527 90.7949 128.957 90.8671 129.378C90.9393 129.798 91.0936 130.2 91.3213 130.56Z" fill="#263238"/>
  <path d="M96.332 134.177L99.3225 139.09L100.597 138.631L109.626 144.945L111.64 140.089C111.64 140.089 106.474 138.292 105.384 136.57C104.293 134.848 105.384 134.36 105.384 134.36L102.818 131.823L96.332 134.177Z" fill="#263238"/>
  <path d="M124.699 114.328C128.08 120.544 129.716 126.187 128.349 126.956C126.983 127.725 123.138 123.265 119.74 117.049C116.342 110.832 114.723 105.19 116.089 104.421C117.455 103.652 121.312 108.106 124.699 114.328Z" fill="#263238"/>
  <path d="M90.8848 134.188L93.0545 133.327L91.4875 130.824L89.9033 131.978L90.8848 134.188Z" fill="#455A64"/>
  <path d="M103.696 132.707L98.0194 136.949L97.1699 135.548L103.696 132.707Z" fill="#455A64"/>
  <path d="M91.4873 130.824L93.0543 133.327L92.6066 133.505L91.2979 130.962L91.4873 130.824Z" fill="#455A64"/>
  <path d="M93.0605 131.312C93.8993 131.017 94.7037 130.632 95.4598 130.164C96.2616 129.782 97.0198 129.315 97.7214 128.77C96.8831 129.066 96.0789 129.451 95.3221 129.918C94.5203 130.3 93.7621 130.768 93.0605 131.312Z" fill="#455A64"/>
  <path d="M92.2627 129.808C93.0245 129.524 93.7507 129.153 94.4266 128.701C95.1505 128.326 95.8302 127.872 96.4528 127.346C94.9636 127.998 93.5571 128.825 92.2627 129.808Z" fill="#455A64"/>
  <path d="M94.0419 132.879C94.2805 132.854 94.5123 132.784 94.725 132.673L95.4424 132.374C95.7065 132.254 95.982 132.093 96.2747 131.932C97.0027 131.575 97.6817 131.125 98.2952 130.595C97.5403 130.881 96.8171 131.245 96.137 131.68C95.8442 131.84 95.563 132.013 95.3219 132.139C95.0808 132.265 94.834 132.386 94.6389 132.489C94.26 132.696 94.0247 132.839 94.0419 132.879Z" fill="#455A64"/>
  <path d="M118.666 113.335C118.666 113.335 121.834 111.039 123.981 115.378C126.128 119.718 122.695 120.722 122.695 120.722C121.011 118.462 119.654 115.975 118.666 113.335Z" fill="#455A64"/>
  <path d="M114.746 108.255C114.78 108.544 114.843 108.829 114.936 109.105C115.085 109.644 115.291 110.425 115.578 111.401C115.751 111.871 115.946 112.382 116.152 112.933L116.474 113.788C116.531 113.932 116.583 114.081 116.64 114.236C116.698 114.391 116.778 114.529 116.847 114.678L117.742 116.555C117.817 116.722 117.897 116.882 117.978 117.049C118.058 117.215 118.156 117.37 118.247 117.531L118.821 118.512L119.395 119.494C119.493 119.649 119.579 119.815 119.682 119.965C119.786 120.114 119.895 120.269 119.992 120.418L121.186 122.14C121.284 122.272 121.37 122.41 121.468 122.536L121.778 122.909L122.352 123.609L123.402 124.872C124.096 125.595 124.67 126.158 125.067 126.554C125.262 126.765 125.478 126.957 125.709 127.128C125.534 126.894 125.342 126.674 125.135 126.468L123.54 124.746L122.547 123.432L121.973 122.725L121.674 122.352C121.577 122.226 121.491 122.088 121.399 121.956L120.251 120.234L119.946 119.787C119.837 119.637 119.757 119.471 119.659 119.316L119.085 118.34C118.896 118.013 118.707 117.686 118.511 117.37C118.425 117.209 118.322 117.054 118.242 116.888C118.161 116.722 118.087 116.561 118.006 116.4L117.105 114.546C117.036 114.397 116.956 114.253 116.899 114.104C116.841 113.955 116.778 113.806 116.721 113.662C116.606 113.369 116.497 113.088 116.388 112.818L115.785 111.303C115.481 110.367 115.24 109.581 115.062 109.059C114.976 108.783 114.871 108.515 114.746 108.255Z" fill="#263238"/>
  <path d="M106.21 134.372C106.454 134.441 106.66 134.604 106.786 134.823C106.911 135.043 106.946 135.303 106.882 135.548C106.635 136.524 106.233 138.057 105.912 138.992C105.822 139.3 105.676 139.588 105.481 139.842C105.386 139.98 105.25 140.085 105.092 140.141C104.935 140.198 104.763 140.204 104.602 140.159C104.44 140.113 104.297 140.018 104.193 139.887C104.088 139.756 104.027 139.596 104.018 139.429C103.98 139.093 104.01 138.754 104.104 138.43C104.305 137.517 104.678 136.134 104.999 135.038C105.034 134.914 105.093 134.798 105.173 134.698C105.254 134.597 105.353 134.513 105.465 134.451C105.578 134.389 105.702 134.35 105.83 134.337C105.958 134.323 106.087 134.335 106.21 134.372Z" fill="#FFBE9D"/>
  <path d="M107.766 135.956C108.009 136.026 108.216 136.188 108.341 136.408C108.467 136.627 108.501 136.888 108.437 137.133C108.191 138.108 107.789 139.641 107.462 140.577C107.374 140.885 107.228 141.174 107.031 141.426C106.932 141.552 106.801 141.649 106.651 141.705C106.501 141.762 106.339 141.776 106.182 141.748C106.021 141.694 105.878 141.596 105.771 141.465C105.663 141.334 105.595 141.175 105.573 141.007C105.537 140.672 105.564 140.333 105.654 140.008C105.86 139.101 106.228 137.712 106.549 136.616C106.622 136.366 106.791 136.156 107.02 136.031C107.248 135.907 107.516 135.877 107.766 135.95V135.956Z" fill="#FFBE9D"/>
  <path d="M109.264 136.909C109.472 136.973 109.648 137.115 109.755 137.305C109.862 137.495 109.892 137.719 109.838 137.931C109.625 138.774 109.264 140.1 108.994 140.91C108.918 141.178 108.791 141.429 108.621 141.65C108.538 141.769 108.42 141.858 108.284 141.907C108.148 141.955 108 141.96 107.861 141.92C107.721 141.88 107.598 141.798 107.508 141.685C107.418 141.571 107.366 141.433 107.358 141.288C107.324 140.998 107.347 140.703 107.427 140.422C107.605 139.635 107.926 138.453 108.202 137.483C108.266 137.268 108.412 137.087 108.609 136.979C108.806 136.872 109.037 136.847 109.252 136.909H109.264Z" fill="#FFBE9D"/>
  <path d="M110.969 137.098C111.178 137.162 111.355 137.305 111.462 137.496C111.569 137.688 111.598 137.913 111.543 138.126C111.33 138.975 110.969 140.307 110.693 141.122C110.618 141.391 110.491 141.642 110.32 141.862C110.238 141.983 110.12 142.075 109.982 142.125C109.845 142.175 109.696 142.18 109.555 142.14C109.415 142.1 109.29 142.017 109.2 141.902C109.109 141.787 109.058 141.647 109.052 141.501C109.017 141.208 109.041 140.912 109.12 140.628C109.298 139.842 109.62 138.648 109.901 137.678C109.933 137.571 109.985 137.471 110.055 137.384C110.125 137.298 110.212 137.225 110.31 137.172C110.408 137.119 110.516 137.085 110.627 137.074C110.738 137.062 110.85 137.072 110.957 137.104L110.969 137.098Z" fill="#FFBE9D"/>
  <path d="M105.671 139.859C105.712 139.229 105.854 138.609 106.09 138.022C106.234 137.405 106.474 136.815 106.802 136.272C106.76 136.903 106.617 137.523 106.377 138.109C106.233 138.725 105.995 139.315 105.671 139.859Z" fill="#EB996E"/>
  <path d="M108.902 141.162C109.164 139.936 109.523 138.732 109.976 137.563C109.91 138.833 109.542 140.069 108.902 141.168V141.162Z" fill="#EB996E"/>
  <path d="M107.301 140.956C107.563 139.726 107.922 138.518 108.374 137.345C108.309 138.617 107.941 139.855 107.301 140.956Z" fill="#EB996E"/>
  <path d="M136.466 92.4186C136.529 92.4645 134.17 95.6617 131.208 99.5533C128.246 103.445 125.778 106.562 125.715 106.51C125.652 106.458 128.011 103.267 130.967 99.3754C133.923 95.4837 136.397 92.3669 136.466 92.4186Z" fill="#263238"/>
  <path d="M151.866 101.528C151.9 101.603 146.952 103.973 140.811 106.82C134.669 109.667 129.669 111.917 129.635 111.843C129.601 111.768 134.548 109.397 140.684 106.55C146.82 103.703 151.82 101.453 151.866 101.528Z" fill="#263238"/>
  <path d="M149.57 120.481C149.57 120.562 146.034 120.292 141.695 119.873C137.356 119.454 133.837 119.046 133.843 118.966C133.849 118.885 137.379 119.155 141.724 119.574C146.069 119.993 149.582 120.401 149.57 120.481Z" fill="#263238"/>
  <path d="M59.0743 131.112L62.9718 153.268C63.3117 155.122 64.3565 156.772 65.8869 157.872C67.4172 158.972 69.3143 159.437 71.1798 159.168C72.1373 159.045 73.0602 158.731 73.8939 158.244C74.7276 157.758 75.4551 157.109 76.0333 156.336C76.6114 155.563 77.0284 154.682 77.2596 153.744C77.4908 152.807 77.5314 151.833 77.379 150.88L76.7476 147.069C76.7476 147.069 82.2005 145.588 81.6323 140.112C81.3568 137.471 80.3465 132.076 79.3707 127.22C78.8179 124.584 77.2688 122.263 75.0467 120.741C72.8245 119.22 70.1007 118.614 67.4432 119.052C66.0905 119.271 64.7959 119.76 63.6366 120.49C62.4773 121.221 61.4772 122.178 60.696 123.303C59.9148 124.429 59.3686 125.701 59.0899 127.042C58.8113 128.384 58.806 129.768 59.0743 131.112Z" fill="#FFBE9D"/>
  <path d="M76.7588 147.08C74.2066 147.415 71.6122 146.994 69.2969 145.869C69.2969 145.869 71.4608 149.617 76.9367 148.469L76.7588 147.08Z" fill="#EB996E"/>
  <path d="M78.1827 130.916C78.2072 131.121 78.1506 131.327 78.0251 131.49C77.8995 131.653 77.715 131.76 77.5111 131.789C77.4123 131.809 77.3105 131.809 77.2116 131.789C77.1128 131.769 77.0189 131.729 76.9355 131.673C76.8521 131.616 76.7809 131.543 76.726 131.459C76.671 131.374 76.6336 131.28 76.6157 131.18C76.5895 130.975 76.6454 130.768 76.7711 130.603C76.8968 130.439 77.0823 130.331 77.2873 130.302C77.3865 130.282 77.4887 130.282 77.5879 130.303C77.687 130.323 77.7811 130.363 77.8646 130.42C77.9481 130.477 78.0192 130.551 78.0738 130.636C78.1285 130.721 78.1655 130.817 78.1827 130.916Z" fill="#263238"/>
  <path d="M78.3483 129.59C78.2623 129.705 77.6079 129.332 76.7584 129.435C75.9089 129.539 75.3291 130.009 75.2258 129.929C75.1225 129.849 75.2258 129.694 75.5013 129.47C75.8435 129.177 76.2652 128.993 76.7125 128.942C77.1576 128.889 77.6079 128.98 77.9982 129.2C78.2967 129.367 78.4115 129.527 78.3483 129.59Z" fill="#263238"/>
  <path d="M70.1633 131.881C70.1879 132.086 70.1315 132.292 70.0061 132.456C69.8806 132.62 69.6961 132.729 69.4917 132.759C69.3922 132.779 69.2896 132.779 69.1901 132.758C69.0905 132.738 68.996 132.698 68.9121 132.641C68.8282 132.584 68.7565 132.511 68.7013 132.425C68.6461 132.34 68.6085 132.245 68.5906 132.145C68.566 131.94 68.6226 131.734 68.7482 131.571C68.8738 131.408 69.0583 131.301 69.2621 131.272C69.3613 131.252 69.4635 131.252 69.5627 131.272C69.6619 131.292 69.7562 131.331 69.84 131.388C69.9239 131.445 69.9956 131.517 70.0511 131.602C70.1066 131.686 70.1448 131.781 70.1633 131.881Z" fill="#263238"/>
  <path d="M70.1237 130.675C70.0376 130.784 69.389 130.417 68.5337 130.515C67.6785 130.612 67.1045 131.089 67.0012 131.014C66.8978 130.939 67.0299 130.779 67.2824 130.549C67.6226 130.254 68.0456 130.072 68.4935 130.027C68.9361 129.976 69.3834 130.064 69.7736 130.279C70.0605 130.469 70.1696 130.675 70.1237 130.675Z" fill="#263238"/>
  <path d="M73.9463 137.081C74.3824 136.894 74.839 136.759 75.3066 136.679C75.519 136.633 75.7199 136.564 75.7429 136.415C75.7329 136.191 75.6548 135.974 75.519 135.795L74.6867 134.234C73.5387 132.013 72.6491 130.17 72.7409 130.124C72.8327 130.078 73.8544 131.846 75.0369 134.073C75.3181 134.619 75.6109 135.141 75.8405 135.646C76.0097 135.887 76.0852 136.18 76.0528 136.473C76.0303 136.553 75.9896 136.627 75.9338 136.688C75.8781 136.75 75.8088 136.798 75.7314 136.829C75.6153 136.875 75.4938 136.905 75.3698 136.92C74.9038 137.033 74.4256 137.087 73.9463 137.081Z" fill="#263238"/>
  <path d="M71.5069 137.948C71.6447 137.948 71.7537 138.832 72.6205 139.394C73.4872 139.957 74.463 139.739 74.4802 139.865C74.4974 139.991 74.2851 140.066 73.866 140.123C73.3258 140.194 72.7779 140.074 72.3163 139.785C71.8775 139.506 71.5645 139.067 71.4438 138.562C71.3634 138.183 71.461 137.948 71.5069 137.948Z" fill="#263238"/>
  <path d="M69.9629 127.886C69.9055 128.121 69.0388 128.11 68.0515 128.339C67.0642 128.569 66.2893 128.913 66.1344 128.747C66.0597 128.655 66.1745 128.419 66.4788 128.173C66.8862 127.855 67.359 127.631 67.8632 127.518C68.3674 127.405 68.8904 127.405 69.3946 127.518C69.7792 127.61 69.9858 127.771 69.9629 127.886Z" fill="#263238"/>
  <path d="M77.8957 127.702C77.7694 127.909 77.1552 127.777 76.4492 127.845C75.7432 127.914 75.1577 128.121 74.997 127.937C74.9281 127.851 74.997 127.645 75.2381 127.438C75.5638 127.171 75.9657 127.014 76.3861 126.99C76.8023 126.95 77.2208 127.038 77.5857 127.243C77.844 127.415 77.9473 127.599 77.8957 127.702Z" fill="#263238"/>
  <path d="M79.3992 117.864C79.0303 117.583 78.573 117.445 78.1106 117.473C77.6481 117.502 77.2113 117.695 76.8794 118.019C77.1035 117.645 77.1778 117.201 77.0873 116.775C76.9967 116.349 76.7481 115.973 76.3915 115.723C76.0262 115.481 75.6117 115.323 75.178 115.26C74.7442 115.198 74.302 115.232 73.8832 115.361C73.0462 115.621 72.2543 116.008 71.5355 116.509C71.5662 116.339 71.5462 116.163 71.4778 116.004C71.4094 115.844 71.2958 115.709 71.151 115.614C70.8525 115.43 70.5133 115.324 70.1637 115.304C68.7236 115.21 67.287 115.533 66.0252 116.234C64.6738 116.984 63.3925 117.854 62.1967 118.834C60.8597 119.911 59.681 121.171 58.6953 122.576L58.6494 122.616C57.84 123.34 57.157 125.521 57.2775 126.588C57.731 130.532 59.0397 132.81 59.7744 136.541C59.7985 136.795 59.8962 137.037 60.0557 137.236C60.5091 137.707 61.3242 137.305 61.7776 136.811C62.7537 135.541 63.2679 133.976 63.2356 132.374C63.2872 130.79 63.0576 129.212 63.0978 127.627V127.513C63.1087 127.109 63.147 126.706 63.2126 126.307C63.2815 126.049 63.9531 123.787 66.1285 123.437C68.4245 123.047 72.9877 125.285 75.2435 124.93C77.4993 124.574 77.6199 122.984 77.6199 122.984L78.9458 125.681C79.2504 124.585 79.3228 123.438 79.1582 122.312C79.7318 121.788 80.1322 121.101 80.3062 120.343C80.3978 119.887 80.3616 119.413 80.2016 118.976C80.0416 118.538 79.7639 118.154 79.3992 117.864Z" fill="#263238"/>
  <path d="M61.2385 133.465C61.1409 133.436 57.2952 132.788 57.852 136.513C58.4087 140.238 62.0938 138.918 62.0823 138.809C62.0708 138.7 61.2385 133.465 61.2385 133.465Z" fill="#FFBE9D"/>
  <path d="M60.7159 137.563C60.7159 137.563 60.6585 137.621 60.5552 137.684C60.4075 137.774 60.231 137.805 60.0615 137.77C59.7965 137.654 59.567 137.469 59.3966 137.235C59.2262 137.001 59.1209 136.726 59.0915 136.438C59.0366 136.119 59.0522 135.792 59.1374 135.48C59.1551 135.356 59.2031 135.239 59.2773 135.139C59.3514 135.039 59.4493 134.959 59.5622 134.906C59.6345 134.876 59.7148 134.871 59.7899 134.893C59.8651 134.915 59.9305 134.962 59.9754 135.026C60.0386 135.124 60.0271 135.204 60.05 135.204C60.073 135.204 60.1189 135.129 60.05 134.98C60.0115 134.893 59.9475 134.819 59.8664 134.768C59.7495 134.708 59.6144 134.693 59.4875 134.728C59.3435 134.785 59.2158 134.876 59.1157 134.994C59.0155 135.113 58.9461 135.254 58.9135 135.405C58.803 135.752 58.7793 136.12 58.8447 136.478C58.8788 136.814 59.0106 137.132 59.2239 137.393C59.4372 137.654 59.7224 137.847 60.0443 137.948C60.148 137.96 60.2531 137.949 60.3522 137.916C60.4514 137.884 60.5422 137.83 60.6183 137.758C60.7216 137.655 60.7274 137.563 60.7159 137.563Z" fill="#EB996E"/>
  <path d="M52.7491 160.437C52.8524 160.393 52.9647 160.375 53.0763 160.385C53.4033 160.413 53.7072 160.565 53.9258 160.81C54.102 160.998 54.2369 161.221 54.3219 161.464C54.4069 161.707 54.4401 161.965 54.4195 162.222C54.3522 162.88 54.2058 163.528 53.9832 164.151C53.8432 164.506 53.7825 164.888 53.8053 165.27C53.8281 165.652 53.9338 166.024 54.1152 166.36C54.5228 167.072 55.3551 167.617 55.6937 168.61C55.8603 169.117 55.87 169.662 55.7215 170.174C55.5729 170.686 55.2732 171.142 54.8614 171.48C54.4216 171.84 53.879 172.051 53.3116 172.083C52.7484 172.076 52.1893 171.985 51.6528 171.813C51.1537 171.646 50.6193 171.612 50.103 171.716C49.6266 171.888 49.2221 172.215 48.955 172.646C48.6708 173.084 48.344 173.494 47.9792 173.868C47.7864 174.051 47.558 174.193 47.3083 174.285C47.0586 174.377 46.7927 174.417 46.527 174.402C46.0475 174.361 45.5859 174.201 45.1847 173.935C44.7835 173.669 44.4555 173.307 44.2311 172.881C43.8724 172.151 43.6765 171.352 43.6571 170.539C43.6169 169.804 43.6571 169.144 43.6571 168.57C43.6514 168.08 43.6092 167.591 43.5308 167.107C43.448 166.696 43.3308 166.293 43.1807 165.901C43.2473 165.989 43.3014 166.086 43.3414 166.188C43.4775 166.473 43.5778 166.774 43.6399 167.084C43.746 167.571 43.8075 168.066 43.8235 168.565C43.8235 169.139 43.8235 169.804 43.8982 170.528C43.9251 171.305 44.121 172.067 44.4721 172.76C44.6806 173.142 44.9797 173.466 45.3431 173.704C45.7065 173.942 46.123 174.087 46.5557 174.127C46.7846 174.138 47.0134 174.103 47.2278 174.022C47.4422 173.941 47.6375 173.816 47.8013 173.656C48.1513 173.293 48.4647 172.897 48.7369 172.473C49.0398 171.989 49.4967 171.621 50.0341 171.429C50.6063 171.304 51.2017 171.338 51.7561 171.526C52.2659 171.685 52.7952 171.772 53.3289 171.785C53.8348 171.757 54.319 171.57 54.7122 171.251C55.0821 170.949 55.3524 170.543 55.4875 170.085C55.6227 169.627 55.6166 169.139 55.4699 168.685C55.1886 167.807 54.3793 167.25 53.9316 166.475C53.7077 166.099 53.5943 165.667 53.6044 165.23C53.6257 164.84 53.6952 164.454 53.811 164.082C54.0429 163.475 54.2028 162.843 54.2874 162.199C54.3144 161.961 54.2916 161.721 54.2204 161.492C54.1492 161.264 54.0313 161.053 53.8742 160.873C53.6774 160.641 53.4049 160.487 53.105 160.437C52.8639 160.42 52.7491 160.454 52.7491 160.437Z" fill="#FAFAFA"/>
  <path d="M54.3274 200.611C54.3274 200.611 54.3676 200.748 54.4996 200.967C54.7083 201.277 55.0257 201.498 55.3893 201.586C55.6704 201.666 55.9666 201.676 56.2524 201.616C56.5383 201.556 56.8055 201.428 57.0309 201.242C57.6147 200.717 58.0015 200.008 58.1272 199.233C58.3109 198.378 58.2765 197.402 58.4429 196.363C58.5227 195.813 58.7016 195.282 58.971 194.796C59.2602 194.26 59.727 193.842 60.2912 193.614C60.8815 193.404 61.5153 193.347 62.1337 193.447C62.7594 193.51 63.3735 193.654 63.9935 193.734C64.6186 193.836 65.2582 193.805 65.8704 193.642C66.4921 193.463 67.0651 193.145 67.5465 192.712C68.0268 192.28 68.3834 191.727 68.5797 191.111C68.755 190.511 68.743 189.873 68.5452 189.28C68.3792 188.713 68.057 188.204 67.6155 187.811C67.174 187.418 66.631 187.158 66.0483 187.059C64.9004 186.932 63.8672 187.489 62.7823 187.512C62.2562 187.528 61.7347 187.409 61.267 187.168C60.8467 186.953 60.4487 186.697 60.0788 186.404C59.4804 185.888 58.8019 185.473 58.0698 185.176C57.7915 185.07 57.4935 185.025 57.1963 185.045C56.8991 185.065 56.6096 185.149 56.3479 185.291C56.0155 185.46 55.7548 185.743 55.6131 186.089C55.5756 186.215 55.545 186.343 55.5213 186.473C55.5023 186.338 55.5141 186.201 55.5557 186.071C55.6803 185.695 55.9428 185.379 56.2905 185.187C56.538 185.045 56.8109 184.951 57.094 184.912C57.4309 184.879 57.771 184.916 58.0928 185.021C58.8529 185.306 59.5593 185.717 60.1821 186.238C60.8921 186.868 61.7993 187.231 62.7479 187.265C63.2787 187.22 63.8037 187.122 64.3149 186.973C64.8731 186.808 65.4565 186.746 66.0369 186.789C66.6733 186.889 67.2683 187.168 67.7529 187.593C68.2374 188.017 68.5918 188.57 68.7748 189.188C68.9978 189.837 69.0119 190.54 68.815 191.197C68.6022 191.859 68.218 192.453 67.7014 192.919C67.187 193.385 66.5724 193.727 65.9049 193.918C65.2552 194.091 64.5759 194.122 63.9131 194.01C63.2702 193.924 62.656 193.786 62.0591 193.717C61.4822 193.619 60.8898 193.668 60.3371 193.86C59.8258 194.059 59.4023 194.433 59.1432 194.917C58.8868 195.375 58.712 195.874 58.6266 196.392C58.4602 197.408 58.4774 198.395 58.2765 199.262C58.1288 200.077 57.7053 200.817 57.0768 201.357C56.8302 201.552 56.5394 201.683 56.2301 201.739C55.9209 201.795 55.6025 201.774 55.3032 201.678C55.1124 201.627 54.9336 201.539 54.777 201.419C54.6203 201.299 54.489 201.149 54.3905 200.978C54.3422 200.862 54.3206 200.736 54.3274 200.611Z" fill="#FAFAFA"/>
  <path d="M73.8254 165.832C73.9285 165.635 74.0622 165.455 74.2214 165.299C74.6881 164.834 75.2919 164.532 75.9434 164.438C76.4563 164.362 76.9801 164.423 77.4618 164.614C77.9436 164.806 78.3663 165.121 78.6871 165.528C79.096 166.034 79.3386 166.653 79.3817 167.302C79.3789 167.992 79.5279 168.673 79.8179 169.299C80.0163 169.599 80.3125 169.82 80.6559 169.925C81.0293 170.033 81.4152 170.093 81.8039 170.103C82.2057 170.103 82.619 170.103 83.0495 170.16C83.503 170.184 83.9398 170.34 84.3065 170.608C84.4952 170.762 84.6447 170.959 84.7427 171.182C84.8382 171.408 84.8776 171.655 84.8575 171.899C84.8017 172.38 84.6016 172.832 84.2836 173.197C83.9651 173.571 83.5747 173.877 83.1356 174.098C82.7051 174.316 82.2516 174.494 81.8096 174.701C81.3658 174.887 80.9534 175.14 80.587 175.452C80.2288 175.777 79.9784 176.204 79.8695 176.675C79.6342 177.639 79.8695 178.684 79.8007 179.775C79.7691 180.335 79.6205 180.882 79.3644 181.382C79.2321 181.647 79.0397 181.878 78.8026 182.057C78.5655 182.235 78.2902 182.356 77.9983 182.409C77.6987 182.436 77.3969 182.399 77.1128 182.3C76.8288 182.201 76.5691 182.042 76.351 181.835C75.9109 181.456 75.54 181.004 75.2546 180.498C74.9876 180.012 74.6924 179.543 74.3707 179.092C74.0698 178.657 73.6432 178.324 73.1481 178.139C72.651 177.993 72.1184 178.028 71.6442 178.236C71.1561 178.443 70.6874 178.693 70.2437 178.983C69.7953 179.277 69.3184 179.525 68.8202 179.723C68.3145 179.907 67.7795 179.996 67.2417 179.987C66.203 179.959 65.1993 179.605 64.3717 178.977C63.5682 178.387 63.0087 177.523 62.799 176.549C62.6826 176.089 62.6842 175.608 62.8037 175.15C62.9231 174.691 63.1564 174.27 63.482 173.926C63.8203 173.629 64.2264 173.42 64.6645 173.317C65.0709 173.22 65.4831 173.149 65.8985 173.105C66.6563 173.07 67.3886 172.821 68.0108 172.387C68.5311 171.918 68.9257 171.326 69.1588 170.665C69.4056 170.051 69.5664 169.443 69.7787 168.886C69.9574 168.36 70.219 167.866 70.5536 167.422C70.8526 167.067 71.1873 166.744 71.5524 166.458C72.039 166.028 72.6348 165.74 73.2744 165.626C73.3871 165.608 73.5023 165.615 73.6122 165.646C73.7221 165.676 73.8242 165.73 73.9115 165.804C73.7188 165.699 73.4974 165.658 73.2801 165.689C72.6638 165.823 72.0949 166.121 71.6327 166.55C71.2777 166.836 70.9544 167.159 70.6684 167.514C70.3544 167.951 70.1086 168.433 69.9395 168.943C69.7386 169.517 69.5836 170.091 69.3655 170.734C69.1382 171.419 68.7436 172.037 68.2175 172.531C67.5679 173 66.7964 173.271 65.9961 173.311C65.2098 173.432 64.3315 173.518 63.7001 174.092C63.4115 174.41 63.2077 174.795 63.1074 175.213C63.007 175.63 63.0135 176.066 63.1262 176.48C63.3308 177.388 63.8568 178.191 64.6071 178.741C65.3925 179.329 66.3413 179.658 67.322 179.683C67.823 179.693 68.3213 179.609 68.7915 179.436C69.2733 179.241 69.7347 178.999 70.1691 178.713C70.5785 178.431 71.0105 178.183 71.4605 177.972C72.0037 177.733 72.6147 177.696 73.1825 177.869C73.7347 178.071 74.2116 178.438 74.5486 178.919C74.881 179.38 75.1839 179.861 75.4555 180.36C75.7269 180.833 76.074 181.257 76.483 181.617C76.6706 181.793 76.8937 181.927 77.1373 182.009C77.3809 182.091 77.6393 182.12 77.895 182.094C78.1419 182.05 78.3748 181.948 78.5744 181.796C78.7741 181.644 78.9347 181.447 79.043 181.221C79.277 180.76 79.4138 180.256 79.4448 179.74C79.5022 178.713 79.2726 177.639 79.5309 176.589C79.655 176.065 79.9352 175.59 80.3345 175.229C80.7217 174.895 81.1596 174.626 81.6317 174.431C82.0852 174.224 82.5329 174.052 82.9519 173.857C83.3583 173.654 83.7195 173.371 84.0138 173.024C84.318 172.71 84.5183 172.309 84.5878 171.877C84.6014 171.681 84.57 171.484 84.4959 171.303C84.4103 171.12 84.2848 170.959 84.1286 170.832C83.7929 170.59 83.3938 170.453 82.9806 170.436C82.5731 170.39 82.1598 170.39 81.7522 170.367C81.3453 170.352 80.942 170.285 80.5526 170.166C80.1666 170.04 79.8346 169.787 79.6112 169.449C79.3065 168.795 79.1534 168.08 79.1635 167.359C79.1375 166.733 78.9168 166.131 78.5321 165.637C78.2304 165.247 77.8331 164.941 77.3787 164.749C76.9242 164.557 76.4279 164.485 75.9377 164.541C75.3137 164.626 74.7307 164.901 74.2674 165.327C74.1101 165.487 73.9625 165.655 73.8254 165.832Z" fill="#FAFAFA"/>
  <path d="M64.1658 156.143C63.8447 156.465 63.4236 156.667 62.9719 156.717C62.4906 156.813 61.9952 156.813 61.514 156.717C60.8991 156.619 60.3416 156.298 59.947 155.816C59.6012 155.306 59.4026 154.71 59.373 154.094C59.3281 153.608 59.361 153.118 59.4705 152.642C59.5374 152.2 59.7542 151.795 60.0847 151.494C59.9008 151.881 59.7658 152.29 59.6829 152.711C59.6044 153.168 59.5909 153.634 59.6427 154.094C59.6876 154.649 59.8711 155.184 60.1765 155.65C60.5255 156.077 61.0165 156.364 61.5599 156.459C62.0089 156.554 62.471 156.572 62.926 156.511C63.3515 156.434 63.7673 156.311 64.1658 156.143Z" fill="#FAFAFA"/>
  <path d="M88.876 154.68C88.876 154.68 88.876 154.737 88.8358 154.835C88.7822 154.983 88.7067 155.122 88.612 155.248C88.2585 155.72 87.7541 156.056 87.1827 156.201C86.7844 156.294 86.37 156.294 85.9716 156.201C85.5213 156.074 85.1041 155.851 84.749 155.546C84.3953 155.229 83.9869 154.978 83.5436 154.806C83.3151 154.743 83.0725 154.757 82.8521 154.843C82.6317 154.93 82.4453 155.086 82.321 155.288C82.0505 155.736 81.8145 156.205 81.615 156.689C81.3867 157.156 81.0355 157.553 80.599 157.837C80.2959 158.042 79.9544 158.184 79.595 158.253C79.2357 158.323 78.8659 158.319 78.5081 158.242C78.1503 158.164 77.8118 158.015 77.5132 157.804C77.2146 157.592 76.9619 157.322 76.7705 157.01C76.6409 156.844 76.5594 156.645 76.5352 156.436C76.5352 156.436 76.6327 156.637 76.8623 156.953C77.1926 157.394 77.643 157.731 78.1596 157.923C78.7664 158.127 79.4272 158.1 80.0159 157.848C80.6045 157.596 81.0797 157.137 81.351 156.557C81.5562 156.059 81.7979 155.578 82.0742 155.116C82.2404 154.861 82.478 154.662 82.7572 154.542C83.0327 154.436 83.3352 154.424 83.6182 154.507C84.099 154.691 84.541 154.964 84.9212 155.311C85.2408 155.599 85.6186 155.814 86.029 155.942C86.3936 156.026 86.7722 156.026 87.1368 155.942C87.6735 155.826 88.1586 155.541 88.5201 155.127C88.7727 154.881 88.8531 154.668 88.876 154.68Z" fill="#FAFAFA"/>
  <path d="M92.9681 177.215C92.7393 177.104 92.5252 176.965 92.331 176.801C91.7732 176.388 91.2492 175.932 90.764 175.435C90.4228 175.084 90.1171 174.699 89.8513 174.287C89.5444 173.809 89.3482 173.267 89.2773 172.703C89.183 172.073 89.2852 171.43 89.5701 170.861C89.7267 170.559 89.9483 170.297 90.2187 170.091C90.4866 169.892 90.7686 169.711 91.0624 169.552C91.3409 169.395 91.5975 169.202 91.8258 168.978C92.0331 168.765 92.1849 168.505 92.2678 168.22C92.3991 167.655 92.4186 167.07 92.3252 166.498C92.232 165.952 92.1916 165.399 92.2047 164.845C92.2038 164.337 92.3944 163.847 92.7385 163.473C93.2722 162.996 93.9571 162.721 94.6729 162.698C94.804 162.682 94.937 162.698 95.0608 162.744C95.1847 162.79 95.2957 162.865 95.3846 162.962C95.1671 162.85 94.9231 162.798 94.6786 162.813C94.0088 162.878 93.3792 163.163 92.8877 163.623C92.5924 163.967 92.4368 164.409 92.4515 164.862C92.4544 165.399 92.5024 165.935 92.595 166.464C92.7083 167.078 92.6926 167.71 92.5491 168.318C92.4559 168.651 92.2802 168.955 92.0382 169.202C91.7922 169.44 91.514 169.643 91.2117 169.804C90.6367 170.061 90.154 170.488 89.8284 171.027C89.5696 171.545 89.4716 172.129 89.5471 172.703C89.7079 173.692 90.1876 174.601 90.9132 175.292C92.1243 176.555 93.0025 177.169 92.9681 177.215Z" fill="#FAFAFA"/>
  <path d="M80.9663 188.603C81.0537 188.588 81.1429 188.588 81.2303 188.603C81.4874 188.602 81.7443 188.617 81.9995 188.649C82.9488 188.735 83.8726 189.004 84.7202 189.441C85.3586 189.765 85.919 190.224 86.363 190.786C86.8069 191.348 87.1238 191.999 87.2917 192.695C87.49 193.539 87.3629 194.426 86.9358 195.181C86.7067 195.584 86.3966 195.935 86.0252 196.213C85.6538 196.49 85.2291 196.688 84.7776 196.794C84.3131 196.876 83.8358 196.851 83.3828 196.719C82.9952 196.59 82.5764 196.59 82.1889 196.719C81.8219 196.873 81.5015 197.121 81.259 197.436C81.0267 197.741 80.8212 198.066 80.6448 198.406C80.3309 199.119 79.8086 199.719 79.1467 200.128C78.5403 200.442 77.8411 200.525 77.1779 200.364C76.6324 200.229 76.1487 199.914 75.8061 199.468C75.5479 199.142 75.3673 198.761 75.278 198.355C75.2219 198.1 75.2083 197.839 75.2378 197.58C75.2433 197.489 75.2627 197.4 75.2952 197.316C75.2861 197.655 75.3189 197.995 75.3928 198.326C75.4956 198.708 75.6818 199.063 75.9381 199.365C76.2635 199.751 76.7074 200.02 77.2009 200.128C77.8137 200.264 78.4547 200.176 79.0089 199.882C79.6168 199.488 80.0942 198.922 80.3808 198.257C80.7203 197.458 81.3298 196.804 82.1028 196.409C82.5464 196.263 83.0253 196.263 83.4689 196.409C83.8799 196.534 84.3146 196.559 84.7374 196.484C85.1476 196.386 85.5334 196.205 85.871 195.952C86.2086 195.699 86.4909 195.38 86.7005 195.014C87.0969 194.318 87.2178 193.499 87.0391 192.718C86.8836 192.056 86.5886 191.434 86.1739 190.895C85.7592 190.355 85.2343 189.91 84.6341 189.59C83.8158 189.149 82.9256 188.858 82.0052 188.729C81.3336 188.649 80.9605 188.649 80.9663 188.603Z" fill="#FAFAFA"/>
  <path d="M70.2152 207.59C70.1044 207.169 69.924 206.77 69.6814 206.408C69.3983 206.037 69.0301 205.74 68.6081 205.541C68.1035 205.285 67.5222 205.224 66.9756 205.37C66.429 205.517 65.9556 205.86 65.6463 206.333C65.382 206.707 65.2108 207.138 65.1469 207.59C65.1161 208.025 65.1588 208.461 65.2732 208.882C65.2732 208.882 65.1756 208.784 65.0837 208.566C64.9614 208.248 64.9105 207.907 64.9345 207.567C64.9689 207.06 65.133 206.57 65.4109 206.144C65.742 205.597 66.2716 205.2 66.889 205.035C67.5063 204.871 68.1635 204.951 68.7229 205.26C69.1862 205.484 69.5821 205.827 69.8708 206.253C70.0609 206.534 70.1864 206.853 70.2382 207.189C70.2497 207.43 70.2325 207.59 70.2152 207.59Z" fill="#FAFAFA"/>
  <path d="M72.0353 215.913C72.0353 215.913 71.9836 215.644 71.777 215.207C71.4892 214.595 71.004 214.098 70.3994 213.795C69.9542 213.589 69.4634 213.5 68.974 213.537C68.4846 213.574 68.0129 213.736 67.604 214.008C67.1379 214.363 66.7475 214.808 66.4561 215.316C66.2686 215.59 66.0489 215.841 65.8017 216.063C65.5209 216.301 65.1654 216.433 64.7972 216.436C64.4539 216.391 64.1237 216.276 63.8273 216.097C63.5309 215.918 63.2748 215.68 63.0752 215.397C62.7371 214.914 62.3267 214.486 61.8584 214.128C61.4119 213.861 60.8836 213.765 60.3717 213.858C59.9185 213.935 59.4886 214.113 59.1147 214.381C58.5782 214.795 58.1295 215.312 57.7945 215.902C57.6784 216.127 57.546 216.344 57.3984 216.55C57.4616 216.304 57.5602 216.068 57.6912 215.85C57.9988 215.217 58.4416 214.658 58.9884 214.214C59.3833 213.918 59.8441 213.721 60.3315 213.64C60.9051 213.523 61.5018 213.621 62.0076 213.916C62.5048 214.283 62.9408 214.727 63.2991 215.23C63.4735 215.479 63.6968 215.69 63.9553 215.85C64.2139 216.01 64.5023 216.115 64.8029 216.16C65.4171 216.16 65.8648 215.661 66.215 215.167C66.5364 214.634 66.9596 214.17 67.4605 213.801C67.8303 213.551 68.2516 213.387 68.6933 213.322C69.135 213.257 69.5857 213.292 70.0119 213.425C70.4382 213.558 70.829 213.785 71.1554 214.09C71.4818 214.394 71.7355 214.768 71.8975 215.184C71.9692 215.369 72.0175 215.562 72.041 215.758C72.0697 215.844 72.0697 215.913 72.0353 215.913Z" fill="#FAFAFA"/>
  <path d="M76.4604 195.089C75.9455 194.771 75.3892 194.526 74.8072 194.36C74.1764 194.206 73.5223 194.17 72.8786 194.257C72.0911 194.349 71.3403 194.642 70.6975 195.106C70.0649 195.579 69.5857 196.228 69.3199 196.972C69.1026 197.582 69.0318 198.235 69.1132 198.877C69.2208 199.47 69.4264 200.04 69.7217 200.565C69.7217 200.565 69.5782 200.45 69.4002 200.18C69.1512 199.793 68.9814 199.359 68.9009 198.906C68.7784 198.152 68.8645 197.379 69.1498 196.671C69.4351 195.963 69.9088 195.346 70.5195 194.888C71.1942 194.398 71.9862 194.095 72.8155 194.01C73.4937 193.928 74.1813 193.987 74.8359 194.182C75.2755 194.301 75.6911 194.495 76.0643 194.756C76.3513 194.963 76.4718 195.077 76.4604 195.089Z" fill="#FAFAFA"/>
</svg>
