<svg width="400" height="400" viewBox="0 0 400 400" fill="none" xmlns="http://www.w3.org/2000/svg">
<path d="M206.479 385.326C303.039 385.326 381.316 378.453 381.316 369.975C381.316 361.496 303.039 354.623 206.479 354.623C109.919 354.623 31.6416 361.496 31.6416 369.975C31.6416 378.453 109.919 385.326 206.479 385.326Z" fill="#9E9E9E"/>
<path opacity="0.5" d="M206.479 385.326C303.039 385.326 381.316 378.453 381.316 369.975C381.316 361.496 303.039 354.623 206.479 354.623C109.919 354.623 31.6416 361.496 31.6416 369.975C31.6416 378.453 109.919 385.326 206.479 385.326Z" fill="white"/>
<path d="M28.1919 175.804V184.882" stroke="#212121" stroke-linecap="round" stroke-linejoin="round"/>
<path d="M32.7363 180.348H23.6582" stroke="#212121" stroke-linecap="round" stroke-linejoin="round"/>
<path d="M337.963 98.0211V107.099" stroke="#212121" stroke-linecap="round" stroke-linejoin="round"/>
<path d="M342.497 102.565H333.418" stroke="#212121" stroke-linecap="round" stroke-linejoin="round"/>
<path d="M209.007 27.7504V36.8285" stroke="#212121" stroke-linecap="round" stroke-linejoin="round"/>
<path d="M213.54 32.2844H204.462" stroke="#212121" stroke-linecap="round" stroke-linejoin="round"/>
<path d="M59.582 277.474V286.552" stroke="#212121" stroke-linecap="round" stroke-linejoin="round"/>
<path d="M64.1157 282.008H55.0376" stroke="#212121" stroke-linecap="round" stroke-linejoin="round"/>
<path d="M333.899 65.3011C333.901 66.7874 333.463 68.2408 332.638 69.4775C331.814 70.7142 330.642 71.6786 329.269 72.2488C327.897 72.8189 326.386 72.9692 324.928 72.6805C323.47 72.3918 322.131 71.6771 321.079 70.6269C320.027 69.5767 319.311 68.2382 319.02 66.7807C318.729 65.3232 318.878 63.8122 319.446 62.439C320.014 61.0657 320.977 59.8918 322.213 59.0659C323.448 58.24 324.901 57.7992 326.387 57.7992C328.378 57.7992 330.287 58.5892 331.695 59.9958C333.104 61.4024 333.897 63.3106 333.899 65.3011Z" stroke="#212121" stroke-linecap="round" stroke-linejoin="round"/>
<path d="M12.6726 245.548C16.5005 243.962 18.3182 239.574 16.7327 235.746C15.1471 231.918 10.7587 230.101 6.9309 231.686C3.10307 233.272 1.28534 237.66 2.87088 241.488C4.45642 245.316 8.84482 247.133 12.6726 245.548Z" stroke="#212121" stroke-linecap="round" stroke-linejoin="round"/>
<path d="M368.011 142.06C368.03 142.295 367.999 142.531 367.922 142.754C367.844 142.976 367.722 143.181 367.562 143.354C367.402 143.526 367.208 143.664 366.992 143.759C366.776 143.853 366.543 143.902 366.307 143.902C366.072 143.902 365.839 143.853 365.623 143.759C365.407 143.664 365.213 143.526 365.053 143.354C364.893 143.181 364.77 142.976 364.693 142.754C364.616 142.531 364.585 142.295 364.603 142.06C364.637 141.631 364.831 141.231 365.146 140.938C365.462 140.646 365.877 140.483 366.307 140.483C366.738 140.483 367.152 140.646 367.468 140.938C367.784 141.231 367.978 141.631 368.011 142.06Z" stroke="#212121" stroke-linecap="round" stroke-linejoin="round"/>
<path d="M107.715 117.497C107.717 117.836 107.618 118.167 107.432 118.45C107.245 118.732 106.979 118.953 106.667 119.084C106.355 119.215 106.011 119.25 105.678 119.185C105.346 119.12 105.041 118.959 104.801 118.72C104.561 118.481 104.397 118.177 104.33 117.845C104.263 117.513 104.296 117.169 104.426 116.856C104.555 116.543 104.774 116.276 105.055 116.087C105.336 115.899 105.667 115.799 106.006 115.799C106.457 115.799 106.89 115.977 107.211 116.296C107.531 116.614 107.712 117.046 107.715 117.497V117.497Z" stroke="#212121" stroke-linecap="round" stroke-linejoin="round"/>
<path d="M394.54 218.144V218.093H394.478V218.042C393.056 217.899 378.328 216.64 364.89 223.62C370.826 216.163 373.564 206.656 372.505 197.184C369.26 164.74 338.649 146.175 336.284 144.783V144.793H336.213H336.141C333.777 146.185 303.165 164.751 299.921 197.194C299.228 203.475 300.195 209.827 302.725 215.616C285.49 205.31 265.389 207.05 263.537 207.234V207.173V207.245H263.465V207.296C262.554 209.394 251.051 237.058 264.867 260.567C277.231 281.589 303.155 276.031 310.196 274.056C316.112 280.268 326.899 294.413 331.689 318.546H324.975L328.097 364.315H343.203L346.519 318.607H338.608C342.233 302.249 348.771 286.676 357.91 272.633C364.962 274.394 384.039 277.362 393.444 261.375C404.621 242.288 395.287 219.854 394.54 218.144ZM335.732 217.97L319.766 195.792C319.732 195.746 319.707 195.695 319.694 195.639C319.68 195.584 319.677 195.527 319.686 195.471C319.694 195.415 319.714 195.361 319.744 195.312C319.773 195.264 319.812 195.222 319.858 195.188C319.952 195.119 320.069 195.09 320.184 195.108C320.299 195.125 320.403 195.187 320.472 195.28L335.762 216.517V194.052L319.796 171.884C319.727 171.79 319.698 171.673 319.716 171.558C319.733 171.443 319.795 171.339 319.889 171.27C319.984 171.205 320.102 171.179 320.216 171.198C320.33 171.217 320.433 171.279 320.503 171.372L335.793 192.609V159.858C335.793 159.802 335.804 159.746 335.826 159.694C335.847 159.642 335.879 159.594 335.919 159.554C335.959 159.515 336.006 159.483 336.058 159.461C336.111 159.44 336.166 159.429 336.223 159.429C336.337 159.429 336.446 159.474 336.527 159.554C336.608 159.635 336.653 159.744 336.653 159.858V191.473L353.233 170.451C353.303 170.36 353.407 170.301 353.521 170.287C353.636 170.272 353.751 170.304 353.842 170.374C353.933 170.445 353.992 170.549 354.006 170.663C354.021 170.777 353.989 170.892 353.919 170.983L336.653 192.875V215.391L353.233 194.359C353.305 194.269 353.41 194.211 353.525 194.197C353.64 194.184 353.756 194.216 353.847 194.288C353.891 194.323 353.928 194.366 353.956 194.415C353.984 194.464 354.001 194.519 354.008 194.575C354.014 194.631 354.01 194.688 353.995 194.742C353.979 194.796 353.953 194.847 353.919 194.891L336.653 216.793V235.881L353.233 214.859C353.303 214.768 353.407 214.709 353.521 214.695C353.636 214.68 353.751 214.712 353.842 214.782C353.933 214.853 353.992 214.957 354.006 215.071C354.021 215.185 353.989 215.3 353.919 215.391L336.653 237.283V237.703H335.261L319.817 216.21C319.748 216.116 319.719 215.999 319.736 215.884C319.753 215.769 319.816 215.665 319.909 215.596C320.005 215.531 320.122 215.505 320.237 215.524C320.351 215.543 320.454 215.605 320.523 215.698L335.762 236.904V217.929L335.732 217.97ZM310.36 272.101L308.794 269.952L286.278 263.688C286.188 263.658 286.113 263.594 286.067 263.511C286.022 263.428 286.009 263.33 286.033 263.238C286.059 263.145 286.121 263.065 286.205 263.018C286.289 262.97 286.389 262.957 286.483 262.982L308.057 269L298.672 256.166L276.156 249.902C276.063 249.876 275.984 249.814 275.936 249.73C275.888 249.645 275.875 249.546 275.9 249.452C275.931 249.362 275.994 249.287 276.078 249.241C276.161 249.196 276.258 249.183 276.351 249.206L297.935 255.224L286.841 240.036L264.325 233.773C264.279 233.761 264.237 233.74 264.199 233.711C264.162 233.682 264.131 233.646 264.108 233.605C264.085 233.564 264.071 233.519 264.066 233.472C264.061 233.425 264.065 233.378 264.079 233.333C264.091 233.287 264.112 233.244 264.141 233.206C264.169 233.168 264.205 233.137 264.246 233.113C264.287 233.089 264.332 233.074 264.379 233.067C264.426 233.061 264.474 233.064 264.519 233.077L286.104 239.095L270.496 217.745C270.44 217.666 270.417 217.568 270.432 217.473C270.448 217.377 270.5 217.291 270.578 217.234C270.616 217.204 270.659 217.183 270.705 217.172C270.752 217.16 270.8 217.158 270.847 217.166C270.894 217.173 270.939 217.191 270.979 217.216C271.019 217.242 271.053 217.276 271.08 217.315L287.23 239.402L287.158 217.51C287.161 217.413 287.201 217.321 287.269 217.252C287.338 217.184 287.43 217.144 287.527 217.141C287.623 217.144 287.714 217.184 287.781 217.253C287.848 217.322 287.885 217.414 287.885 217.51L288.049 240.364L299.143 255.542L298.979 233.65C298.97 233.597 298.973 233.543 298.987 233.491C299.001 233.44 299.027 233.392 299.061 233.351C299.096 233.31 299.139 233.277 299.188 233.254C299.236 233.232 299.289 233.22 299.343 233.22C299.396 233.22 299.449 233.232 299.498 233.254C299.546 233.277 299.589 233.31 299.624 233.351C299.659 233.392 299.684 233.44 299.698 233.491C299.712 233.543 299.715 233.597 299.706 233.65L299.87 256.514L309.245 269.338L309.081 247.446C309.083 247.35 309.123 247.259 309.192 247.192C309.261 247.125 309.353 247.088 309.449 247.088C309.544 247.088 309.635 247.126 309.703 247.193C309.77 247.26 309.807 247.351 309.807 247.446L309.971 270.31L311.312 272.142L310.36 272.101ZM312.919 272.101C316.194 267.117 325.651 250.752 320.001 235.001C324.393 237.898 329.092 240.301 334.012 242.165V313.234C328.823 291.455 319.06 278.436 313.103 272.101H312.919ZM337.482 308.854V242.492C342.164 240.792 346.655 238.604 350.879 235.963C341.862 250.414 351.964 267.107 354.625 271.047C347.05 282.72 341.271 295.464 337.482 308.854ZM393.69 239.576L375.462 244.693L366.456 256.974L383.967 252.093C384.005 252.08 384.045 252.076 384.084 252.079C384.123 252.083 384.162 252.095 384.196 252.114C384.231 252.133 384.261 252.16 384.285 252.191C384.309 252.223 384.326 252.259 384.336 252.297C384.355 252.372 384.344 252.451 384.306 252.518C384.268 252.585 384.205 252.634 384.131 252.655L365.903 257.773L358.289 268.181L375.8 263.299C375.875 263.28 375.954 263.291 376.021 263.329C376.087 263.368 376.137 263.43 376.158 263.504C376.178 263.58 376.167 263.66 376.129 263.729C376.091 263.797 376.028 263.849 375.954 263.873L357.726 268.99L356.764 270.3C356.59 270.197 356.426 270.105 356.262 269.993L356.805 269.246L356.948 250.701C356.94 250.658 356.941 250.614 356.952 250.571C356.963 250.529 356.983 250.49 357.011 250.456C357.039 250.423 357.074 250.396 357.113 250.377C357.153 250.359 357.196 250.349 357.24 250.349C357.283 250.349 357.326 250.359 357.366 250.377C357.405 250.396 357.44 250.423 357.468 250.456C357.496 250.49 357.516 250.529 357.527 250.571C357.538 250.614 357.539 250.658 357.531 250.701L357.409 268.468L364.941 258.008L365.074 239.463C365.074 239.425 365.082 239.386 365.097 239.351C365.112 239.315 365.134 239.283 365.162 239.257C365.189 239.23 365.222 239.209 365.258 239.195C365.294 239.181 365.333 239.175 365.371 239.176C365.41 239.176 365.449 239.184 365.485 239.199C365.521 239.214 365.553 239.236 365.581 239.263C365.608 239.291 365.63 239.324 365.645 239.36C365.66 239.396 365.668 239.434 365.668 239.473L365.535 257.23L374.541 244.949L374.674 226.404C374.674 226.365 374.682 226.326 374.697 226.29C374.712 226.254 374.734 226.221 374.761 226.194C374.789 226.166 374.821 226.144 374.857 226.13C374.893 226.115 374.932 226.107 374.971 226.107C375.01 226.107 375.048 226.115 375.083 226.13C375.119 226.145 375.151 226.167 375.177 226.194C375.204 226.222 375.225 226.255 375.239 226.291C375.253 226.327 375.259 226.365 375.258 226.404L375.135 244.161L388.235 226.24C388.282 226.178 388.351 226.138 388.427 226.126C388.504 226.115 388.582 226.133 388.644 226.179C388.676 226.201 388.703 226.229 388.723 226.262C388.743 226.295 388.757 226.332 388.763 226.37C388.768 226.408 388.766 226.447 388.757 226.485C388.747 226.522 388.73 226.557 388.706 226.588L376.046 243.915L393.557 239.033C393.632 239.014 393.711 239.025 393.778 239.063C393.844 239.101 393.894 239.164 393.915 239.238C393.924 239.275 393.925 239.313 393.919 239.351C393.912 239.389 393.898 239.424 393.877 239.456C393.855 239.488 393.828 239.515 393.796 239.535C393.764 239.556 393.728 239.57 393.69 239.576Z" fill="black" fill-opacity="0.87"/>
<path d="M294.209 58.9045H136.187C132.372 58.9045 129.279 61.9975 129.279 65.8128V361.684C129.279 365.5 132.372 368.593 136.187 368.593H294.209C298.025 368.593 301.117 365.5 301.117 361.684V65.8128C301.117 61.9975 298.025 58.9045 294.209 58.9045Z" fill="#212121" stroke="#212121" stroke-linecap="round" stroke-linejoin="round"/>
<path d="M288.754 58.9045H130.732C126.917 58.9045 123.824 61.9975 123.824 65.8128V361.684C123.824 365.5 126.917 368.593 130.732 368.593H288.754C292.569 368.593 295.662 365.5 295.662 361.684V65.8128C295.662 61.9975 292.569 58.9045 288.754 58.9045Z" fill="white"/>
<path d="M295.662 175.763L144.559 368.603H288.764C290.594 368.6 292.349 367.871 293.642 366.576C294.936 365.281 295.662 363.525 295.662 361.695V175.763Z" fill="#9E9E9E"/>
<path opacity="0.5" d="M295.662 175.763L144.559 368.603H288.764C290.594 368.6 292.349 367.871 293.642 366.576C294.936 365.281 295.662 363.525 295.662 361.695V175.763Z" fill="white"/>
<path d="M288.754 58.9045H130.732C126.917 58.9045 123.824 61.9975 123.824 65.8128V361.684C123.824 365.5 126.917 368.593 130.732 368.593H288.754C292.569 368.593 295.662 365.5 295.662 361.684V65.8128C295.662 61.9975 292.569 58.9045 288.754 58.9045Z" stroke="#212121" stroke-linecap="round" stroke-linejoin="round"/>
<path d="M221.656 77.4086H200.266C199.682 77.4086 199.123 77.1768 198.71 76.7641C198.297 76.3514 198.065 75.7918 198.065 75.2082C198.065 74.9197 198.122 74.634 198.233 74.3676C198.344 74.1012 198.506 73.8593 198.711 73.6558C198.915 73.4523 199.158 73.2912 199.425 73.1817C199.691 73.0723 199.977 73.0166 200.266 73.018H221.656C222.237 73.018 222.794 73.2487 223.205 73.6595C223.616 74.0702 223.846 74.6273 223.846 75.2082C223.848 75.4966 223.792 75.7826 223.683 76.0495C223.573 76.3164 223.412 76.559 223.208 76.7635C223.005 76.968 222.763 77.1302 222.497 77.2409C222.23 77.3516 221.945 77.4086 221.656 77.4086Z" fill="#212121" stroke="#212121" stroke-linecap="round" stroke-linejoin="round"/>
<path d="M284.803 340.918H134.662V77.6645H170.248L174.249 80.9805C175.646 82.1436 177.406 82.7809 179.223 82.7818H242.013C243.898 82.7742 245.716 82.0833 247.13 80.8372L250.753 77.6645H284.803V340.918Z" fill="#F5F5F5" stroke="#212121" stroke-linecap="round" stroke-linejoin="round"/>
<path d="M162.848 284.157H256.638" stroke="#212121" stroke-linecap="round" stroke-linejoin="round"/>
<path d="M162.848 296.5H256.638" stroke="#212121" stroke-linecap="round" stroke-linejoin="round"/>
<path d="M162.848 308.843H256.638" stroke="#212121" stroke-linecap="round" stroke-linejoin="round"/>
<path d="M171.507 169.561C165.613 178.101 162.75 188.371 163.377 198.729C164.004 209.087 168.084 218.936 174.965 226.703C181.846 234.47 191.132 239.708 201.339 241.579C211.546 243.449 222.085 241.846 231.274 237.024C240.463 232.202 247.77 224.439 252.03 214.977C256.289 205.515 257.255 194.898 254.773 184.822C252.29 174.746 246.503 165.793 238.335 159.392C230.167 152.992 220.09 149.513 209.713 149.511C206.867 149.511 204.028 149.768 201.229 150.279" stroke="#212121" stroke-linecap="round" stroke-linejoin="round"/>
<path d="M179.418 160.79C177.859 162.139 176.388 163.589 175.017 165.129" stroke="#212121" stroke-linecap="round" stroke-linejoin="round"/>
<path d="M245.976 211.366C254.499 191.355 245.186 168.224 225.175 159.701C205.164 151.178 182.033 160.491 173.51 180.502C164.987 200.513 174.3 223.644 194.311 232.167C214.322 240.69 237.453 231.377 245.976 211.366Z" fill="#B75400"/>
<path d="M191.556 191.842L206.499 208.821L230.939 174.197" stroke="#F5F5F5" stroke-width="6" stroke-linecap="round" stroke-linejoin="round"/>
<path d="M247.171 80.8372C245.757 82.0833 243.938 82.7742 242.054 82.7818H179.244C177.426 82.7809 175.667 82.1436 174.27 80.9805L170.268 77.6645H134.662V104.592H284.803V77.6645H250.794L247.171 80.8372Z" fill="#B75400" stroke="#212121" stroke-linecap="round" stroke-linejoin="round"/>
<path d="M214.543 349.035C214.545 348.358 214.346 347.695 213.971 347.132C213.597 346.568 213.063 346.128 212.438 345.868C211.813 345.608 211.125 345.54 210.461 345.671C209.796 345.803 209.186 346.128 208.708 346.607C208.229 347.086 207.903 347.696 207.772 348.36C207.64 349.024 207.709 349.712 207.969 350.337C208.229 350.962 208.668 351.496 209.232 351.871C209.796 352.246 210.458 352.445 211.135 352.443C212.038 352.44 212.903 352.08 213.542 351.441C214.181 350.803 214.541 349.938 214.543 349.035Z" fill="#212121" stroke="#212121" stroke-linecap="round" stroke-linejoin="round"/>
<path d="M81.0126 244.335L67.6258 364.079C67.6258 364.079 57.8108 372.615 58.6705 376.064C59.5302 379.513 70.8599 374.017 72.4258 371.172C73.5371 368.804 74.3287 366.298 74.7798 363.721L102.966 273.657L124.643 370.241C124.643 370.241 133.854 377.804 138.971 377.548C144.088 377.292 142.267 375.276 139.35 371.581C136.433 367.887 129.832 365.778 129.832 365.778L126.577 241.295L81.0126 244.335Z" fill="#212121" stroke="#212121" stroke-linecap="round" stroke-linejoin="round"/>
<path d="M125.842 239.2L80.8677 241.487L81.1794 247.619L126.154 245.333L125.842 239.2Z" fill="#212121" stroke="#212121" stroke-linecap="round" stroke-linejoin="round"/>
<path d="M108.769 243.096C108.84 244.621 106.906 245.952 104.429 246.085C101.953 246.218 99.8647 245.092 99.8647 243.557C99.8647 242.022 101.738 240.701 104.204 240.579C106.671 240.456 108.687 241.582 108.769 243.096Z" fill="white"/>
<path d="M101.062 180.174L84.1543 185.128L86.2524 241.643L125.911 240.661L120.896 182.242L101.062 180.174Z" fill="white" stroke="#212121" stroke-linecap="round" stroke-linejoin="round"/>
<path d="M93.6621 180.809L91.39 277.249L69.8564 266.82L79.3234 236.362L72.8654 184.933L93.6621 180.809Z" fill="#B75400" stroke="#212121" stroke-linecap="round" stroke-linejoin="round"/>
<path d="M110.785 179.939L122.821 275.653L143.198 263.095L130.691 233.752L131.899 181.935L110.785 179.939Z" fill="#B75400" stroke="#212121" stroke-linecap="round" stroke-linejoin="round"/>
<path d="M97.9707 191.606L101.328 197.072L98.6462 235.124L105.012 242.656L108.308 233.609L103.211 197.143L106.353 191.862L101.788 185.947L97.9707 191.606Z" fill="#212121" stroke="#212121" stroke-linecap="round" stroke-linejoin="round"/>
<path d="M102.126 190.88L95.7912 195.649L90.7148 183.265L93.5703 178.844L109.076 178.056L112.74 182.999L109.72 194.257L102.126 190.88Z" fill="white" stroke="#212121" stroke-linecap="round" stroke-linejoin="round"/>
<path d="M94.8599 174.085L96.2825 181.955L102.126 190.88L107.479 180.358L107.141 173.716L94.8599 174.085Z" fill="white" stroke="#212121" stroke-linecap="round" stroke-linejoin="round"/>
<path d="M72.8657 184.933L44.1475 219.7L63.235 242.298L70.9211 237.304L61.4848 218.052L75.5676 207.859L72.8657 184.933Z" fill="#B75400" stroke="#212121" stroke-linecap="round" stroke-linejoin="round"/>
<path d="M70.9209 237.304L72.0672 239.801L65.5989 243.465L64.729 241.459L70.9209 237.304Z" fill="white" stroke="#212121" stroke-linecap="round" stroke-linejoin="round"/>
<path d="M72.0679 239.801L78.659 248.439L76.4892 251.11L74.9131 250.424L71.7199 253.147C71.7199 253.147 69.3864 252.492 69.0896 251.745C68.7928 250.997 65.6303 249.094 65.5587 247.825C65.4871 246.556 65.5587 243.465 65.5587 243.465L72.0679 239.801Z" fill="white" stroke="#212121" stroke-linecap="round" stroke-linejoin="round"/>
<path d="M147.895 188.72C148.284 187.705 148.37 186.599 148.141 185.537C147.67 184.319 146.626 180.102 146.831 178.711C147.036 177.319 149.144 175.292 149.328 173.491C149.512 171.69 149.328 170.042 149.328 169.07C149.345 168.803 149.448 168.55 149.62 168.347C149.793 168.143 150.027 168.001 150.286 167.942C150.546 167.882 150.819 167.907 151.063 168.015C151.307 168.122 151.51 168.305 151.641 168.537C152.665 169.725 153.279 170.943 152.787 172.201C152.453 173.609 152.295 175.053 152.317 176.5C152.317 176.5 153.954 178.762 154.855 180.236C155.756 181.709 155.674 185.568 155.07 187.113C154.507 188.283 153.713 189.328 152.736 190.184L152.839 192.845L147.895 188.72Z" fill="white" stroke="#212121" stroke-linecap="round" stroke-linejoin="round"/>
<path d="M150.884 174.371C150.884 174.371 150.167 176.48 151.426 176.961C152.685 177.442 157.833 178.158 157.884 176.5C157.935 174.842 158.038 174.013 157.209 174.054C156.38 174.095 152.521 174.054 152.521 174.054C152.521 174.054 150.73 173.962 150.884 174.371Z" fill="white" stroke="#212121" stroke-linecap="round" stroke-linejoin="round"/>
<path d="M151.467 184.708C151.467 184.708 150.956 186.274 151.867 186.632C152.778 186.99 156.482 187.533 156.513 186.294C156.544 185.056 156.615 184.442 156.022 184.473C155.428 184.503 152.644 184.473 152.644 184.473C152.644 184.473 151.355 184.381 151.467 184.708Z" fill="white" stroke="#212121" stroke-linecap="round" stroke-linejoin="round"/>
<path d="M150.781 181.361C150.781 181.361 150.188 183.183 151.242 183.603C152.296 184.022 156.584 184.626 156.625 183.214C156.666 181.801 156.748 181.065 156.052 181.095C155.356 181.126 152.142 181.095 152.142 181.095C152.142 181.095 150.648 181.013 150.781 181.361Z" fill="white" stroke="#212121" stroke-linecap="round" stroke-linejoin="round"/>
<path d="M150.383 178.117C150.383 178.117 149.666 180.225 150.935 180.706C152.204 181.187 157.332 181.904 157.383 180.246C157.434 178.588 157.537 177.759 156.708 177.8C155.879 177.841 152.02 177.8 152.02 177.8C152.02 177.8 150.229 177.718 150.383 178.117Z" fill="white" stroke="#212121" stroke-linecap="round" stroke-linejoin="round"/>
<path d="M147.312 190.818L148.11 187.604L153.657 190.91L152.726 194.4L147.312 190.818Z" fill="white" stroke="#212121" stroke-linecap="round" stroke-linejoin="round"/>
<path d="M131.899 181.934L142.522 204.543L147.742 189.999L152.859 194.871L147.619 221.829C147.456 222.659 147.053 223.423 146.461 224.027C145.87 224.632 145.114 225.05 144.287 225.23C143.461 225.411 142.6 225.346 141.81 225.043C141.02 224.741 140.335 224.214 139.841 223.528L131.356 211.686L131.899 181.934Z" fill="#B75400" stroke="#212121" stroke-linecap="round" stroke-linejoin="round"/>
<path d="M89.9172 164.894C89.9172 164.894 87.768 162.601 87.4916 164.28C87.2153 165.958 88.0852 168.855 89.4362 169.888C90.7872 170.922 91.9744 169.213 91.9744 169.213L89.9172 164.894Z" fill="white" stroke="#212121" stroke-linecap="round" stroke-linejoin="round"/>
<path d="M110.233 163.86C110.233 163.86 112.126 161.363 112.587 163C113.047 164.638 112.454 167.616 111.215 168.783C109.977 169.95 108.616 168.363 108.616 168.363L110.233 163.86Z" fill="white" stroke="#212121" stroke-linecap="round" stroke-linejoin="round"/>
<path d="M90.7767 167.248L88.7298 162.919C87.0823 160.6 85.942 157.96 85.3831 155.171C84.3596 150.422 86.0483 146.472 88.1976 145.254C89.4055 144.531 90.8316 144.262 92.2198 144.496C92.2198 144.496 92.6292 141.713 99.384 139.379C106.139 137.046 113.487 141.252 113.375 142.726C113.262 144.2 111.461 144.855 111.461 144.855C111.461 144.855 116.721 146.799 114.818 149.286C113.644 150.805 112.125 152.023 110.386 152.838C110.768 154.092 111.079 155.366 111.318 156.655C111.584 158.303 110.1 165.385 110.1 165.385L106.466 155.427L95.065 156.01C95.065 156.01 94.3895 160.841 93.1818 162.56C92.4109 163.866 91.9815 165.344 91.9332 166.859C91.9332 166.859 91.401 168.681 90.7767 167.248Z" fill="#212121" stroke="#212121" stroke-linecap="round" stroke-linejoin="round"/>
<path d="M92.8024 149.256C92.7829 152.228 92.5675 155.195 92.1576 158.139C91.911 159.777 91.0648 161.265 89.7832 162.315C89.7832 162.315 91.2365 169.059 93.0787 172.652C94.921 176.244 98.7487 179.192 102.607 178.793C106.466 178.393 109.546 174.013 109.915 170.308C110.283 166.603 108.472 152.909 108.472 152.909C108.472 152.909 96.4152 155.028 92.8024 149.256Z" fill="white" stroke="#212121" stroke-linecap="round" stroke-linejoin="round"/>
<path d="M93.8257 163.103C94.4402 162.739 95.1341 162.531 95.8473 162.495C96.5605 162.459 97.2717 162.598 97.9195 162.898" stroke="#212121" stroke-linecap="round" stroke-linejoin="round"/>
<path d="M93.6621 160.033C93.6621 160.033 93.8975 157.986 97.3158 157.801" stroke="#212121" stroke-linecap="round" stroke-linejoin="round"/>
<path d="M102.761 157.351C103.535 157.034 104.389 156.973 105.2 157.178C106.01 157.382 106.734 157.841 107.264 158.487" stroke="#212121" stroke-linecap="round" stroke-linejoin="round"/>
<path d="M101.563 160.657C101.563 160.657 102.105 164.751 102.136 165.252C102.167 165.754 103.876 165.846 103.415 166.89C102.955 167.934 101.471 169.039 100.232 168.251" stroke="#212121" stroke-linecap="round" stroke-linejoin="round"/>
<path d="M103.488 171.679C103.488 171.679 102.188 172.938 99.5679 171.874" stroke="#212121" stroke-linecap="round" stroke-linejoin="round"/>
<path d="M106.077 161.967C106.077 162.724 105.759 163.359 105.289 163.379C104.818 163.4 104.408 162.806 104.367 162.059C104.327 161.312 104.685 160.677 105.156 160.647C105.626 160.616 106.005 161.22 106.077 161.967Z" fill="#212121"/>
</svg>
