<svg width="401" height="400" viewBox="0 0 401 400" fill="none" xmlns="http://www.w3.org/2000/svg">
<path d="M346.799 143.493V152.89H383.418" stroke="#212121" stroke-linecap="round" stroke-linejoin="round"/>
<path d="M364.761 155.057V165.895H341.959" stroke="#212121" stroke-linecap="round" stroke-linejoin="round"/>
<path d="M347.494 169.505V178.175H377.199" stroke="#212121" stroke-linecap="round" stroke-linejoin="round"/>
<path d="M374.441 166.622H391.025" stroke="#212121" stroke-linecap="round" stroke-linejoin="round"/>
<path d="M364.761 182.51V194.801" stroke="#212121" stroke-linecap="round" stroke-linejoin="round"/>
<path d="M387.563 151.448V142.052" stroke="#212121" stroke-linecap="round" stroke-linejoin="round"/>
<path d="M366.15 139.158V129.046" stroke="#212121" stroke-linecap="round" stroke-linejoin="round"/>
<path d="M378.587 140.61H400" stroke="#212121" stroke-linecap="round" stroke-linejoin="round"/>
<path d="M308.108 40.8989V50.2848H344.727" stroke="#212121" stroke-linecap="round" stroke-linejoin="round"/>
<path d="M326.07 52.4525V63.2907H303.268" stroke="#212121" stroke-linecap="round" stroke-linejoin="round"/>
<path d="M308.792 66.9105V75.581H338.508" stroke="#212121" stroke-linecap="round" stroke-linejoin="round"/>
<path d="M335.74 64.0168H352.324" stroke="#212121" stroke-linecap="round" stroke-linejoin="round"/>
<path d="M326.07 79.9164V92.1961" stroke="#212121" stroke-linecap="round" stroke-linejoin="round"/>
<path d="M348.873 48.8433V39.4466" stroke="#212121" stroke-linecap="round" stroke-linejoin="round"/>
<path d="M327.45 36.5637V26.4409" stroke="#212121" stroke-linecap="round" stroke-linejoin="round"/>
<path d="M339.886 38.0052H361.31" stroke="#212121" stroke-linecap="round" stroke-linejoin="round"/>
<path d="M200.315 278.612V288.009H236.934" stroke="#212121" stroke-linecap="round" stroke-linejoin="round"/>
<path d="M218.276 290.177V301.015H195.474" stroke="#212121" stroke-linecap="round" stroke-linejoin="round"/>
<path d="M201 304.624V313.295H230.715" stroke="#212121" stroke-linecap="round" stroke-linejoin="round"/>
<path d="M227.948 301.73H244.531" stroke="#212121" stroke-linecap="round" stroke-linejoin="round"/>
<path d="M218.278 317.63V329.909" stroke="#212121" stroke-linecap="round" stroke-linejoin="round"/>
<path d="M241.08 286.557V277.171" stroke="#212121" stroke-linecap="round" stroke-linejoin="round"/>
<path d="M219.656 274.277V264.165" stroke="#212121" stroke-linecap="round" stroke-linejoin="round"/>
<path d="M232.094 275.719H253.518" stroke="#212121" stroke-linecap="round" stroke-linejoin="round"/>
<path d="M38.625 238.154V247.539H75.2435" stroke="#212121" stroke-linecap="round" stroke-linejoin="round"/>
<path d="M56.587 249.707V260.545H33.7847" stroke="#212121" stroke-linecap="round" stroke-linejoin="round"/>
<path d="M39.3091 264.165V272.836H69.0247" stroke="#212121" stroke-linecap="round" stroke-linejoin="round"/>
<path d="M66.2578 261.271H82.8413" stroke="#212121" stroke-linecap="round" stroke-linejoin="round"/>
<path d="M56.5869 277.171V289.451" stroke="#212121" stroke-linecap="round" stroke-linejoin="round"/>
<path d="M79.3896 246.098V236.701" stroke="#212121" stroke-linecap="round" stroke-linejoin="round"/>
<path d="M57.9653 233.818V223.696" stroke="#212121" stroke-linecap="round" stroke-linejoin="round"/>
<path d="M70.4038 235.26H91.8276" stroke="#212121" stroke-linecap="round" stroke-linejoin="round"/>
<path d="M243.153 304.624V314.021H279.771" stroke="#212121" stroke-linecap="round" stroke-linejoin="round"/>
<path d="M261.115 316.188V327.027H238.312" stroke="#212121" stroke-linecap="round" stroke-linejoin="round"/>
<path d="M243.847 330.636V339.306H273.552" stroke="#212121" stroke-linecap="round" stroke-linejoin="round"/>
<path d="M270.795 327.742H287.379" stroke="#212121" stroke-linecap="round" stroke-linejoin="round"/>
<path d="M261.115 343.642V355.921" stroke="#212121" stroke-linecap="round" stroke-linejoin="round"/>
<path d="M283.917 312.568V303.183" stroke="#212121" stroke-linecap="round" stroke-linejoin="round"/>
<path d="M262.504 300.289V290.177" stroke="#212121" stroke-linecap="round" stroke-linejoin="round"/>
<path d="M274.941 301.73H296.355" stroke="#212121" stroke-linecap="round" stroke-linejoin="round"/>
<path d="M109.105 304.624V314.021H145.723" stroke="#212121" stroke-linecap="round" stroke-linejoin="round"/>
<path d="M127.067 316.188V327.027H104.265" stroke="#212121" stroke-linecap="round" stroke-linejoin="round"/>
<path d="M109.789 330.636V339.306H139.504" stroke="#212121" stroke-linecap="round" stroke-linejoin="round"/>
<path d="M136.737 327.742H153.32" stroke="#212121" stroke-linecap="round" stroke-linejoin="round"/>
<path d="M127.067 343.642V355.921" stroke="#212121" stroke-linecap="round" stroke-linejoin="round"/>
<path d="M149.87 312.569V303.183" stroke="#212121" stroke-linecap="round" stroke-linejoin="round"/>
<path d="M128.446 300.289V290.177" stroke="#212121" stroke-linecap="round" stroke-linejoin="round"/>
<path d="M140.883 301.73H162.307" stroke="#212121" stroke-linecap="round" stroke-linejoin="round"/>
<path d="M13.75 143.493V152.89H50.3685" stroke="#212121" stroke-linecap="round" stroke-linejoin="round"/>
<path d="M31.712 155.057V165.895H8.90967" stroke="#212121" stroke-linecap="round" stroke-linejoin="round"/>
<path d="M14.4346 169.505V178.175H44.1501" stroke="#212121" stroke-linecap="round" stroke-linejoin="round"/>
<path d="M41.3823 166.622H57.9658" stroke="#212121" stroke-linecap="round" stroke-linejoin="round"/>
<path d="M31.7119 182.51V194.801" stroke="#212121" stroke-linecap="round" stroke-linejoin="round"/>
<path d="M54.5137 151.448V142.052" stroke="#212121" stroke-linecap="round" stroke-linejoin="round"/>
<path d="M33.0903 139.158V129.046" stroke="#212121" stroke-linecap="round" stroke-linejoin="round"/>
<path d="M45.5273 140.61H66.9512" stroke="#212121" stroke-linecap="round" stroke-linejoin="round"/>
<path d="M73.8652 57.5137V66.9104H110.484" stroke="#212121" stroke-linecap="round" stroke-linejoin="round"/>
<path d="M91.8272 69.0782V79.9163H69.0249" stroke="#212121" stroke-linecap="round" stroke-linejoin="round"/>
<path d="M74.5488 83.5255V92.1961H104.264" stroke="#212121" stroke-linecap="round" stroke-linejoin="round"/>
<path d="M101.497 80.6316H118.08" stroke="#212121" stroke-linecap="round" stroke-linejoin="round"/>
<path d="M91.8271 96.5312V108.811" stroke="#212121" stroke-linecap="round" stroke-linejoin="round"/>
<path d="M114.629 65.4581V56.0723" stroke="#212121" stroke-linecap="round" stroke-linejoin="round"/>
<path d="M93.2056 53.1786V43.0666" stroke="#212121" stroke-linecap="round" stroke-linejoin="round"/>
<path d="M105.643 54.6199H127.066" stroke="#212121" stroke-linecap="round" stroke-linejoin="round"/>
<path d="M303.268 216.477V225.863H339.887" stroke="#212121" stroke-linecap="round" stroke-linejoin="round"/>
<path d="M321.23 228.031V238.869H298.427" stroke="#212121" stroke-linecap="round" stroke-linejoin="round"/>
<path d="M303.962 242.489V251.159H333.668" stroke="#212121" stroke-linecap="round" stroke-linejoin="round"/>
<path d="M330.911 239.595H347.494" stroke="#212121" stroke-linecap="round" stroke-linejoin="round"/>
<path d="M321.229 255.495V267.774" stroke="#212121" stroke-linecap="round" stroke-linejoin="round"/>
<path d="M344.033 224.422V215.025" stroke="#212121" stroke-linecap="round" stroke-linejoin="round"/>
<path d="M322.619 212.142V202.019" stroke="#212121" stroke-linecap="round" stroke-linejoin="round"/>
<path d="M335.057 213.583H356.47" stroke="#212121" stroke-linecap="round" stroke-linejoin="round"/>
<path d="M30.6758 363.15H383.075" stroke="#212121" stroke-linecap="round" stroke-linejoin="round"/>
<path d="M100.461 400C131.561 400 156.773 391.751 156.773 381.575C156.773 371.399 131.561 363.15 100.461 363.15C69.3614 363.15 44.1499 371.399 44.1499 381.575C44.1499 391.751 69.3614 400 100.461 400Z" fill="#B75400"/>
<path opacity="0.5" d="M100.461 400C131.561 400 156.773 391.751 156.773 381.575C156.773 371.399 131.561 363.15 100.461 363.15C69.3614 363.15 44.1499 371.399 44.1499 381.575C44.1499 391.751 69.3614 400 100.461 400Z" fill="white"/>
<path d="M113.552 26.4408V269.216H316.7V18.4965H160.535L113.552 26.4408Z" fill="#B75400" stroke="#212121" stroke-miterlimit="10"/>
<path d="M293.142 175.65C293.138 173.46 292.323 171.358 290.867 169.783C289.412 168.209 287.43 167.285 285.337 167.207C285.163 167.264 284.981 167.293 284.798 167.294C284.6 167.291 284.404 167.254 284.218 167.185H284.073C283.758 167.04 283.49 166.803 283.303 166.502C283.115 166.201 283.015 165.849 283.015 165.489C283.015 165.13 283.115 164.778 283.303 164.477C283.49 164.175 283.758 163.938 284.073 163.793H284.156C284.361 163.711 284.578 163.667 284.798 163.663C284.982 163.666 285.163 163.699 285.337 163.76C287.436 163.6 289.401 162.618 290.839 161.012C292.278 159.405 293.085 157.291 293.1 155.09V152.89C293.1 151.739 292.883 150.599 292.462 149.536C292.04 148.473 291.423 147.507 290.644 146.694C289.865 145.88 288.941 145.235 287.923 144.796C286.906 144.357 285.816 144.131 284.715 144.133C284.267 144.097 283.849 143.885 283.543 143.541C283.238 143.196 283.068 142.744 283.068 142.274C283.068 141.804 283.238 141.351 283.543 141.007C283.849 140.662 284.267 140.451 284.715 140.415H284.819C286.862 140.389 288.812 139.523 290.248 138.003C291.684 136.484 292.489 134.433 292.489 132.297V128.569C292.489 126.413 291.67 124.346 290.212 122.821C288.754 121.297 286.777 120.44 284.715 120.44H236.468C237.024 116.227 237.782 112.045 238.738 107.911C240.033 102.839 245.858 95.3824 246.832 86.235C247.807 77.0876 241.329 59.4756 233.555 57.7848C225.782 56.0941 224.165 62.5211 224.486 71.6685C224.807 80.8159 212.826 97.0623 204.731 105.538C196.636 114.013 186.686 127.724 186.686 127.724L187.246 192.568L197.279 197.641C207.322 202.724 218.982 203.06 218.982 203.06H279.429C281.147 203.06 282.795 202.346 284.01 201.076C285.225 199.805 285.907 198.082 285.907 196.286V194.595C285.907 190.856 284.674 188.775 282.124 187.821C281.69 187.772 281.288 187.556 280.996 187.216C280.705 186.876 280.543 186.436 280.543 185.979C280.543 185.522 280.705 185.081 280.996 184.741C281.288 184.401 281.69 184.186 282.124 184.136H285.047C286.112 184.136 287.166 183.917 288.15 183.49C289.133 183.063 290.026 182.438 290.778 181.649C291.53 180.861 292.126 179.925 292.532 178.896C292.937 177.866 293.145 176.763 293.142 175.65Z" fill="white" stroke="#212121" stroke-width="5" stroke-linecap="round" stroke-linejoin="round"/>
<path d="M181.877 119.638H151.145C147.47 119.638 144.491 122.754 144.491 126.596V199.039C144.491 202.882 147.47 205.997 151.145 205.997H181.877C185.552 205.997 188.531 202.882 188.531 199.039V126.596C188.531 122.754 185.552 119.638 181.877 119.638Z" fill="#212121"/>
<path d="M147.797 137.716L136.738 103.392C136.263 101.494 135.917 99.5637 135.701 97.6151C135.701 96.1737 141.205 87.8608 141.205 87.8608C141.205 87.8608 139.92 83.9807 142.013 83.3088C144.107 82.6368 148.947 87.5248 149.434 88.3702C149.922 89.2156 149.756 90.8955 149.113 92.4128C148.47 93.9302 144.107 103.381 143.464 103.88C142.822 104.378 151.041 118.89 156.524 126.987C162.007 135.083 166.889 142.496 165.717 145.704C164.546 148.912 159.436 146.376 155.56 144.523C152.694 142.932 150.081 140.884 147.818 138.453L147.797 137.716Z" fill="white" stroke="#212121" stroke-linecap="round" stroke-linejoin="round"/>
<path d="M142.936 87.1996L145.164 88.9446" stroke="#212121" stroke-linecap="round" stroke-linejoin="round"/>
<path d="M64.2057 214.526C64.2057 214.526 66.2786 221.029 72.0932 222.503C77.9078 223.977 93.517 203.829 93.517 203.829L94.2011 197.684L70.7147 200.578C70.7147 200.578 63.1692 205.13 64.2057 214.526Z" fill="white" stroke="#212121" stroke-linecap="round" stroke-linejoin="round"/>
<path d="M152.243 21.3902C152.243 21.3902 147.413 32.586 147.413 33.6698C147.413 34.7536 147.537 35.3822 149.579 35.8374C151.621 36.2926 170.754 40.1077 174.361 39.0889C176.994 38.3844 179.191 24.6416 179.191 24.6416C177.041 24.0713 174.844 23.7085 172.63 23.5578C170.215 23.5578 163.644 22.8316 163.644 22.8316L160.887 25.3569L161.924 22.1055L157.778 21.3902L156.741 23.9155L156.088 21.0217L152.243 21.3902Z" fill="white" stroke="#212121" stroke-miterlimit="10"/>
<path d="M174.361 39.0891C175.398 38.8073 176.434 36.347 177.243 33.5291L148.657 30.0175C148.135 31.1919 147.718 32.4147 147.413 33.67C147.413 34.7538 147.537 35.3824 149.579 35.8376C151.621 36.2928 170.754 40.0537 174.361 39.0891Z" fill="#212121" stroke="#212121" stroke-miterlimit="10"/>
<path d="M69.5851 266.062C69.3287 266.059 69.0769 265.991 68.8517 265.863C68.6266 265.735 68.4349 265.551 68.2937 265.327C68.1524 265.104 68.0659 264.847 68.0417 264.58C68.0174 264.313 68.0563 264.044 68.1548 263.797L160.401 35.1114C160.561 34.7133 160.867 34.3983 161.25 34.2357C161.633 34.0731 162.062 34.0762 162.442 34.2444C162.823 34.4125 163.124 34.7319 163.28 35.1324C163.435 35.5328 163.432 35.9814 163.272 36.3795L71.0258 265.065C70.9046 265.36 70.7037 265.611 70.4478 265.788C70.1919 265.965 69.892 266.061 69.5851 266.062Z" fill="#212121" stroke="#212121" stroke-miterlimit="10"/>
<path d="M137.65 106.286C137.65 106.286 135.577 101.138 136.489 92.933C136.759 90.4944 139.236 87.1996 139.391 86.0183C139.547 84.8369 138.583 83.493 140.034 83.493C141.485 83.493 142.936 85.5089 142.936 87.1996C142.936 88.8904 141.817 91.5349 141.972 92.2611C142.022 93.3296 141.97 94.4006 141.817 95.4583" fill="white"/>
<path d="M137.65 106.286C137.65 106.286 135.577 101.138 136.489 92.933C136.759 90.4944 139.236 87.1996 139.391 86.0183C139.547 84.8369 138.583 83.493 140.034 83.493C141.485 83.493 142.936 85.5089 142.936 87.1996C142.936 88.8904 141.817 91.5349 141.972 92.2611C142.022 93.3296 141.97 94.4006 141.817 95.4583" stroke="#212121" stroke-linecap="round" stroke-linejoin="round"/>
<path d="M113.085 102.178C113.085 102.178 117.75 107.445 118.268 108.811C118.786 110.177 118.641 113.146 118.641 113.688C118.641 114.23 120.133 115.054 120.507 116.224C120.88 117.395 123.492 125.382 123.492 126.553C123.492 127.724 121.813 129.284 120.133 130.065L116.402 131.82L115.842 138.063L101.332 140.404L99.6528 133.771C99.6528 133.771 104.317 132.406 104.835 128.114C105.353 123.822 99.0517 117.785 100.544 110.957C102.037 104.129 108.794 100.617 113.085 102.178Z" fill="white" stroke="#212121" stroke-linecap="round" stroke-linejoin="round"/>
<path d="M111.966 102.568C111.331 104.397 110.893 106.295 110.66 108.226C110.66 109.981 114.578 109.591 114.578 111.737C114.4 113.513 113.893 115.236 113.086 116.81C113.086 116.81 115.159 118.977 114.765 120.061C114.371 121.145 112.692 122.402 112.153 121.036C111.614 119.671 109.168 120.256 110.08 122.987C110.708 124.726 111.66 126.317 112.878 127.669C112.135 129.818 110.921 131.756 109.334 133.327C106.535 136.253 102.244 137.229 101.125 136.448C100.006 135.668 93.8696 130.596 90.6877 125.914C87.5057 121.231 84.7176 113.992 87.5161 106.611C88.4684 104.148 89.9874 101.969 91.9383 100.267C93.8893 98.5659 96.2117 97.3942 98.6996 96.8564C100.565 96.4663 95.528 95.881 97.3936 93.1498C99.2593 90.4186 104.483 88.4677 107.468 90.0284C110.453 91.5891 109.541 93.54 111.199 94.1252C112.858 94.7105 114.558 91.7842 116.237 94.3203C117.916 96.8564 119.812 104.909 111.966 102.568Z" fill="#212121" stroke="#212121" stroke-linecap="round" stroke-linejoin="round"/>
<path d="M110.66 108.226C110.66 108.226 109.966 116.723 105.582 121.893C101.198 127.062 93.4966 128.211 93.4966 128.211" stroke="white" stroke-linecap="round" stroke-linejoin="round"/>
<path d="M99.6528 133.771C99.6528 133.771 103.933 133.945 108.867 129.349" stroke="white" stroke-linecap="round" stroke-linejoin="round"/>
<path d="M114.206 122.651C114.206 122.651 111.407 117.98 109.915 119.725C108.422 121.47 110.288 126.748 112.9 127.724C115.512 128.699 116.445 126.943 116.445 126.943" fill="white"/>
<path d="M114.206 122.651C114.206 122.651 111.407 117.98 109.915 119.725C108.422 121.47 110.288 126.748 112.9 127.724C115.512 128.699 116.445 126.943 116.445 126.943" stroke="#212121" stroke-linecap="round" stroke-linejoin="round"/>
<path d="M93.3213 144.501C93.3213 144.501 94.2437 140.166 96.1094 138.843C97.975 137.521 111.781 135.917 115.512 135.527C119.243 135.137 123.161 137.478 123.161 137.478L125.027 140.794L93.3213 144.501Z" fill="white" stroke="#212121" stroke-linecap="round" stroke-linejoin="round"/>
<path d="M65.916 199.136C65.916 199.136 62.1121 203.471 61.4281 205.639C60.744 207.807 60.3916 212.5 64.1851 215.393C67.9786 218.287 73.8657 219.003 76.6227 217.561C79.3797 216.12 81.121 213.226 81.121 208.522C81.1803 205.919 80.7068 203.332 79.7321 200.935C79.7321 200.935 70.7148 195.159 65.916 199.136Z" fill="white" stroke="#212121" stroke-linecap="round" stroke-linejoin="round"/>
<path d="M143.267 140.61C143.267 140.61 146.024 135.549 151.206 135.191C156.389 134.833 159.156 135.549 162.96 139.158C166.764 142.767 169.562 148.197 167.489 151.806C165.416 155.415 163.343 157.225 159.198 157.583C155.052 157.94 150.906 152.89 150.906 152.89L143.267 140.61Z" fill="white" stroke="#212121" stroke-linecap="round" stroke-linejoin="round"/>
<path d="M118.04 367.843C118.04 367.843 129.099 367.128 131.172 370.011C133.245 372.894 132.032 377.164 124.622 381.467C118.154 385.228 103.384 389.053 98.4197 387.97C92.6155 386.799 95.9322 375.755 95.9322 375.755C95.9322 375.755 111.821 376.514 118.04 367.843Z" fill="white" stroke="#212121" stroke-linecap="round" stroke-linejoin="round"/>
<path d="M131.049 369.87C130.176 372.797 128.582 375.432 126.426 377.511C121.814 381.846 111.107 384.566 104.349 385.607C101.287 386.132 98.1457 385.78 95.2593 384.588C95.3838 385.43 95.7545 386.212 96.3205 386.825C96.8865 387.438 97.62 387.853 98.4205 388.013C103.385 389.021 118.113 385.228 124.622 381.51C132.033 377.175 133.246 372.948 131.173 370.054L131.049 369.87Z" fill="#212121" stroke="#212121" stroke-linecap="round" stroke-linejoin="round"/>
<path d="M65.1799 371.094C65.1799 371.094 63.8014 377.597 65.5323 380.491C67.2632 383.385 76.5811 384.827 80.0429 383.017C83.5047 381.207 84.5308 376.514 84.5308 372.178C84.5308 367.843 78.654 376.882 65.1799 371.094Z" fill="white" stroke="#212121" stroke-linecap="round" stroke-linejoin="round"/>
<path d="M64.7144 377.435C64.7588 378.506 65.039 379.552 65.5332 380.491C67.2537 383.385 76.5819 384.826 80.0437 383.017C81.4786 382.222 82.6092 380.936 83.2464 379.375C73.172 383.082 67.1397 379.516 64.7144 377.435Z" fill="#212121" stroke="#212121" stroke-linecap="round" stroke-linejoin="round"/>
<path d="M84.8727 217.561C84.8727 217.561 82.4578 230.925 82.7998 233.45C83.1418 235.975 84.1887 242.12 84.1887 242.12C84.1887 242.12 75.8969 293.786 75.2025 306.434C74.5081 319.082 69.6781 341.474 68.2892 349.787C66.9004 358.1 66.2163 366.044 64.1434 369.296C62.0704 372.547 66.9107 375.072 69.3257 376.514C71.7407 377.955 81.4213 376.156 82.7998 375.43C84.1783 374.704 85.2251 370.379 85.5672 367.128C85.9092 363.876 93.5169 343.642 94.9369 330.636C96.3568 317.63 104.96 269.942 105.644 266.333C106.328 262.724 108.069 252.243 108.069 252.243C108.069 252.243 105.644 295.954 105.302 307.518C104.96 319.082 99.0827 333.887 98.0463 343.999C97.0098 354.111 95.6313 363.15 95.6313 367.128C95.6313 371.106 94.5948 378.324 96.6678 379.765C98.7407 381.207 102.534 380.134 108.411 378.324C114.288 376.514 118.081 372.547 118.434 369.653C118.786 366.759 119.47 365.318 119.47 363.508C119.47 361.698 126.031 323.775 130.177 303.898C134.323 284.021 137.09 257.662 134.665 242.489C133.22 233.532 132.412 224.475 132.25 215.393C132.25 215.393 100.42 224.422 84.8727 217.561Z" fill="#212121" stroke="#212121" stroke-linecap="round" stroke-linejoin="round"/>
<path d="M108.028 252.243L98.0049 245.372" stroke="white" stroke-linecap="round" stroke-linejoin="round"/>
<path d="M94.9377 143.493C94.9377 143.493 72.8298 149.996 72.1354 156.141C71.441 162.286 66.9531 187.214 65.9166 194.432C64.8801 201.651 62.1128 207.807 66.611 211.416C71.1093 215.025 77.3178 212.5 78.6963 209.606C80.0748 206.712 82.8421 199.852 82.8421 199.852C82.8421 199.852 83.5366 213.941 83.5366 216.109C83.5366 218.276 83.8786 221.528 90.7919 222.254C97.7051 222.98 111.521 223.696 118.082 221.896C124.643 220.097 131.556 219.729 132.251 215.394C132.945 211.058 130.872 196.6 132.251 188.298C133.629 179.996 134.666 166.622 134.666 166.622C134.666 166.622 159.199 156.141 163.003 154.7C166.806 153.258 162.65 143.135 158.504 140.61C154.358 138.085 149.871 138.074 144.346 139.158C138.822 140.242 131.909 138.8 128.447 138.8C124.985 138.8 94.9377 143.493 94.9377 143.493Z" fill="white" stroke="#212121" stroke-linecap="round" stroke-linejoin="round"/>
<path d="M136.697 148.912L134.624 166.622L141.195 151.08" stroke="#212121" stroke-linecap="round" stroke-linejoin="round"/>
<path d="M82.7998 199.852L79.6904 167.706" stroke="#212121" stroke-linecap="round" stroke-linejoin="round"/>
<path d="M80.0431 176.734L74.5083 163.002" stroke="#212121" stroke-linecap="round" stroke-linejoin="round"/>
<path d="M131.214 185.762C131.214 185.762 126.373 203.472 115.667 210.332" stroke="#212121" stroke-linecap="round" stroke-linejoin="round"/>
<path d="M120.849 201.662C120.849 201.662 116.008 207.081 105.644 212.5" stroke="#212121" stroke-linecap="round" stroke-linejoin="round"/>
<path d="M113.594 26.4409L117.74 47.4019C117.74 47.4019 138.469 32.2285 163.344 24.2733C188.22 16.3181 212.846 18.4098 212.846 18.4098C212.846 18.4098 165.417 11.9936 144.688 17.0551C123.958 22.1165 113.594 26.4409 113.594 26.4409Z" fill="white" stroke="#212121" stroke-miterlimit="10"/>
<path d="M291.078 217.594C290.937 217.065 290.904 216.511 290.982 215.969C291.06 215.426 291.246 214.906 291.529 214.444C291.811 213.982 292.184 213.587 292.623 213.286C293.061 212.984 293.555 212.783 294.073 212.695C297.183 212.25 301.059 216.651 302.282 219.317C302.386 219.545 303.63 223.338 303.578 223.338C303.526 223.338 298.022 223.468 295.752 222.438C293.825 221.55 291.596 219.87 291.078 217.594ZM371.581 207.503C371.125 209.779 368.938 211.535 367.03 212.467C365.123 213.399 360.604 213.551 359.495 213.551C358.884 214.299 358.252 215.101 357.568 216C356.365 217.605 355.039 219.436 353.712 221.517C353.359 222.07 352.997 222.677 352.675 223.262C353.473 222.406 354.582 221.246 354.748 221.094C356.956 219.252 362.252 217.063 364.895 218.927C365.324 219.244 365.684 219.652 365.953 220.125C366.221 220.597 366.391 221.123 366.453 221.669C366.514 222.214 366.466 222.767 366.31 223.292C366.154 223.817 365.895 224.301 365.548 224.714C364.128 226.513 361.402 227.023 359.33 226.882C357.257 226.741 353.007 224.714 352.074 224.227C351.297 225.538 350.53 226.904 349.815 228.378C348.473 231.031 347.363 233.806 346.498 236.669L346.653 236.756C347.296 235.867 348.726 234.046 348.83 233.916C350.83 231.824 355.868 229.039 358.677 230.545C359.138 230.81 359.541 231.173 359.859 231.611C360.177 232.05 360.403 232.553 360.523 233.089C360.642 233.625 360.652 234.182 360.552 234.722C360.451 235.262 360.243 235.774 359.941 236.224C358.718 238.175 356.075 238.988 353.971 239.14C351.556 239.324 346.539 237.341 346.353 237.265C345.561 240.131 344.951 243.05 344.529 246.001C344.197 248.168 343.959 250.401 343.731 252.633C344.166 252.005 346 249.61 346.146 249.447C348.146 247.366 353.183 244.57 356.002 246.087C356.462 246.354 356.863 246.718 357.179 247.157C357.495 247.596 357.719 248.1 357.838 248.635C357.956 249.17 357.965 249.726 357.865 250.265C357.765 250.805 357.558 251.316 357.257 251.766C356.034 253.717 353.401 254.53 351.297 254.682C348.923 254.855 344.114 252.98 343.71 252.818C343.606 253.837 343.503 254.844 343.409 255.863C343.098 259.191 342.798 262.518 342.373 265.802C342.238 266.886 342.062 268.045 341.896 269.162C342.58 268.24 343.855 266.571 343.969 266.441C345.969 264.36 351.007 261.564 353.815 263.081C354.293 263.342 354.711 263.708 355.041 264.153C355.37 264.599 355.603 265.114 355.725 265.663C355.846 266.212 355.852 266.782 355.742 267.333C355.633 267.885 355.41 268.405 355.09 268.858C353.867 270.82 351.235 271.622 349.131 271.785C347.027 271.947 342.912 270.451 341.792 270.018C341.502 271.871 341.171 273.703 340.756 275.502C340.559 276.261 340.414 277.063 340.186 277.789L339.564 279.956C339.087 281.43 338.642 282.807 338.165 284.173C337.926 284.866 337.688 285.506 337.45 286.178C338.009 285.094 338.921 283.479 339.025 283.338C340.694 280.964 345.244 277.41 348.27 278.461C348.766 278.649 349.217 278.944 349.596 279.328C349.974 279.711 350.271 280.174 350.467 280.685C350.663 281.197 350.753 281.746 350.731 282.296C350.71 282.847 350.578 283.386 350.343 283.88C349.421 286.048 346.933 287.218 344.871 287.706C342.611 288.248 337.74 287.207 337.149 287.077C336.558 288.714 335.967 290.329 335.387 291.77C333.563 296.431 331.873 300.235 330.661 302.89C330.588 303.031 330.526 303.172 330.464 303.313H339.326L336.268 365.741C336.156 368.025 335.21 370.177 333.625 371.752C332.039 373.327 329.935 374.205 327.748 374.205C325.56 374.206 323.455 373.328 321.868 371.753C320.281 370.178 319.332 368.026 319.218 365.741L316.161 303.313H325.675C325.675 302.879 325.582 302.424 325.53 301.904C325.209 299.021 324.701 294.902 323.872 289.982C323.633 288.562 323.364 287.066 323.074 285.527C322.452 285.614 317.539 286.264 315.321 285.527C313.3 284.877 310.906 283.468 310.139 281.279C309.943 280.769 309.851 280.222 309.87 279.673C309.889 279.125 310.018 278.586 310.249 278.093C310.479 277.599 310.806 277.162 311.209 276.809C311.611 276.456 312.08 276.195 312.585 276.044C315.642 275.231 319.954 279.133 321.457 281.636C321.55 281.799 322.493 283.804 322.939 284.888C322.763 283.956 322.587 283.035 322.379 282.07C322.1 280.693 321.757 279.23 321.426 277.821C321.239 277.095 321.042 276.358 320.845 275.654C320.648 274.949 320.4 274.212 320.172 273.486C319.819 272.402 319.415 271.318 319 270.235C317.674 270.625 313.746 271.687 311.745 271.373C309.745 271.058 307.081 270.05 306.003 268.002C305.736 267.53 305.567 267.004 305.506 266.458C305.445 265.913 305.495 265.361 305.651 264.837C305.807 264.313 306.067 263.829 306.413 263.416C306.76 263.004 307.185 262.672 307.661 262.442C310.574 261.152 315.394 264.328 317.249 266.561C317.301 266.636 317.653 267.146 318.047 267.764C317.622 266.68 317.197 265.672 316.731 264.631C315.394 261.662 313.953 258.692 312.523 255.712C312.222 255.083 311.932 254.454 311.631 253.837C310.512 254.162 306.262 255.354 304.148 255.04C302.033 254.725 299.484 253.706 298.416 251.658C298.147 251.187 297.976 250.661 297.913 250.116C297.851 249.571 297.899 249.018 298.055 248.494C298.21 247.969 298.469 247.485 298.816 247.072C299.162 246.66 299.587 246.328 300.064 246.098C302.977 244.808 307.807 247.984 309.652 250.217C309.714 250.303 310.128 250.91 310.574 251.604C309.817 249.978 309.081 248.352 308.408 246.683C307.217 243.869 306.212 240.972 305.402 238.013C305.008 238.132 300.054 239.638 297.701 239.281C295.628 238.956 293.037 237.948 291.969 235.899C291.699 235.429 291.527 234.903 291.465 234.358C291.402 233.813 291.451 233.26 291.608 232.736C291.764 232.211 292.025 231.728 292.373 231.317C292.722 230.906 293.149 230.576 293.628 230.35C296.53 229.05 301.36 232.236 303.205 234.469C303.339 234.62 304.801 236.864 305.278 237.72V237.612C304.544 234.682 304.062 231.69 303.837 228.67C303.623 225.974 303.561 223.267 303.65 220.563C303.713 218.049 303.909 215.762 304.106 213.735C304.22 212.651 304.334 211.633 304.459 210.701H304.407C304.355 210.701 303.298 206.875 303.256 206.615C302.79 203.71 303.526 197.792 306.366 196.275C306.838 196.03 307.354 195.891 307.88 195.869C308.407 195.847 308.932 195.941 309.421 196.146C309.91 196.35 310.353 196.661 310.719 197.057C311.086 197.452 311.368 197.925 311.548 198.443C312.377 200.61 311.476 203.331 310.377 205.216C309.278 207.102 305.599 209.844 304.676 210.506C304.573 211.47 304.459 212.511 304.366 213.67C304.22 215.697 304.065 218.006 304.065 220.487C304.065 221.149 304.065 221.864 304.065 222.558C304.283 221.387 304.594 219.772 304.645 219.62C305.516 216.813 308.791 211.925 311.901 211.925C312.425 211.945 312.941 212.079 313.413 212.319C313.885 212.559 314.304 212.9 314.643 213.319C314.982 213.739 315.233 214.228 315.38 214.755C315.527 215.282 315.567 215.836 315.497 216.38C315.259 218.699 313.269 220.715 311.465 221.799C309.662 222.883 305.039 223.62 304.044 223.75C304.044 225.289 304.169 226.871 304.345 228.508C304.627 231.496 305.165 234.452 305.951 237.341H306.128C306.2 236.257 306.407 233.905 306.438 233.71C307.009 230.827 309.745 225.581 312.885 225.224C313.409 225.181 313.935 225.254 314.43 225.437C314.925 225.621 315.378 225.911 315.759 226.289C316.14 226.667 316.441 227.124 316.642 227.632C316.844 228.139 316.941 228.685 316.928 229.234C316.928 231.564 315.166 233.764 313.497 235.108C311.569 236.658 306.335 237.894 306.148 237.948C307.012 240.793 308.051 243.577 309.258 246.282C310.139 248.287 311.113 250.282 312.098 252.276C312.098 251.495 312.398 248.439 312.44 248.222C313.01 245.329 315.736 240.094 318.876 239.736C319.4 239.692 319.927 239.763 320.423 239.946C320.919 240.129 321.372 240.419 321.753 240.797C322.135 241.176 322.436 241.634 322.636 242.142C322.837 242.65 322.933 243.197 322.918 243.746C322.918 246.076 321.156 248.277 319.488 249.61C317.601 251.127 312.605 252.341 312.232 252.438C312.678 253.349 313.124 254.248 313.59 255.148C315.083 258.107 316.596 261.055 317.995 264.014C318.482 265.032 318.928 266.062 319.374 267.092C319.457 265.921 319.643 263.84 319.674 263.623C320.244 260.73 322.98 255.495 326.121 255.137C326.644 255.093 327.17 255.164 327.665 255.346C328.16 255.529 328.613 255.818 328.994 256.195C329.376 256.572 329.677 257.029 329.878 257.536C330.079 258.042 330.177 258.588 330.163 259.136C330.163 261.477 328.401 263.667 326.733 265.011C325.064 266.355 320.866 267.482 319.685 267.774C320.42 269.487 321.104 271.21 321.757 272.944C321.996 273.692 322.296 274.44 322.493 275.177C322.69 275.914 322.918 276.64 323.126 277.344C323.509 278.862 323.862 280.26 324.162 281.68C324.328 282.395 324.473 283.078 324.628 283.772C324.546 282.568 324.432 280.672 324.442 280.52C324.587 277.572 326.515 271.969 329.624 271.113C330.135 270.987 330.665 270.974 331.181 271.077C331.696 271.179 332.185 271.393 332.616 271.706C333.047 272.019 333.411 272.423 333.683 272.892C333.955 273.361 334.129 273.885 334.195 274.429C334.238 274.716 334.256 275.006 334.247 275.296C335.491 277.545 336.162 280.09 336.195 282.688C336.195 282.883 335.905 285.105 335.729 286.243C336.071 285.365 336.403 284.487 336.766 283.566C337.263 282.254 337.74 280.834 338.217 279.469C338.445 278.753 338.662 278.027 338.89 277.301C339.118 276.575 339.274 275.838 339.481 275.134C339.751 274.05 339.979 272.901 340.217 271.763C338.901 271.318 335.035 269.931 333.532 268.511C332.029 267.092 330.35 264.718 330.526 262.388C330.553 261.84 330.69 261.303 330.928 260.814C331.166 260.325 331.499 259.893 331.906 259.546C332.314 259.2 332.786 258.947 333.293 258.804C333.799 258.66 334.329 258.63 334.848 258.714C337.958 259.31 340.3 264.751 340.663 267.677C340.663 267.764 340.663 268.392 340.663 269.14C340.86 268.056 341.057 266.907 341.212 265.759C341.668 262.507 342.031 259.256 342.404 255.896C342.487 255.202 342.58 254.508 342.653 253.815C341.544 253.446 337.377 251.994 335.781 250.498C334.185 249.003 332.599 246.705 332.775 244.375C332.801 243.826 332.937 243.289 333.174 242.799C333.411 242.308 333.744 241.876 334.152 241.529C334.56 241.183 335.033 240.93 335.54 240.787C336.048 240.644 336.578 240.615 337.097 240.701C340.207 241.297 342.549 246.738 342.912 249.664C342.912 249.772 342.912 250.52 342.912 251.355C343.14 249.555 343.399 247.767 343.7 245.99C344.198 242.953 344.891 239.955 345.772 237.016C345.389 236.886 340.455 235.282 338.683 233.623C337.118 232.16 335.501 229.83 335.688 227.5C335.712 226.951 335.846 226.415 336.082 225.924C336.319 225.434 336.651 225.001 337.058 224.655C337.465 224.308 337.937 224.055 338.444 223.912C338.951 223.769 339.481 223.74 339.999 223.826C343.109 224.422 345.451 229.852 345.814 232.789C345.814 232.995 345.887 235.704 345.866 236.669V236.56C346.801 233.692 347.981 230.917 349.39 228.269C350.639 225.898 352.024 223.607 353.536 221.409C354.904 219.349 356.282 217.55 357.505 215.99C358.179 215.144 358.811 214.375 359.402 213.67H359.236C359.174 213.67 360.325 209.834 360.428 209.606C361.579 206.907 365.31 202.399 368.461 202.756C368.973 202.833 369.465 203.019 369.905 203.305C370.345 203.59 370.724 203.968 371.017 204.414C371.31 204.86 371.512 205.365 371.609 205.897C371.706 206.429 371.696 206.976 371.581 207.503ZM335.304 286.828C334.765 286.557 330.619 284.411 329.002 282.579C327.603 283.389 326.16 284.113 324.68 284.747C325.043 286.449 325.385 288.118 325.717 289.678C326.65 294.61 327.251 298.761 327.634 301.676C327.717 302.294 327.79 302.847 327.852 303.356H328.059C328.277 302.933 328.495 302.467 328.754 301.947C330.008 299.357 331.759 295.618 333.656 291.044C334.195 289.689 334.765 288.28 335.325 286.828H335.304ZM351.888 223.717C351.888 223.717 352.924 219.859 352.924 219.599C353.318 216.683 352.427 210.787 349.576 209.346C349.097 209.121 348.578 209.005 348.053 209.004C347.527 209.003 347.008 209.117 346.528 209.34C346.048 209.563 345.618 209.889 345.266 210.297C344.915 210.705 344.649 211.186 344.487 211.709C343.72 213.876 344.684 216.597 345.835 218.439C347.192 220.618 351.888 223.706 351.888 223.717Z" fill="#212121"/>
</svg>
