<svg width="38" height="18" viewBox="0 0 38 18" fill="none" xmlns="http://www.w3.org/2000/svg">
<g clip-path="url(#clip0_5132_9335)">
<path fill-rule="evenodd" clip-rule="evenodd" d="M10.9053 12.1086H15.0667L15.9717 14.6867H17.9794L13.8363 3.71851L12.987 6.14958L14.5267 10.5572H11.4472L10.9053 12.1086Z" fill="#212121"/>
<path d="M19.4689 14.6106V3.70812H21.0264V14.6106H19.4689Z" fill="#212121"/>
<path fill-rule="evenodd" clip-rule="evenodd" d="M7.37044 14.8734C10.5074 14.8734 13.0504 12.3304 13.0504 9.19344C13.0504 6.05645 10.5074 3.51343 7.37044 3.51343C4.23346 3.51343 1.69043 6.05645 1.69043 9.19344C1.69043 12.3304 4.23346 14.8734 7.37044 14.8734ZM7.37041 13.2255C9.59724 13.2255 11.4024 11.4203 11.4024 9.19346C11.4024 6.96663 9.59724 5.16143 7.37041 5.16143C5.14358 5.16143 3.33838 6.96663 3.33838 9.19346C3.33838 11.4203 5.14358 13.2255 7.37041 13.2255Z" fill="#212121"/>
<rect x="22.9258" y="3.50439" width="11.4216" height="11.4216" rx="0.259583" fill="#B75400"/>
<path d="M27.9833 13.7256V7.83436H29.3623V13.7256H27.9833ZM28.6783 6.86352C28.4209 6.86352 28.2076 6.78262 28.0384 6.62081C27.8766 6.459 27.7957 6.2641 27.7957 6.0361C27.7957 5.80074 27.8766 5.60584 28.0384 5.45139C28.2076 5.28958 28.4209 5.20868 28.6783 5.20868C28.9357 5.20868 29.1453 5.28591 29.3071 5.44036C29.4763 5.58745 29.5609 5.775 29.5609 6.003C29.5609 6.24571 29.48 6.45165 29.3182 6.62081C29.1564 6.78262 28.9431 6.86352 28.6783 6.86352Z" fill="white"/>
</g>
<defs>
<clipPath id="clip0_5132_9335">
<rect width="37.3171" height="18" rx="0.259583" fill="white"/>
</clipPath>
</defs>
</svg>
