<svg width="80" height="80" viewBox="0 0 80 80" fill="none" xmlns="http://www.w3.org/2000/svg">
<path d="M16.9 10.3V69.7H36.7V58.15H43.3V69.7H63.1V10.3H16.9ZM23.5 16.9H30.1V23.5H23.5V16.9ZM36.7 16.9H43.3V23.5H36.7V16.9ZM49.9 16.9H56.5V23.5H49.9V16.9ZM23.5 30.1H30.1V36.7H23.5V30.1ZM36.7 30.1H43.3V36.7H36.7V30.1ZM49.9 30.1H56.5V36.7H49.9V30.1ZM23.5 43.3H30.1V49.9H23.5V43.3ZM36.7 43.3H43.3V49.9H36.7V43.3ZM49.9 43.3H56.5V49.9H49.9V43.3ZM23.5 56.5H30.1V63.1H23.5V56.5ZM49.9 56.5H56.5V63.1H49.9V56.5Z" fill="#9E9E9E"/>
</svg>
