<svg width="146" height="146" viewBox="0 0 146 146" fill="none" xmlns="http://www.w3.org/2000/svg">
<circle cx="73" cy="73" r="71.6" stroke="#B75400" stroke-width="2"/>
<circle cx="73" cy="73" r="66" fill="white"/>
<path d="M49.9 43.3V102.7H69.7V91.15H76.3V102.7H96.1V43.3H49.9ZM56.5 49.9H63.1V56.5H56.5V49.9ZM69.7 49.9H76.3V56.5H69.7V49.9ZM82.9 49.9H89.5V56.5H82.9V49.9ZM56.5 63.1H63.1V69.7H56.5V63.1ZM69.7 63.1H76.3V69.7H69.7V63.1ZM82.9 63.1H89.5V69.7H82.9V63.1ZM56.5 76.3H63.1V82.9H56.5V76.3ZM69.7 76.3H76.3V82.9H69.7V76.3ZM82.9 76.3H89.5V82.9H82.9V76.3ZM56.5 89.5H63.1V96.1H56.5V89.5ZM82.9 89.5H89.5V96.1H82.9V89.5Z" fill="#9E9E9E"/>
</svg>
