<svg width="300" height="300" viewBox="0 0 300 300" fill="none" xmlns="http://www.w3.org/2000/svg">
<path d="M43.9331 246.166C102.51 276.767 197.49 276.767 256.067 246.166C314.644 215.565 314.644 165.949 256.067 135.34C197.49 104.732 102.537 104.739 43.9331 135.34C-14.6711 165.942 -14.6176 215.565 43.9331 246.166Z" fill="#F5F5F5"/>
<path d="M27.6043 195.981L8.56299 184.99V144.148L27.6043 155.145V195.981Z" fill="#E0E0E0"/>
<path d="M27.6042 155.145L54.81 139.439V180.275L27.6042 195.981V155.145Z" fill="#EBEBEB"/>
<path d="M54.8101 139.439L27.6043 155.145L8.56299 144.148L35.7687 128.442L54.8101 139.439Z" fill="#F5F5F5"/>
<path d="M30.3304 156.712L52.091 144.148L52.5933 144.436V159.566L30.8261 172.13L30.3237 171.842L30.3304 156.712Z" fill="#E0E0E0"/>
<path d="M30.8257 157.007L52.593 144.436V159.566L30.8257 172.13V157.007Z" fill="#F5F5F5"/>
<path d="M39.3587 154.643L43.0625 152.506C43.538 152.225 43.9265 152.352 43.9265 152.788C43.892 153.054 43.796 153.309 43.646 153.533C43.4961 153.756 43.2963 153.941 43.0625 154.074L39.3587 156.21C38.8765 156.492 38.488 156.364 38.488 155.929C38.5228 155.662 38.6196 155.406 38.7708 155.183C38.922 154.959 39.1233 154.775 39.3587 154.643Z" fill="#E0E0E0"/>
<path d="M29.8278 175.854L51.5883 163.29V178.419L52.0907 178.707L30.3234 191.272L29.8278 190.984V175.854Z" fill="#E0E0E0"/>
<path d="M30.3237 176.142L52.091 163.578V178.707L30.3237 191.272V176.142Z" fill="#F5F5F5"/>
<path d="M38.8562 173.785L42.5935 171.655C43.0758 171.374 43.4642 171.501 43.4642 171.936C43.4295 172.204 43.3327 172.459 43.1815 172.682C43.0303 172.906 42.8289 173.091 42.5935 173.222L38.8897 175.359C38.4075 175.64 38.019 175.513 38.019 175.077C38.0491 174.812 38.1404 174.557 38.2857 174.333C38.4309 174.108 38.6262 173.921 38.8562 173.785Z" fill="#E0E0E0"/>
<path d="M27.6043 152.788L8.56299 141.79V100.955L27.6043 111.946V152.788Z" fill="#E0E0E0"/>
<path d="M27.6042 111.946L54.81 96.2396V137.082L27.6042 152.788V111.946Z" fill="#EBEBEB"/>
<path d="M54.8101 96.2396L27.6043 111.946L8.56299 100.955L35.7687 85.2488L54.8101 96.2396Z" fill="#F5F5F5"/>
<path d="M30.3237 113.519L52.091 100.955L52.5933 101.243V116.373L30.8261 128.937L30.3237 128.643V113.519Z" fill="#E0E0E0"/>
<path d="M39.3587 111.443L43.0558 109.307C43.538 109.032 43.9265 109.159 43.9265 109.595C43.8908 109.862 43.7935 110.117 43.6425 110.34C43.4914 110.563 43.2906 110.748 43.0558 110.881L39.3587 113.017C38.8765 113.292 38.488 113.171 38.488 112.736C38.5233 112.468 38.6203 112.211 38.7713 111.987C38.9224 111.763 39.1235 111.577 39.3587 111.443Z" fill="#E0E0E0"/>
<path d="M29.8278 132.661L51.5883 120.097V135.22L52.0907 135.508L30.3234 148.073L29.8278 147.785V132.661Z" fill="#E0E0E0"/>
<path d="M30.3237 132.949L52.091 120.385V135.508L30.3237 148.073V132.949Z" fill="#F5F5F5"/>
<path d="M38.8562 130.585L42.5934 128.448C43.069 128.174 43.4641 128.301 43.4641 128.736C43.4264 129.003 43.3284 129.257 43.1775 129.48C43.0266 129.703 42.8269 129.888 42.5934 130.022L38.8562 132.139C38.3739 132.413 37.9855 132.286 37.9855 131.858C38.0236 131.593 38.122 131.341 38.2729 131.12C38.4239 130.899 38.6234 130.716 38.8562 130.585Z" fill="#E0E0E0"/>
<path d="M30.3237 113.519L52.091 100.955V116.078L30.3237 128.643V113.519Z" fill="#E0E0E0"/>
<path d="M62.9743 108.429L51.0592 101.551V114.879L62.9743 121.751V108.429Z" fill="#E0E0E0"/>
<path d="M38.488 130.799V111.946L43.1563 109.24L43.9265 110.378L57.5294 102.522V119.802L38.488 130.799Z" fill="#EBEBEB"/>
<path d="M38.488 130.799L39.8477 114.303L58.889 103.312L57.5294 119.802L38.488 130.799Z" fill="#F5F5F5"/>
<path d="M41.207 120.994L30.8257 115V128.328L41.207 134.316V120.994Z" fill="#EBEBEB"/>
<path d="M41.2073 119.802L62.9746 107.237V122.36L41.2073 134.925V119.802Z" fill="#F5F5F5"/>
<path d="M49.74 117.438L53.437 115.301C53.9193 115.026 54.3077 115.154 54.3077 115.589C54.2715 115.856 54.1741 116.111 54.023 116.334C53.872 116.557 53.6714 116.742 53.437 116.875L49.74 119.011C49.2577 119.286 48.8693 119.159 48.8693 118.73C48.9045 118.462 49.0015 118.206 49.1526 117.981C49.3037 117.757 49.5047 117.571 49.74 117.438Z" fill="#E0E0E0"/>
<path d="M41.2074 119.802L40.484 119.387V134.51L41.2074 134.925V119.802Z" fill="#E0E0E0"/>
<path d="M40.484 119.387L62.2446 106.815L62.9746 107.237L41.2074 119.802L40.484 119.387Z" fill="#EBEBEB"/>
<path d="M252.564 171.24L233.516 160.242V119.407L252.564 130.398V171.24Z" fill="#E0E0E0"/>
<path d="M252.564 130.397L279.769 114.692V155.534L252.564 171.24V130.397Z" fill="#EBEBEB"/>
<path d="M279.77 114.692L252.564 130.398L233.516 119.407L260.728 103.694L279.77 114.692Z" fill="#F5F5F5"/>
<path d="M255.283 131.971L277.05 119.407L277.553 119.695L277.546 134.818L255.786 147.383L255.283 147.095V131.971Z" fill="#E0E0E0"/>
<path d="M255.785 132.259L277.553 119.695L277.546 134.818L255.785 147.383V132.259Z" fill="#F5F5F5"/>
<path d="M264.318 129.895L268.016 127.759C268.498 127.484 268.886 127.611 268.886 128.04C268.851 128.308 268.754 128.564 268.603 128.789C268.452 129.013 268.251 129.199 268.016 129.333L264.318 131.469C263.836 131.744 263.448 131.616 263.448 131.188C263.483 130.92 263.58 130.663 263.731 130.439C263.882 130.215 264.083 130.029 264.318 129.895Z" fill="#E0E0E0"/>
<path d="M254.781 151.113L276.549 138.542V153.672L277.051 153.96L255.284 166.524L254.781 166.236V151.113Z" fill="#E0E0E0"/>
<path d="M255.283 151.401L277.05 138.837V153.96L255.283 166.525V151.401Z" fill="#F5F5F5"/>
<path d="M263.816 149.037L267.52 146.901C267.996 146.626 268.384 146.753 268.384 147.182C268.349 147.449 268.252 147.705 268.102 147.929C267.953 148.153 267.753 148.339 267.52 148.474L263.816 150.611C263.334 150.886 262.946 150.758 262.946 150.323C262.982 150.056 263.079 149.801 263.23 149.578C263.381 149.355 263.582 149.17 263.816 149.037Z" fill="#E0E0E0"/>
<path d="M71.3936 213.924C71.3936 213.924 71.4673 203.301 64.7697 195.338C58.8423 188.285 55.6877 183.811 57.5564 181.748C59.425 179.685 63.4436 179.19 68.8619 184.896C74.2803 190.602 74.7023 206.409 73.9521 209.985L71.3936 213.924Z" fill="#B75400"/>
<path opacity="0.2" d="M71.3936 213.924C71.3936 213.924 71.4673 203.301 64.7697 195.338C58.8423 188.285 55.6877 183.811 57.5564 181.748C59.425 179.685 63.4436 179.19 68.8619 184.896C74.2803 190.602 74.7023 206.409 73.9521 209.985L71.3936 213.924Z" fill="black"/>
<path d="M72.5187 202.504C72.4424 202.505 72.3683 202.479 72.3086 202.431C72.2489 202.384 72.2073 202.317 72.1905 202.243C69.8463 191.279 63.8318 185.218 60.4495 182.579C60.3795 182.525 60.3339 182.445 60.3226 182.357C60.3113 182.269 60.3352 182.18 60.3893 182.11C60.4447 182.04 60.5257 181.994 60.6147 181.982C60.7036 181.971 60.7935 181.995 60.8648 182.05C64.3141 184.729 70.4558 190.931 72.8468 202.102C72.8567 202.145 72.8578 202.189 72.8503 202.232C72.8427 202.276 72.8266 202.317 72.8029 202.354C72.7792 202.39 72.7483 202.422 72.7122 202.447C72.676 202.472 72.6353 202.489 72.5923 202.498L72.5187 202.504Z" fill="white"/>
<path d="M71.1389 217.869L68.413 219.442C68.1222 218.648 67.6319 217.942 66.989 217.391C66.3462 216.841 65.5726 216.466 64.7427 216.301C61.7623 215.632 58.668 215.745 56.5783 213.16C54.4886 210.575 57.0337 207.762 56.5783 205.86C56.1229 203.958 55.8282 203.408 52.0909 201.506C48.3536 199.604 46.8801 196.45 49.6931 194.313C52.5062 192.176 57.0605 193.744 59.82 195.652C62.2713 197.327 64.6021 197.769 67.3414 198.111C70.0807 198.452 74.5413 199.972 73.8582 206.335C73.4108 210.274 72.4981 214.145 71.1389 217.869Z" fill="#B75400"/>
<path d="M60.6771 209.51C60.6057 209.509 60.5364 209.486 60.4787 209.444C60.421 209.402 60.378 209.343 60.3556 209.275C60.3302 209.19 60.3392 209.098 60.3804 209.02C60.4217 208.941 60.4921 208.881 60.5766 208.854C60.8177 208.78 66.6045 206.945 69.0625 208.914C69.1235 208.971 69.1607 209.05 69.1667 209.133C69.1727 209.217 69.147 209.3 69.0948 209.366C69.0426 209.431 68.9676 209.475 68.8848 209.488C68.8019 209.501 68.7171 209.483 68.6473 209.436C66.4772 207.695 60.8378 209.476 60.7776 209.496L60.6771 209.51Z" fill="white"/>
<path d="M71.4403 217.36C71.3588 217.36 71.28 217.33 71.2193 217.276C71.1587 217.221 71.1204 217.146 71.1121 217.065C69.6186 202.96 52.6267 196.269 52.4592 196.202C52.4177 196.186 52.3797 196.162 52.3474 196.132C52.3151 196.102 52.2892 196.065 52.2711 196.025C52.2531 195.984 52.2432 195.94 52.2422 195.896C52.2411 195.852 52.2489 195.808 52.265 195.766C52.2979 195.685 52.3608 195.62 52.4406 195.584C52.5203 195.548 52.6109 195.543 52.6937 195.572C52.8745 195.646 70.2414 202.477 71.7752 217.005C71.7846 217.092 71.7589 217.18 71.7037 217.249C71.6485 217.318 71.5683 217.363 71.4805 217.373L71.4403 217.36Z" fill="white"/>
<path d="M238.03 208.606C238.104 208.371 240.977 193.583 238.03 183.094C235.351 173.477 231.855 169.927 226.872 169.143C221.889 168.36 219.726 171.95 222.371 176.812C225.017 181.675 231.386 188.124 232.947 198.988C233.617 203.462 234.126 207.347 234.126 207.347L238.03 208.606Z" fill="#B75400"/>
<path opacity="0.2" d="M238.03 208.606C238.104 208.371 240.977 193.583 238.03 183.094C235.351 173.477 231.855 169.927 226.872 169.143C221.889 168.36 219.726 171.95 222.371 176.812C225.017 181.675 231.386 188.124 232.947 198.988C233.617 203.462 234.126 207.347 234.126 207.347L238.03 208.606Z" fill="black"/>
<path d="M236.349 200.113C236.305 200.111 236.262 200.099 236.222 200.08C236.183 200.061 236.147 200.034 236.118 200.001C236.089 199.968 236.066 199.93 236.052 199.888C236.038 199.846 236.032 199.802 236.034 199.758C236.704 187.783 232.793 177.093 225.78 171.849C225.709 171.796 225.662 171.717 225.65 171.629C225.637 171.541 225.66 171.451 225.713 171.38C225.768 171.311 225.847 171.265 225.934 171.252C226.022 171.24 226.11 171.262 226.182 171.313C233.369 176.672 237.401 187.602 236.697 199.798C236.692 199.886 236.653 199.968 236.588 200.027C236.522 200.086 236.437 200.117 236.349 200.113Z" fill="white"/>
<path d="M245.739 216.308C245.357 213.555 246.938 209.43 250.695 208.452C254.453 207.474 256.127 205.317 254.774 202.96C253.421 200.602 253.736 198.439 257.145 197.461C260.554 196.483 263.541 194.782 261.579 191.179C260.152 188.573 259.837 186.885 263.334 181.755C266.234 177.495 263.863 174.997 260.233 175.466C256.603 175.935 254.359 180.261 252.088 180.985C249.818 181.708 249.295 177.85 246.302 179.578C243.308 181.306 243.489 185.733 243.395 188.821C243.301 191.909 243.1 192.605 240.394 192.23C237.688 191.855 235.036 192.297 235.096 198.841C235.143 204.453 238.137 211.405 238.137 211.405L245.739 216.308Z" fill="#B75400"/>
<path d="M240.991 212.122H240.957C240.868 212.112 240.786 212.067 240.729 211.997C240.673 211.926 240.647 211.837 240.656 211.747C242.545 194.876 257.025 180.643 260.802 177.756C260.873 177.702 260.963 177.679 261.052 177.691C261.14 177.702 261.22 177.749 261.275 177.82C261.329 177.891 261.352 177.981 261.341 178.069C261.329 178.158 261.282 178.238 261.211 178.292C257.48 181.139 243.188 195.184 241.326 211.821C241.316 211.903 241.277 211.979 241.215 212.034C241.153 212.09 241.074 212.121 240.991 212.122Z" fill="white"/>
<path d="M247.594 194.085C247.527 194.085 247.46 194.064 247.404 194.026C247.348 193.988 247.305 193.934 247.28 193.871C247.251 193.787 247.256 193.694 247.293 193.613C247.331 193.532 247.398 193.469 247.481 193.436C252.879 191.426 259.001 192.378 259.262 192.418C259.348 192.432 259.426 192.481 259.477 192.552C259.529 192.624 259.55 192.713 259.536 192.799C259.52 192.886 259.472 192.963 259.401 193.015C259.33 193.067 259.242 193.091 259.155 193.081C259.094 193.081 252.946 192.116 247.715 194.065C247.676 194.078 247.635 194.085 247.594 194.085Z" fill="white"/>
<path d="M242.786 204.226C242.739 204.225 242.692 204.215 242.65 204.195C242.607 204.175 242.569 204.147 242.538 204.112C240.293 201.497 238.771 198.341 238.124 194.956C238.118 194.913 238.12 194.868 238.13 194.825C238.141 194.783 238.16 194.742 238.186 194.707C238.212 194.671 238.245 194.641 238.282 194.619C238.32 194.596 238.362 194.581 238.405 194.574C238.449 194.568 238.493 194.57 238.536 194.58C238.579 194.591 238.619 194.61 238.655 194.636C238.69 194.662 238.72 194.695 238.743 194.732C238.766 194.77 238.781 194.812 238.787 194.856C239.428 198.107 240.892 201.14 243.04 203.663C243.082 203.712 243.109 203.772 243.118 203.837C243.127 203.901 243.118 203.966 243.091 204.025C243.064 204.084 243.022 204.134 242.968 204.169C242.913 204.205 242.85 204.224 242.786 204.226Z" fill="white"/>
<path d="M71.1392 114.209V217.875L177.243 156.619L177.236 62.3765L98.3449 107.927L95.619 100.071L71.1392 114.209Z" fill="#B75400"/>
<path opacity="0.7" d="M71.1392 114.209V217.875L177.243 156.619L177.236 62.3765L98.3449 107.927L95.619 100.071L71.1392 114.209Z" fill="black"/>
<path d="M71.1392 217.875L76.5776 123.633L182.681 62.3765L177.243 156.619L71.1392 217.875Z" fill="#E0E0E0"/>
<path d="M71.1389 217.875L79.2966 125.207L185.4 63.9436L177.243 156.619L71.1389 217.875Z" fill="#B75400"/>
<path opacity="0.7" d="M71.1389 217.875L79.2966 125.207L185.4 63.9436L177.243 156.619L71.1389 217.875Z" fill="black"/>
<path d="M87.4611 123.633V227.306L193.565 166.042V71.8L114.667 117.351L111.948 109.494L87.4611 123.633Z" fill="#B75400"/>
<path opacity="0.5" d="M87.4611 123.633V227.306L193.565 166.042V71.8L114.667 117.351L111.948 109.494L87.4611 123.633Z" fill="black"/>
<path d="M87.4611 227.306L92.8995 133.057L199.003 71.8L193.565 166.042L87.4611 227.306Z" fill="#E0E0E0"/>
<path d="M87.4608 227.306L95.6185 134.63L201.722 73.3673L193.565 166.042L87.4608 227.306Z" fill="#B75400"/>
<path opacity="0.5" d="M87.4608 227.306L95.6185 134.63L201.722 73.3673L193.565 166.042L87.4608 227.306Z" fill="black"/>
<path d="M177.215 260.291C158.167 249.294 140.499 237.339 132.435 223.314L156.948 209.162L177.215 260.291Z" fill="#E0E0E0"/>
<path d="M106.502 134.63V238.296L212.606 177.04V82.7975L133.708 128.348L130.989 120.492L106.502 134.63Z" fill="#B75400"/>
<path opacity="0.2" d="M106.502 134.63V238.296L212.606 177.04V82.7975L133.708 128.348L130.989 120.492L106.502 134.63Z" fill="black"/>
<path d="M137.07 165.279C136.802 165.279 136.762 164.971 136.762 164.79V76.3812C136.784 76.0382 136.884 75.7049 137.056 75.4074C137.228 75.11 137.467 74.8564 137.753 74.6666L214.334 30.4623C214.439 30.3969 214.559 30.3599 214.682 30.3551C214.95 30.3551 214.99 30.6632 214.99 30.844V119.253C214.969 119.597 214.869 119.931 214.697 120.23C214.525 120.528 214.286 120.783 213.999 120.974L137.418 165.178C137.313 165.241 137.193 165.275 137.07 165.279Z" fill="white"/>
<path d="M214.642 30.6632C214.647 30.7121 214.647 30.7616 214.642 30.8105V119.219C214.62 119.504 214.534 119.781 214.392 120.029C214.249 120.277 214.053 120.49 213.818 120.652L137.237 164.857L137.103 164.917C137.095 164.868 137.095 164.818 137.103 164.77V76.3611C137.126 76.0771 137.212 75.8018 137.355 75.555C137.497 75.3083 137.693 75.0964 137.927 74.9345L214.508 30.7301C214.55 30.7006 214.598 30.6801 214.649 30.6699L214.642 30.6632ZM214.689 30.0001C214.506 30.0055 214.329 30.0586 214.173 30.1542L137.592 74.3585C137.256 74.5796 136.976 74.8766 136.774 75.2255C136.573 75.5744 136.457 75.9656 136.434 76.3678V164.776C136.434 165.299 136.695 165.6 137.103 165.6C137.286 165.595 137.464 165.542 137.619 165.446L214.2 121.242C214.538 121.022 214.819 120.726 215.021 120.376C215.222 120.027 215.338 119.635 215.359 119.233V30.8239C215.359 30.3015 215.097 29.9934 214.689 30.0001Z" fill="#B75400"/>
<path opacity="0.7" d="M214.642 30.6632C214.647 30.7121 214.647 30.7616 214.642 30.8105V119.219C214.62 119.504 214.534 119.781 214.392 120.029C214.249 120.277 214.053 120.49 213.818 120.652L137.237 164.857L137.103 164.917C137.095 164.868 137.095 164.818 137.103 164.77V76.3611C137.126 76.0771 137.212 75.8018 137.355 75.555C137.497 75.3083 137.693 75.0964 137.927 74.9345L214.508 30.7301C214.55 30.7006 214.598 30.6801 214.649 30.6699L214.642 30.6632ZM214.689 30.0001C214.506 30.0055 214.329 30.0586 214.173 30.1542L137.592 74.3585C137.256 74.5796 136.976 74.8766 136.774 75.2255C136.573 75.5744 136.457 75.9656 136.434 76.3678V164.776C136.434 165.299 136.695 165.6 137.103 165.6C137.286 165.595 137.464 165.542 137.619 165.446L214.2 121.242C214.538 121.022 214.819 120.726 215.021 120.376C215.222 120.027 215.338 119.635 215.359 119.233V30.8239C215.359 30.3015 215.097 29.9934 214.689 30.0001Z" fill="white"/>
<path d="M144.592 79.7367L171.797 64.0308V95.4426L144.592 111.149V79.7367Z" fill="#B75400"/>
<path opacity="0.8" d="M144.592 79.7367L171.797 64.0308V95.4426L144.592 111.149V79.7367Z" fill="white"/>
<path d="M167.718 71.8602V81.3039L166.861 81.7794V78.8927C166.861 77.2987 165.569 76.7562 163.961 77.6805L152.435 84.3446C150.834 85.2689 149.534 87.3117 149.534 88.9057V91.7924L148.684 92.3014V82.8778L167.718 71.8602Z" fill="white"/>
<path d="M162.481 95.9047C161.088 96.7084 159.956 95.8645 159.956 94.0092V78.8927L156.453 80.7948V96.0319C156.453 97.8805 155.321 100.05 153.928 100.834L151.396 102.294V103.299L164.999 95.4425V94.4446L162.481 95.9047Z" fill="white"/>
<path d="M177.216 62.4835C177.216 63.3542 178 63.602 178.957 63.0528L205.426 47.7487C205.896 47.4825 206.298 47.1112 206.6 46.6638C206.902 46.2165 207.096 45.7052 207.168 45.1701C207.168 44.3061 206.384 44.0516 205.426 44.6075L178.978 59.8781C178.5 60.1438 178.092 60.5181 177.786 60.9707C177.48 61.4233 177.285 61.9415 177.216 62.4835Z" fill="#455A64"/>
<path d="M177.216 71.8602C177.216 72.7309 178 72.9854 178.957 72.4295L205.406 57.1589C205.876 56.8927 206.278 56.5213 206.58 56.074C206.882 55.6266 207.076 55.1154 207.148 54.5803C207.148 53.7163 206.364 53.4618 205.406 54.0177L178.957 69.2883C178.489 69.5538 178.088 69.9241 177.785 70.3702C177.483 70.8164 177.289 71.3263 177.216 71.8602Z" fill="#455A64"/>
<path d="M177.216 81.3038C177.216 82.1745 178 82.429 178.957 81.8731L205.406 66.6025C205.875 66.337 206.276 65.9667 206.578 65.5206C206.88 65.0744 207.075 64.5645 207.148 64.0306C207.148 63.16 206.364 62.9054 205.406 63.4613L178.957 78.7319C178.489 78.9975 178.088 79.3678 177.785 79.8139C177.483 80.26 177.289 80.7699 177.216 81.3038Z" fill="#455A64"/>
<path d="M177.216 90.7274C177.216 91.5981 178 91.8526 178.957 91.2967L205.406 76.0261C205.875 75.7606 206.276 75.3903 206.578 74.9442C206.88 74.498 207.075 73.9881 207.148 73.4542C207.148 72.5835 206.364 72.329 205.406 72.8849L178.957 88.1555C178.489 88.421 178.088 88.7913 177.785 89.2375C177.483 89.6836 177.289 90.1935 177.216 90.7274Z" fill="#455A64"/>
<path d="M144.592 119.005C144.592 119.875 145.368 120.13 146.333 119.574L205.426 85.4162C205.896 85.1515 206.297 84.7814 206.599 84.3351C206.902 83.8889 207.096 83.3785 207.167 82.8443C207.167 81.9736 206.384 81.7258 205.426 82.275L146.333 116.433C145.863 116.697 145.461 117.067 145.159 117.514C144.857 117.96 144.663 118.47 144.592 119.005Z" fill="#455A64"/>
<path d="M144.592 128.428C144.592 129.299 145.368 129.554 146.333 128.998L205.426 94.8799C205.896 94.6137 206.297 94.2424 206.599 93.7951C206.902 93.3477 207.096 92.8364 207.167 92.3014C207.167 91.4374 206.384 91.1829 205.426 91.7388L146.333 125.856C145.863 126.121 145.461 126.491 145.159 126.937C144.857 127.383 144.663 127.894 144.592 128.428Z" fill="#455A64"/>
<path d="M144.592 137.859C144.592 138.723 145.368 138.977 146.333 138.421L205.426 104.304C205.896 104.037 206.297 103.666 206.599 103.219C206.902 102.771 207.096 102.26 207.167 101.725C207.167 100.861 206.384 100.606 205.426 101.162L146.333 135.28C145.862 135.545 145.46 135.916 145.158 136.364C144.855 136.811 144.662 137.323 144.592 137.859Z" fill="#455A64"/>
<path d="M106.502 238.296L125.544 155.051L231.647 93.7882L212.606 177.04L106.502 238.296Z" fill="#B75400"/>
<path d="M132.462 161.568V223.314L156.949 209.175V147.436L132.462 161.568Z" fill="#B75400"/>
<path opacity="0.2" d="M132.462 161.568V223.314L156.949 209.175V147.436L132.462 161.568Z" fill="black"/>
<path d="M177.262 259.889C175.179 258.335 155.1 242.991 144.893 221.043C134.029 197.709 134.043 170.489 134.043 160.249V159.927L206.832 117.906C206.832 128.241 206.832 155.5 217.743 178.915C227.716 200.347 247.025 215.497 250.086 217.815L177.262 259.889Z" fill="white"/>
<path d="M206.498 118.509C206.498 129.279 206.705 156.016 217.442 179.082C227.079 199.778 245.404 214.66 249.483 217.801L177.283 259.487C174.463 257.364 155.14 242.275 145.201 220.929C134.351 197.662 134.351 170.496 134.351 160.269V160.142L206.471 118.502L206.498 118.509ZM207.141 117.344L133.681 159.76C133.681 169.398 133.48 197.4 144.565 221.211C155.475 244.579 177.216 260.291 177.216 260.291L250.695 217.868C250.695 217.868 228.928 202.156 218.051 178.788C206.96 154.978 207.167 126.975 207.167 117.337L207.141 117.344Z" fill="#B75400"/>
<path opacity="0.7" d="M206.498 118.509C206.498 129.279 206.705 156.016 217.442 179.082C227.079 199.778 245.404 214.66 249.483 217.801L177.283 259.487C174.463 257.364 155.14 242.275 145.201 220.929C134.351 197.662 134.351 170.496 134.351 160.269V160.142L206.471 118.502L206.498 118.509ZM207.141 117.344L133.681 159.76C133.681 169.398 133.48 197.4 144.565 221.211C155.475 244.579 177.216 260.291 177.216 260.291L250.695 217.868C250.695 217.868 228.928 202.156 218.051 178.788C206.96 154.978 207.167 126.975 207.167 117.337L207.141 117.344Z" fill="white"/>
<path d="M198.856 131.57L175.628 144.965C175.164 145.221 174.767 145.585 174.473 146.027C174.18 146.469 173.997 146.975 173.941 147.503C173.974 148.354 174.785 148.595 175.742 148.039L198.976 134.644C199.436 134.39 199.828 134.031 200.12 133.595C200.413 133.159 200.597 132.66 200.658 132.139C200.617 131.255 199.82 131.014 198.856 131.57Z" fill="#455A64"/>
<path d="M199.352 140.712L176.124 154.107C175.665 154.354 175.275 154.713 174.992 155.151C174.709 155.589 174.541 156.092 174.503 156.612C174.577 157.436 175.421 157.657 176.379 157.101L199.613 143.706C200.07 143.46 200.457 143.101 200.737 142.664C201.017 142.227 201.181 141.726 201.214 141.207C201.147 140.377 200.316 140.176 199.352 140.712Z" fill="#455A64"/>
<path d="M200.283 149.6L177.048 162.995C176.091 163.551 175.394 164.656 175.508 165.453C175.622 166.25 176.499 166.457 177.464 165.902L200.698 152.506C201.656 151.95 202.339 150.852 202.218 150.055C202.098 149.258 201.24 149.044 200.283 149.6Z" fill="#455A64"/>
<path d="M201.675 158.219L178.441 171.615C177.484 172.171 176.821 173.256 176.981 174.033C177.142 174.809 178.053 174.984 178.991 174.428L202.218 161.032C203.182 160.477 203.825 159.398 203.665 158.621C203.504 157.844 202.667 157.664 201.675 158.219Z" fill="#455A64"/>
<path d="M203.564 166.551L180.33 179.946C179.372 180.502 178.749 181.561 178.99 182.304C179.232 183.047 180.149 183.215 181.107 182.659L204.341 169.264C205.305 168.708 205.908 167.656 205.681 166.906C205.453 166.156 204.522 165.995 203.564 166.551Z" fill="#455A64"/>
<path d="M206.015 174.582L149.394 207.273C148.436 207.829 147.853 208.86 148.114 209.577C148.376 210.294 149.374 210.428 150.331 209.872L206.953 177.181C207.918 176.625 208.473 175.6 208.212 174.877C207.951 174.153 206.94 174.026 206.015 174.582Z" fill="#455A64"/>
<path d="M208.996 182.251L152.381 214.942C151.417 215.498 150.887 216.502 151.209 217.185C151.53 217.869 152.548 217.976 153.526 217.42L210.148 184.729C211.112 184.173 211.628 183.168 211.307 182.485C210.985 181.802 209.96 181.701 208.996 182.251Z" fill="#455A64"/>
<path d="M212.713 189.558L156.091 222.249C155.127 222.805 154.651 223.783 155.033 224.432C155.415 225.082 156.507 225.149 157.471 224.593L214.053 191.902C215.01 191.353 215.473 190.381 215.091 189.732C214.709 189.082 213.651 189.002 212.713 189.558Z" fill="#455A64"/>
<path d="M217.046 196.47L160.431 229.154C159.467 229.71 159.038 230.668 159.474 231.277C159.909 231.887 161.054 231.947 162.019 231.384L218.634 198.693C219.598 198.137 220.013 197.193 219.578 196.577C219.143 195.96 218.011 195.914 217.046 196.47Z" fill="#455A64"/>
<path d="M221.989 203.04L165.368 235.724C164.41 236.28 164.028 237.211 164.51 237.794C164.993 238.377 166.178 238.403 167.143 237.848L223.764 205.143C224.722 204.587 225.104 203.67 224.608 203.087C224.113 202.504 222.954 202.464 221.989 203.04Z" fill="#455A64"/>
<path d="M227.448 209.296L170.846 241.98C169.882 242.536 169.507 243.447 170.069 243.989C170.632 244.532 171.824 244.545 172.782 243.989L229.404 211.298C230.368 210.742 230.703 209.845 230.167 209.289C229.631 208.733 228.426 208.746 227.448 209.296Z" fill="#455A64"/>
<path d="M233.476 215.276L176.854 247.961C175.896 248.517 175.581 249.408 176.184 249.937C176.787 250.466 178.019 250.446 178.984 249.89L235.559 217.199C236.516 216.643 236.818 215.772 236.228 215.236C235.639 214.7 234.413 214.721 233.476 215.276Z" fill="#455A64"/>
<path d="M167.209 149.847L140.499 165.252C140.794 174.93 141.899 188.888 145.944 202.946L172.661 187.542C168.609 173.483 167.504 159.519 167.209 149.847Z" fill="#B75400"/>
<path opacity="0.8" d="M167.209 149.847L140.499 165.252C140.794 174.93 141.899 188.888 145.944 202.946L172.661 187.542C168.609 173.483 167.504 159.519 167.209 149.847Z" fill="white"/>
<path d="M151.39 163.122C151.426 162.497 151.328 161.872 151.104 161.288C150.88 160.704 150.535 160.174 150.09 159.733L140.499 165.265C140.58 167.824 140.714 170.684 140.948 173.765C142.196 173.908 143.458 173.675 144.571 173.095C148.342 171.367 151.39 166.886 151.39 163.122Z" fill="#B75400"/>
<path opacity="0.6" d="M151.39 163.122C151.426 162.497 151.328 161.872 151.104 161.288C150.88 160.704 150.535 160.174 150.09 159.733L140.499 165.265C140.58 167.824 140.714 170.684 140.948 173.765C142.196 173.908 143.458 173.675 144.571 173.095C148.342 171.367 151.39 166.886 151.39 163.122Z" fill="white"/>
<path d="M170.391 178.299C168.609 176.055 164.986 169.123 163.439 166.103C163.378 165.983 163.283 165.885 163.165 165.82C163.048 165.755 162.914 165.727 162.781 165.74C162.647 165.752 162.521 165.804 162.417 165.889C162.313 165.974 162.238 166.088 162.2 166.216C160.526 171.938 159.554 177.842 159.306 183.798C157.076 182.027 155.158 179.894 153.634 177.488C153.569 177.395 153.478 177.323 153.373 177.279C153.268 177.235 153.153 177.223 153.041 177.242C152.929 177.262 152.825 177.313 152.742 177.39C152.658 177.467 152.598 177.566 152.569 177.676C149.648 188.921 151.115 199.986 151.115 199.986L172.661 187.542C171.764 184.434 171.021 181.34 170.391 178.299Z" fill="#B75400"/>
<path opacity="0.6" d="M170.391 178.299C168.609 176.055 164.986 169.123 163.439 166.103C163.378 165.983 163.283 165.885 163.165 165.82C163.048 165.755 162.914 165.727 162.781 165.74C162.647 165.752 162.521 165.804 162.417 165.889C162.313 165.974 162.238 166.088 162.2 166.216C160.526 171.938 159.554 177.842 159.306 183.798C157.076 182.027 155.158 179.894 153.634 177.488C153.569 177.395 153.478 177.323 153.373 177.279C153.268 177.235 153.153 177.223 153.041 177.242C152.929 177.262 152.825 177.313 152.742 177.39C152.658 177.467 152.598 177.566 152.569 177.676C149.648 188.921 151.115 199.986 151.115 199.986L172.661 187.542C171.764 184.434 171.021 181.34 170.391 178.299Z" fill="white"/>
</svg>
